<?xml version="1.0" standalone="no"?>
<!DOCTYPE svg PUBLIC "-//W3C//DTD SVG 20010904//EN"
 "http://www.w3.org/TR/2001/REC-SVG-20010904/DTD/svg10.dtd">
 <svg version="1.0" xmlns="http://www.w3.org/2000/svg"
 width="200.000000pt" height="200.000000pt" viewBox="0 0 200.000000 200.000000"
 preserveAspectRatio="xMidYMid meet"
>
<g transform="translate(0.000000,200.000000) scale(0.100000,-0.100000)"
fill="#ffe229" stroke="none">
<path d="M883 1605 c-351 -64 -743 -347 -827 -599 -33 -99 -20 -148 69 -259
88 -112 118 -128 239 -128 91 -1 240 27 289 53 14 7 38 0 100 -31 184 -93 464
-128 717 -90 232 34 421 132 475 246 27 55 15 219 -19 277 -61 104 -262 208
-446 230 -125 15 -130 17 -130 37 0 47 -98 200 -148 231 -40 25 -138 48 -202
47 -25 -1 -77 -7 -117 -14z"/>
</g>
 <g transform="translate(0.000000,200.000000) scale(0.100000,-0.100000)"
   fill="#ffe229" stroke="none">
   <path d="M883 1605 c-351 -64 -743 -347 -827 -599 -33 -99 -20 -148 69 -259
88 -112 118 -128 239 -128 91 -1 240 27 289 53 14 7 38 0 100 -31 184 -93 464
-128 717 -90 232 34 421 132 475 246 27 55 15 219 -19 277 -61 104 -262 208
-446 230 -125 15 -130 17 -130 37 0 47 -98 200 -148 231 -40 25 -138 48 -202
47 -25 -1 -77 -7 -117 -14z"/>
 </g>
 <g transform="translate(0.000000,200.000000) scale(0.050000,-0.050000)"
   fill="#000000" stroke="none">
   <path d="M1940 3249 c-16 -3 -97 -16 -180 -30 -240 -38 -592 -171 -789 -295
-45 -28 -130 -82 -191 -121 -185 -116 -544 -494 -622 -655 -109 -225 -101
-412 26 -588 213 -295 283 -340 524 -340 184 0 514 61 561 103 32 29 113 19
179 -21 657 -405 2105 -269 2419 228 65 103 78 451 22 585 -90 217 -511 448
-909 499 -286 37 -267 30 -284 111 -15 71 -59 154 -169 317 -60 90 -205 170
-337 188 -158 20 -218 25 -250 19z m190 -89 c7 -22 29 -40 49 -40 59 0 171
-53 139 -66 -16 -6 -7 -12 20 -12 27 -1 65 -17 85 -35 21 -18 37 -24 37 -12 0
11 -14 26 -31 33 -17 6 -26 21 -19 33 8 11 39 -12 74 -55 332 -416 -677 -1379
-1598 -1527 -73 -11 -138 -24 -144 -27 -63 -36 -500 83 -472 128 7 11 2 20
-12 20 -24 0 -61 40 -101 108 -19 33 -16 36 21 27 23 -6 42 -3 42 7 0 10 -18
18 -40 18 -22 0 -40 4 -40 8 0 5 -6 24 -13 44 -10 23 -6 30 10 20 12 -8 23 -6
23 5 0 11 -11 25 -25 31 -19 9 -19 15 -1 23 13 7 19 23 14 37 -5 14 1 51 15
84 25 61 30 78 34 105 2 9 20 37 41 61 l39 44 14 -46 c14 -43 17 -41 49 34 19
44 30 90 26 103 -5 13 1 29 13 36 11 7 21 -1 21 -18 0 -70 56 -25 67 55 7 43
53 94 86 94 15 0 38 23 51 50 12 28 37 50 54 51 41 0 102 46 102 76 0 13 14
23 31 23 16 0 35 13 42 30 6 16 21 24 34 16 13 -8 12 0 -3 18 -55 68 581 396
688 355 37 -14 44 -11 35 12 -8 21 -2 26 23 16 19 -7 40 -4 47 8 37 59 455 81
473 25z m520 -445 c23 -97 23 -99 1 -185 -138 -531 -1163 -1251 -1726 -1213
-25 2 -43 10 -40 18 6 17 -12 25 -55 25 -42 0 -38 -55 5 -66 19 -5 -36 -10
-122 -12 -178 -2 -258 26 -344 122 -55 62 -55 62 -7 48 26 -8 125 -19 218 -24
94 -6 191 -21 217 -34 39 -19 50 -17 66 12 10 19 39 34 64 34 267 0 910 333
1242 643 193 180 259 271 392 540 9 17 22 65 30 104 16 85 38 80 59 -12z m134
-175 c-4 -16 9 -21 35 -14 23 5 41 2 41 -8 0 -10 10 -18 21 -18 12 0 16 8 10
18 -6 9 1 27 14 38 66 54 742 -177 703 -240 -8 -13 -5 -17 8 -9 11 8 26 5 33
-5 6 -11 0 -23 -14 -28 -14 -4 -6 -5 18 -1 48 7 175 -119 161 -160 -4 -13 6
-33 23 -45 85 -63 -7 -329 -154 -445 -310 -244 -1081 -384 -1573 -285 -66 14
-138 28 -160 32 -22 4 -106 24 -187 45 l-147 37 97 48 c53 27 135 74 180 106
50 35 94 52 108 43 15 -9 20 -7 13 4 -11 18 51 87 78 87 6 0 65 47 131 105 66
58 129 103 140 100 11 -4 15 2 9 12 -6 10 18 48 53 85 36 38 65 73 65 78 0 6
7 8 15 5 8 -3 15 7 15 21 0 15 18 46 39 69 22 23 55 77 74 120 l33 78 112 -17
c638 -96 896 -457 503 -705 -276 -175 -905 -239 -1254 -128 -13 4 -25 -2 -27
-13 -15 -78 713 -109 970 -42 352 93 572 283 542 467 -6 41 -13 87 -15 101
-18 135 -413 334 -740 372 -70 8 -81 46 -31 104 28 31 66 24 58 -12z m1090
-849 c-11 -49 -30 -87 -42 -85 -12 2 -19 -16 -16 -41 7 -48 -25 -62 -44 -20
-6 14 -7 6 -1 -18 8 -34 -2 -47 -50 -64 -34 -11 -61 -26 -61 -33 0 -7 9 -7 20
0 11 7 20 8 20 3 0 -14 -139 -93 -163 -93 -11 0 -44 -18 -72 -40 -28 -22 -71
-40 -96 -40 -25 0 -59 -13 -75 -29 -17 -17 -49 -24 -76 -18 -38 8 -42 6 -18
-11 25 -18 21 -22 -20 -25 -122 -7 -193 -15 -246 -25 -33 -7 -51 -4 -44 7 6
11 -32 7 -84 -8 -53 -15 -110 -26 -126 -26 -17 1 -58 -5 -90 -12 -44 -10 -52
-9 -30 6 41 28 -57 29 -130 1 -35 -13 -48 -13 -40 0 7 11 -1 20 -16 20 -16 0
-59 5 -96 10 -56 9 -61 7 -28 -10 31 -16 21 -17 -40 -7 -44 8 -102 13 -128 12
-37 -1 -42 3 -20 18 19 14 9 16 -33 8 -49 -10 -69 -2 -106 40 -31 36 -59 49
-87 42 -22 -6 -35 -5 -29 1 43 43 -144 95 -205 57 -13 -8 -17 -1 -11 15 6 16
-3 34 -21 41 -19 7 -27 4 -20 -7 14 -22 -30 -26 -79 -8 -103 40 107 88 214 50
196 -72 332 -102 549 -125 671 -68 1311 98 1578 411 43 50 79 91 80 91 1 1 -7
-39 -18 -88z"/>
   <path d="M1690 2976 c-328 -43 -730 -241 -980 -485 -38 -36 -73 -61 -79 -55
-6 6 -11 1 -11 -10 0 -12 -36 -75 -80 -142 -201 -300 -109 -568 203 -593 104
-8 105 -7 47 20 -33 15 -73 28 -90 28 -55 2 -158 79 -191 143 -211 408 896
1192 1460 1036 510 -142 21 -867 -769 -1141 -60 -21 -114 -38 -120 -38 -87 6
-222 -49 -166 -67 113 -36 658 186 872 354 625 493 570 1038 -96 950z"/>
   <path d="M1480 2689 c0 -29 -9 -46 -20 -39 -11 7 -20 -2 -20 -19 0 -17 -11
-31 -25 -31 -17 -1 -15 -7 5 -20 25 -16 24 -19 -7 -20 -22 0 -33 -10 -27 -26
5 -14 -3 -42 -18 -63 -15 -20 -22 -45 -16 -54 6 -9 -4 -17 -21 -17 -19 0 -31
-18 -31 -45 -1 -36 -4 -39 -20 -15 -18 28 -29 14 -22 -28 2 -9 -11 -34 -30
-54 -18 -20 -28 -50 -21 -67 6 -17 5 -31 -3 -31 -18 0 -17 -94 1 -112 7 -6 28
-2 48 10 34 19 34 21 2 21 -19 1 -35 9 -35 19 0 42 26 82 53 82 16 0 24 8 18
19 -6 10 -2 24 10 32 28 17 99 181 99 229 0 19 11 40 25 45 65 25 141 235 85
235 -19 0 -30 -19 -30 -51z"/>
   <path d="M1120 2069 c0 -38 -9 -69 -20 -69 -11 0 -20 -13 -20 -30 0 -35 51
-40 72 -7 26 42 22 155 -6 166 -18 7 -26 -10 -26 -60z"/>
   <path d="M1045 1890 c-14 -16 -24 -53 -23 -84 1 -33 6 -44 13 -26 6 17 38 55
70 85 59 54 59 55 12 54 -26 0 -58 -13 -72 -29z"/>
   <path d="M860 1561 c0 -11 32 -19 71 -17 45 2 61 8 45 19 -36 23 -116 21 -116
-2z"/>
   <path d="M3213 2119 c-25 -76 -29 -201 -6 -193 13 4 20 35 16 73 -4 37 3 72
14 79 13 8 14 24 3 42 -16 25 -19 25 -27 -1z"/>
   <path d="M3100 1241 c0 -11 -34 -26 -75 -33 -41 -8 -64 -18 -51 -22 38 -13
188 34 175 55 -15 25 -49 25 -49 0z"/>
 </g>
</svg>
