<svg version="1.0" xmlns="http://www.w3.org/2000/svg" width="270.000000pt" height="288.000000pt"
    viewBox="0 0 270.000000 288.000000" preserveAspectRatio="xMidYMid meet">
    <g transform="translate(0.000000,288.000000) scale(0.100000,-0.100000)" fill="#fed402"
        stroke="none">
        <path
            d="M1435 2678 c-3 -7 -6 -47 -7 -88 l-3 -75 -85 -5 -85 -5 -5 -85 -5 -85 -85 -5 -85 -5 -5 -85 -5 -85 -85 -5 -85 -5 -5 -85 -5 -85 -85 -5 -85 -5 -5 -85 -5 -85 -85 -5 -85 -5 -5 -85 -5 -85 -85 -5 -85 -5 -5 -85 -5 -85 -85 -5 -85 -5 0 -355 0 -355 85 -5 85 -5 5 -85 5 -85 85 -5 85 -5 5 -85 5 -85 85 -5 85 -5 5 -85 5 -85 265 0 265 0 5 85 5 85 85 5 85 5 5 85 5 85 85 5 85 5 5 85 5 85 85 5 85 5 5 85 5 85 85 5 85 5 5 85 5 85 85 5 85 5 5 85 5 85 85 5 85 5 5 85 5 85 85 5 85 5 0 355 0 355 -85 5 -85 5 -5 85 -5 85 -85 5 -85 5 -5 85 -5 85 -85 5 -85 5 -5 85 -5 85 -263 3 c-205 2 -263 0 -267 -10z" />
    </g>
    <g transform="translate(0.000000,288.000000) scale(0.100000,-0.100000)" fill="#fff1af"
        stroke="#fff1af" strokeWidth="5px">
        <path
            d="M1614 2137 c-3 -8 -4 -47 -2 -88 l3 -74 175 0 175 0 0 85 0 85 -173 3 c-138 2 -173 0 -178 -11z" />
        <path
            d="M1254 1777 c-3 -8 -4 -47 -2 -88 l3 -74 175 0 175 0 0 85 0 85 -173 3 c-138 2 -173 0 -178 -11z" />
        <path
            d="M714 1057 c-3 -8 -4 -47 -2 -88 l3 -74 265 0 265 0 0 85 0 85 -263 3 c-214 2 -263 0 -268 -11z" />
    </g>
    <g transform="translate(0.000000,288.000000) scale(0.100000,-0.100000)" fill="#fef986"
        stroke="#fef986" strokeWidth="5px">
        <path
            d="M1254 2137 c-3 -8 -4 -47 -2 -88 l3 -74 175 0 175 0 0 85 0 85 -173 3 c-138 2 -173 0 -178 -11z" />
        <path
            d="M1974 2137 c-3 -8 -4 -47 -2 -88 l3 -74 88 -3 87 -3 0 -89 0 -89 -87 -3 -88 -3 -3 -87 -3 -88 -89 0 -89 0 -3 88 -3 87 -85 0 -85 0 0 -85 0 -85 88 -3 87 -3 0 -89 0 -89 -87 -3 -88 -3 -3 -87 -3 -87 -87 -3 -87 -3 -3 -87 -3 -87 -87 -3 -87 -3 0 -85 0 -85 85 0 85 0 3 87 3 87 87 3 87 3 3 87 3 87 87 3 87 3 3 87 3 87 87 3 87 3 3 87 3 87 87 3 87 3 3 87 3 87 87 3 87 3 0 85 0 85 -87 3 -87 3 -3 87 -3 87 -83 3 c-63 2 -84 0 -88 -11z" />
        <path
            d="M894 1777 c-3 -8 -4 -47 -2 -88 l3 -74 175 0 175 0 0 85 0 85 -173 3 c-138 2 -173 0 -178 -11z" />
        <path
            d="M354 1237 c-3 -8 -4 -47 -2 -88 l3 -74 87 -3 87 -3 3 -87 3 -87 85 0 85 0 0 85 0 85 -87 3 -87 3 -3 87 -3 87 -83 3 c-63 2 -84 0 -88 -11z" />
    </g>
    <g transform="translate(0.000000,288.000000) scale(0.100000,-0.100000)" fill="#fed402"
        stroke="#fed402" strokeWidth="5px">
        <path
            d="M1435 2498 c-3 -7 -6 -47 -7 -88 l-3 -75 -85 -5 -85 -5 -3 -87 -3
-87 -87 -3 -87 -3 -5 -85 -5 -85 -85 -5 -85 -5 -3 -87 -3 -87 -87 -3 -87 -3
-5 -85 -5 -85 -85 -5 -85 -5 -5 -85 -5 -85 -85 -5 -85 -5 0 -85 0 -85 85 -5
85 -5 5 -85 5 -85 445 0 445 0 5 85 5 85 85 5 85 5 5 85 5 85 85 5 85 5 3 87
3 87 87 3 87 3 5 85 5 85 85 5 85 5 3 87 3 87 87 3 87 3 0 85 0 85 -87 3 -87
3 -3 87 -3 87 -85 5 -85 5 -5 85 -5 85 -263 3 c-205 2 -263 0 -267 -10z m715
-438 l0 -90 -447 2 -448 3 -3 88 -3 87 451 0 450 0 0 -90z m-362 -363 l3 -87
-448 2 -448 3 -3 88 -3 87 448 -2 448 -3 3 -88z" />
        <path
            d="M714 877 c-3 -8 -4 -47 -2 -88 l3 -74 265 0 265 0 0 85 0 85 -263 3
c-214 2 -263 0 -268 -11z" />
    </g>
    <g transform="translate(0.000000,288.000000) scale(0.100000,-0.100000)" fill="#c56e3c"
        stroke="#c56e3c" strokeWidth="5px">
        <path
            d="M1437 2683 c-4 -3 -7 -44 -7 -89 l0 -83 -87 -3 -88 -3 -3 -87 -3 -87 -87 -3 -87 -3 -3 -87 -3 -87 -87 -3 -87 -3 -3 -87 -3 -87 -87 -3 -87 -3 -3 -87 -3 -87 -87 -3 -87 -3 -3 -87 -3 -87 -87 -3 -87 -3 -3 -87 -3 -87 -87 -3 -87 -3 0 -85 0 -85 85 0 85 0 3 87 3 87 87 3 87 3 3 87 3 87 87 3 87 3 3 87 3 87 87 3 87 3 3 87 3 87 87 3 87 3 3 87 3 87 87 3 87 3 3 87 3 87 87 3 87 3 3 88 3 87 269 0 269 0 3 -87 3 -88 87 -3 87 -3 3 -87 3 -87 87 -3 87 -3 3 -87 3 -87 85 0 85 0 0 85 0 85 -87 3 -87 3 -3 87 -3 87 -87 3 -87 3 -3 87 -3 87 -87 3 -87 3 -3 87 -3 87 -261 3 c-143 1 -263 -1 -267 -5z" />
        <path
            d="M2155 1778 c-2 -7 -6 -47 -7 -88 l-3 -75 -85 -5 -85 -5 -5 -85 -5 -85 -85 -5 -85 -5 -5 -85 -5 -85 -85 -5 -85 -5 -5 -85 -5 -85 -85 -5 -85 -5 -5 -85 -5 -85 -85 -5 -85 -5 -5 -85 -5 -85 -265 0 -265 0 -5 85 -5 85 -85 5 -85 5 -5 85 -5 85 -85 0 -85 0 0 -175 0 -175 85 -5 85 -5 5 -85 5 -85 85 -5 85 -5 5 -85 5 -85 265 0 265 0 5 85 5 85 85 5 85 5 5 85 5 85 85 5 85 5 5 85 5 85 85 5 85 5 5 85 5 85 85 5 85 5 5 85 5 85 85 5 85 5 5 85 5 85 85 5 85 5 0 175 0 175 -83 3 c-60 2 -84 -1 -87 -10z" />
    </g>
    <g transform="translate(0.000000,288.000000) scale(0.100000,-0.100000)" fill="#a14054"
        stroke="#a14054" strokeWidth="5px">
        <path
            d="M2337 1964 c-4 -4 -7 -126 -7 -270 l0 -263 -87 -3 -88 -3 -3 -87 -3 -87 -87 -3 -87 -3 -3 -87 -3 -87 -87 -3 -87 -3 -3 -87 -3 -87 -87 -3 -87 -3 -3 -87 -3 -87 -87 -3 -87 -3 -3 -87 -3 -87 -87 -3 -87 -3 -3 -87 -3 -88 -269 0 -269 0 -3 88 -3 87 -87 3 -87 3 -3 87 -3 87 -87 3 -88 3 -2 267 -3 267 -85 0 -85 0 0 -265 0 -265 87 -3 87 -3 3 -87 3 -87 87 -3 87 -3 3 -87 3 -87 87 -3 87 -3 3 -87 3 -87 265 0 265 0 3 87 3 87 87 3 87 3 3 87 3 87 87 3 87 3 3 87 3 87 87 3 87 3 3 87 3 87 87 3 87 3 3 87 3 87 87 3 87 3 3 87 3 87 87 3 87 3 3 87 3 87 87 3 87 3 0 265 0 265 -80 3 c-45 1 -84 0 -88 -4z" />
    </g>

</svg>