<svg version="1.0" xmlns="http://www.w3.org/2000/svg"
    width="288.000000pt" height="288.000000pt" viewBox="0 0 288.000000 288.000000"
    preserveAspectRatio="xMidYMid meet">
    <g transform="translate(0.000000,288.000000) scale(0.100000,-0.100000)" fill="#383838"
        stroke="none">
        <path
            d="M807 2503 c-4 -3 -7 -84 -7 -179 l0 -173 -42 -3 -43 -3 -3 -312 -2 -313 -178 -2 -177 -3 0 -535 0 -535 178 -3 177 -2 0 -220 0 -220 360 0 360 0 -2 1073 -3 1072 -42 3 -43 3 -2 177 -3 177 -261 3 c-143 1 -263 -1 -267 -5z m-97 -1523 l0 -360 -90 0 -90 0 0 360 0 360 90 0 90 0 0 -360z" />
    </g>
    <g transform="translate(0.000000,288.000000) scale(0.100000,-0.100000)"
        fill="#3a3a3a" stroke="none">
        <path
            d="M1074 1507 c-3 -8 -4 -47 -2 -88 l3 -74 175 0 175 0 0 85 0 85 -173
3 c-138 2 -173 0 -178 -11z" />
        <path
            d="M1074 247 c-3 -8 -4 -47 -2 -88 l3 -74 175 0 175 0 0 85 0 85 -173 3
c-138 2 -173 0 -178 -11z" />
    </g>
    <g transform="translate(0.000000,288.000000) scale(0.100000,-0.100000)" fill="#373737"
        stroke="none">
        <path
            d="M1075 1867 c-3 -7 -4 -87 -3 -177 l3 -165 175 0 175 0 0 175 0 175 -173 3 c-135 2 -174 0 -177 -11z" />
        <path
            d="M1075 1328 c-3 -7 -4 -249 -3 -538 l3 -525 175 0 175 0 0 535 0 535 -173 3 c-132 2 -174 0 -177 -10z" />
    </g>
    <g transform="translate(0.000000,288.000000) scale(0.100000,-0.100000)" fill="#383838"
        stroke="none">
        <path
            d="M715 1868 c-3 -7 -4 -411 -3 -898 l3 -885 175 0 175 0 0 895 0 895 -173 3 c-132 2 -174 0 -177 -10z" />
        <path
            d="M354 1147 c-3 -8 -4 -47 -2 -88 l3 -74 85 0 85 0 0 85 0 85 -83 3 c-63 2 -84 0 -88 -11z" />
        <path
            d="M354 787 c-3 -8 -4 -47 -2 -88 l3 -74 85 0 85 0 0 85 0 85 -83 3 c-63 2 -84 0 -88 -11z" />
    </g>
    <g transform="translate(0.000000,288.000000) scale(0.100000,-0.100000)" fill="#202121"
        stroke="none">
        <path
            d="M984 2497 c-2 -7 -3 -67 -2 -133 l3 -119 175 0 175 0 0 130 0 130 -173 3 c-136 2 -174 0 -178 -11z" />
        <path
            d="M355 1507 c-3 -7 -4 -87 -3 -177 l3 -165 85 0 85 0 3 87 3 87 87 3 87 3 0 85 0 85 -173 3 c-135 2 -174 0 -177 -11z" />
        <path
            d="M354 607 c-3 -8 -4 -47 -2 -88 l3 -74 175 0 175 0 0 85 0 85 -173 3 c-138 2 -173 0 -178 -11z" />
    </g>
    <g transform="translate(0.000000,288.000000) scale(0.100000,-0.100000)" fill="#949495"
        stroke="none">
        <path
            d="M807 2233 c-4 -3 -7 -23 -7 -44 0 -37 -1 -38 -42 -41 l-43 -3 0 -130 0 -130 355 0 355 0 0 130 0 130 -42 3 c-42 3 -42 3 -45 45 l-3 42 -261 3 c-143 1 -263 -1 -267 -5z" />
        <path
            d="M1617 1064 c-4 -4 -7 -24 -7 -45 0 -37 -1 -38 -42 -41 l-43 -3 0 -130 0 -130 40 0 40 0 3 87 3 87 42 3 c42 3 42 3 45 45 3 42 3 42 45 45 42 3 42 3 42 43 l0 40 -80 3 c-45 1 -84 0 -88 -4z" />
        <path
            d="M354 967 c-3 -8 -4 -47 -2 -88 l3 -74 85 0 85 0 0 85 0 85 -83 3 c-63 2 -84 0 -88 -11z" />
        <path
            d="M717 73 c-4 -3 -7 -21 -7 -40 l0 -33 361 0 360 0 -3 38 -3 37 -351 3 c-193 1 -353 -1 -357 -5z" />
    </g>
    <g transform="translate(0.000000,288.000000) scale(0.100000,-0.100000)" fill="#171717"
        stroke="none">
        <path
            d="M805 2497 c-3 -7 -4 -67 -3 -133 l3 -119 85 0 85 0 0 130 0 130 -83 3 c-62 2 -84 -1 -87 -11z" />
    </g>
    <g transform="translate(0.000000,288.000000) scale(0.100000,-0.100000)" fill="#75432a"
        stroke="none">
        <path
            d="M1164 697 c-3 -8 -4 -47 -2 -88 l3 -74 42 -3 43 -3 2 -177 3 -177 43 -3 42 -3 0 -85 0 -84 135 0 135 0 0 84 0 85 43 3 42 3 3 177 2 177 43 3 42 3 0 85 0 85 -308 3 c-252 2 -308 0 -313 -11z" />
    </g>
    <g transform="translate(0.000000,288.000000) scale(0.100000,-0.100000)" fill="#7b4d36"
        stroke="none">
        <path
            d="M1344 697 c-3 -8 -4 -47 -2 -88 l3 -74 43 -3 42 -3 0 -265 0 -264 90 0 90 0 0 84 0 85 43 3 42 3 0 265 0 265 -173 3 c-138 2 -173 0 -178 -11z" />
    </g>
    <g transform="translate(0.000000,288.000000) scale(0.100000,-0.100000)" fill="#74432a"
        stroke="none">
        <path
            d="M1164 697 c-3 -8 -4 -47 -2 -88 l3 -74 42 -3 43 -3 2 -177 3 -177 85 0 85 0 0 175 0 175 -42 3 -42 3 -3 87 -3 87 -83 3 c-63 2 -84 0 -88 -11z" />
        <path
            d="M1704 697 c-3 -8 -4 -47 -2 -88 l3 -74 40 0 40 0 0 85 0 85 -38 3 c-25 2 -39 -1 -43 -11z" />
    </g>
    <g transform="translate(0.000000,288.000000) scale(0.100000,-0.100000)" fill="#603724"
        stroke="none">
        <path
            d="M1347 164 c-4 -4 -7 -43 -7 -86 l0 -78 45 0 46 0 -3 83 -3 82 -35 3 c-20 2 -39 0 -43 -4z" />
    </g>
</svg>