 <svg  version="1.0" xmlns="http://www.w3.org/2000/svg"  width="300.000000pt" height="368.000000pt" viewBox="0 0 300.000000 368.000000"  preserveAspectRatio="xMidYMid meet">  <g transform="translate(0.000000,368.000000) scale(0.100000,-0.100000)" fill="#f9f9f9" stroke="none"> <path d="M1501 3615 c-18 -8 -58 -15 -88 -15 -30 0 -67 -7 -82 -15 -16 -8 -68 -19 -117 -25 -204 -25 -290 -62 -410 -174 -95 -88 -136 -147 -163 -236 -63 -207 -73 -410 -31 -589 22 -92 29 -108 63 -139 40 -39 46 -65 21 -100 -8 -12 -13 -26 -10 -31 3 -5 -5 -29 -19 -55 -29 -55 -19 -59 24 -10 24 27 31 44 31 72 -1 20 1 52 3 69 4 26 1 37 -19 52 -13 10 -24 24 -24 30 0 6 -7 11 -15 11 -8 0 -17 12 -20 28 -4 15 -13 56 -22 92 -24 98 -26 283 -3 410 22 124 70 260 92 260 4 0 7 5 5 12 -1 6 10 18 24 25 15 7 30 23 33 36 12 39 206 188 206 157 0 -6 9 -1 19 9 20 20 132 44 208 45 22 1 39 4 36 9 -2 4 7 7 20 7 14 0 44 7 68 16 24 9 69 16 99 16 30 0 65 6 78 14 41 27 86 9 143 -57 28 -32 59 -59 69 -59 11 0 21 -4 24 -9 4 -5 27 -20 54 -32 52 -26 132 -94 132 -114 0 -7 7 -18 15 -25 9 -7 14 -19 11 -26 -3 -7 -1 -16 4 -19 6 -4 10 -26 10 -50 0 -33 -6 -51 -26 -72 -14 -15 -22 -22 -18 -14 4 9 3 12 -4 7 -21 -13 -1 -107 34 -163 l34 -53 -28 -6 c-15 -4 -30 -12 -34 -18 -6 -8 -11 -7 -17 3 -8 12 -12 12 -25 -2 -19 -19 -21 -47 -3 -47 6 0 30 9 52 19 48 21 74 18 52 -8 -9 -9 -17 -27 -19 -41 -2 -17 -10 -26 -25 -28 -20 -3 -21 -6 -10 -25 7 -12 16 -25 21 -29 14 -9 9 -80 -6 -90 -7 -4 -23 -8 -34 -8 -28 0 -51 -27 -37 -41 7 -7 15 -5 24 9 8 11 29 23 47 26 31 7 32 7 33 -26 1 -18 1 -37 0 -42 -1 -6 -3 -41 -4 -79 -1 -48 -7 -72 -17 -80 -11 -9 -14 -22 -9 -47 5 -29 7 -32 13 -15 24 63 26 65 55 65 17 0 34 -6 38 -14 4 -7 33 -26 63 -42 32 -16 48 -29 39 -31 -23 -5 -11 -85 13 -89 14 -2 16 1 8 16 -17 31 -12 50 13 50 39 0 101 -90 192 -277 89 -185 107 -227 84 -205 -24 22 -28 12 -5 -13 18 -19 23 -35 22 -76 -1 -28 2 -53 6 -55 16 -10 64 -131 78 -199 5 -22 22 -80 39 -130 33 -96 36 -109 22 -101 -5 4 -7 -3 -4 -14 3 -11 7 -20 9 -20 3 0 20 16 40 35 19 19 39 35 45 35 6 0 28 13 48 28 20 15 47 33 61 40 14 7 41 26 60 42 34 28 35 31 40 113 5 83 5 84 -16 77 -30 -12 -157 -94 -171 -111 -6 -8 -23 -54 -38 -104 -36 -124 -34 -120 -45 -109 -8 8 -77 226 -83 263 -4 23 -39 112 -53 136 -6 11 -17 58 -24 105 -13 86 -43 164 -97 256 -17 27 -36 67 -43 88 -32 98 -112 195 -200 243 -36 20 -75 45 -86 55 -12 11 -34 23 -50 27 -21 6 -28 13 -27 27 2 10 4 57 6 104 1 47 6 90 9 96 4 6 -2 10 -15 10 -13 -1 -22 5 -22 14 0 16 54 18 64 2 3 -5 23 -12 44 -16 21 -4 41 -14 44 -22 8 -22 23 -16 23 10 0 16 -7 26 -23 30 -53 13 -157 67 -157 81 0 9 11 38 25 65 31 62 31 80 0 116 -34 39 -58 92 -57 125 0 14 13 44 27 65 24 35 26 45 21 98 -11 105 -95 198 -234 258 -28 12 -69 44 -102 79 -62 65 -95 77 -149 54z m1409 -2077 c0 -15 -22 -78 -33 -95 -5 -8 -1 -11 15 -8 17 4 11 -6 -27 -40 -26 -25 -57 -45 -67 -45 -10 0 -18 -4 -18 -9 0 -8 -37 -24 -52 -22 -5 1 -8 -6 -8 -14 0 -8 -5 -15 -11 -15 -5 0 -8 3 -6 8 3 4 14 39 26 79 21 71 23 73 93 123 75 52 88 58 88 38z"/> <path d="M1535 3560 c-3 -5 -1 -10 4 -10 6 0 11 5 11 10 0 6 -2 10 -4 10 -3 0 -8 -4 -11 -10z"/> <path d="M1390 3509 c0 -6 9 -13 20 -16 11 -3 20 -9 20 -13 0 -4 11 -10 24 -12 35 -7 23 15 -20 35 -41 20 -44 20 -44 6z"/> <path d="M1599 3496 c-2 -2 -2 -28 0 -58 3 -41 5 -48 12 -31 4 12 6 34 3 48 -3 20 -1 25 8 19 10 -6 9 -3 -1 9 -15 18 -16 19 -22 13z"/> <path d="M1150 3470 c0 -5 6 -10 13 -10 7 0 30 -9 52 -20 46 -23 45 -23 45 -10 0 11 -75 49 -97 50 -7 0 -13 -4 -13 -10z"/> <path d="M1550 3446 c0 -9 5 -16 10 -16 6 0 10 4 10 9 0 6 -4 13 -10 16 -5 3 -10 -1 -10 -9z"/> <path d="M923 3434 c-18 -9 -33 -20 -33 -25 0 -16 22 -9 52 16 34 29 27 32 -19 9z"/> <path d="M1028 3443 c6 -2 18 -2 25 0 6 3 1 5 -13 5 -14 0 -19 -2 -12 -5z"/> <path d="M1096 3411 c-4 -6 9 -13 31 -16 21 -3 46 -10 55 -16 10 -5 23 -9 29 -9 7 0 18 -8 25 -17 7 -10 14 -13 14 -7 0 18 -32 40 -79 53 -23 7 -49 15 -56 17 -7 3 -16 1 -19 -5z"/> <path d="M860 3390 c-8 -5 -11 -10 -7 -10 4 0 3 -9 -3 -21 -7 -11 -14 -18 -17 -15 -5 5 -33 -38 -33 -52 0 -3 18 13 41 35 22 23 39 48 37 57 -2 11 -7 13 -18 6z"/> <path d="M1350 3375 c0 -8 2 -15 4 -15 2 0 6 7 10 15 3 8 1 15 -4 15 -6 0 -10 -7 -10 -15z"/> <path d="M1839 3373 c-13 -16 -12 -17 4 -4 9 7 17 15 17 17 0 8 -8 3 -21 -13z"/> <path d="M1412 3350 c0 -14 2 -19 5 -12 2 6 2 18 0 25 -3 6 -5 1 -5 -13z"/> <path d="M913 3343 c9 -2 23 -2 30 0 6 3 -1 5 -18 5 -16 0 -22 -2 -12 -5z"/> <path d="M960 3330 c0 -5 5 -10 11 -10 5 0 7 5 4 10 -3 6 -8 10 -11 10 -2 0 -4 -4 -4 -10z"/> <path d="M1105 3330 c3 -5 10 -10 16 -10 5 0 9 5 9 10 0 6 -7 10 -16 10 -8 0 -12 -4 -9 -10z"/> <path d="M1136 3303 c-4 -9 -2 -21 4 -27 7 -7 10 -6 10 4 0 11 3 11 12 2 7 -7 20 -12 31 -12 15 0 13 4 -11 25 -35 30 -38 30 -46 8z"/> <path d="M1895 3310 c-3 -5 -1 -10 4 -10 6 0 11 5 11 10 0 6 -2 10 -4 10 -3 0 -8 -4 -11 -10z"/> <path d="M880 3301 c0 -5 12 -11 28 -14 15 -3 38 -8 52 -12 23 -6 23 -6 -5 14 -30 21 -75 28 -75 12z"/> <path d="M810 3250 c-8 -5 -11 -12 -7 -16 4 -4 13 -2 19 4 15 15 7 24 -12 12z"/> <path d="M1050 3250 c20 -13 33 -13 25 0 -3 6 -14 10 -23 10 -15 0 -15 -2 -2 -10z"/> <path d="M721 3226 c-15 -18 -32 -76 -23 -76 4 0 14 20 23 45 18 49 18 53 0 31z"/> <path d="M835 3211 c-9 -22 0 -23 25 -3 21 17 22 18 1 18 -11 0 -23 -7 -26 -15z"/> <path d="M1100 3226 c0 -2 7 -7 16 -10 8 -3 12 -2 9 4 -6 10 -25 14 -25 6z"/> <path d="M795 3210 c3 -5 1 -10 -4 -10 -6 0 -11 -4 -11 -10 0 -5 7 -7 15 -4 17 7 21 34 4 34 -5 0 -7 -4 -4 -10z"/> <path d="M910 3190 c36 -11 52 -11 45 0 -3 6 -21 10 -38 9 -31 -1 -31 -1 -7 -9z"/> <path d="M795 3160 c-3 -5 -2 -10 4 -10 5 0 13 5 16 10 3 6 2 10 -4 10 -5 0 -13 -4 -16 -10z"/> <path d="M850 3166 c0 -5 54 -36 65 -36 13 0 3 18 -12 23 -10 2 -26 8 -35 12 -10 4 -18 5 -18 1z"/> <path d="M1897 3150 c3 -11 7 -20 9 -20 2 0 4 9 4 20 0 11 -4 20 -9 20 -5 0 -7 -9 -4 -20z"/> <path d="M715 3120 c-3 -5 -1 -10 4 -10 6 0 11 5 11 10 0 6 -2 10 -4 10 -3 0 -8 -4 -11 -10z"/> <path d="M960 3106 c0 -9 7 -12 20 -9 11 3 17 9 14 14 -8 14 -34 10 -34 -5z"/> <path d="M647 3063 c-10 -9 -9 -73 1 -73 5 0 9 18 10 40 2 41 0 45 -11 33z"/> <path d="M875 3040 c3 -5 8 -10 11 -10 2 0 4 5 4 10 0 6 -5 10 -11 10 -5 0 -7 -4 -4 -10z"/> <path d="M796 3023 c-13 -13 -5 -21 19 -19 14 0 25 2 25 3 0 7 -38 21 -44 16z"/> <path d="M1620 3026 c0 -2 7 -6 15 -10 8 -3 15 -1 15 4 0 6 -7 10 -15 10 -8 0 -15 -2 -15 -4z"/> <path d="M1095 2970 c-3 -5 -1 -10 4 -10 6 0 11 5 11 10 0 6 -2 10 -4 10 -3 0 -8 -4 -11 -10z"/> <path d="M895 2950 c-13 -6 -15 -9 -5 -9 8 0 22 4 30 9 18 12 2 12 -25 0z"/> <path d="M1042 2945 c-10 -12 -10 -15 1 -15 8 0 20 7 27 15 17 21 -10 20 -28 0z"/> <path d="M970 2933 c-8 -3 -34 -14 -57 -24 -23 -11 -50 -20 -60 -22 -25 -4 -66 -27 -59 -34 3 -3 13 -2 23 2 10 5 26 10 36 11 21 5 156 73 142 73 -5 0 -17 -3 -25 -6z"/> <path d="M1548 2915 c-2 -2 -20 -5 -41 -7 -22 -1 -37 -7 -37 -15 0 -7 -8 -13 -18 -13 -10 0 -28 -10 -40 -22 -11 -13 -28 -29 -37 -37 -31 -26 -5 -23 52 5 32 15 78 29 101 31 24 1 50 7 57 13 8 7 24 6 54 -5 52 -18 113 -23 118 -10 2 6 -3 20 -12 30 -12 16 -16 17 -23 7 -11 -17 -23 -17 -33 -1 -4 7 -16 13 -26 15 -10 1 -39 4 -64 8 -26 3 -48 3 -51 1z"/> <path d="M746 2865 c-20 -19 -36 -38 -36 -42 0 -4 18 11 40 32 22 21 40 40 40 42 0 8 -11 0 -44 -32z"/> <path d="M978 2883 c6 -2 18 -2 25 0 6 3 1 5 -13 5 -14 0 -19 -2 -12 -5z"/> <path d="M1025 2811 c-76 -36 -123 -46 -159 -33 -47 17 -83 15 -90 -5 -3 -10 -9 -25 -13 -33 -6 -13 -4 -13 12 0 13 11 45 15 119 15 93 1 103 3 127 25 14 14 34 30 45 37 30 19 3 15 -41 -6z"/> <path d="M1534 2814 c-18 -15 -18 -15 6 -10 14 3 28 6 33 6 4 0 7 5 7 10 0 15 -24 12 -46 -6z"/> <path d="M1938 2823 c7 -3 16 -2 19 1 4 3 -2 6 -13 5 -11 0 -14 -3 -6 -6z"/> <path d="M704 2779 c3 -17 6 -37 6 -43 0 -7 3 -6 8 2 11 16 3 72 -10 72 -6 0 -8 -13 -4 -31z"/> <path d="M1480 2789 c0 -5 5 -7 10 -4 6 3 10 8 10 11 0 2 -4 4 -10 4 -5 0 -10 -5 -10 -11z"/> <path d="M1871 2774 c-14 -10 -19 -19 -13 -23 7 -4 8 -12 2 -21 -7 -11 -11 -9 -19 13 -12 31 -31 36 -31 9 0 -15 34 -97 45 -110 5 -6 55 10 55 18 0 4 -11 6 -24 5 -17 -2 -27 4 -34 20 -10 22 -9 24 21 27 29 3 32 6 35 41 4 41 -3 45 -37 21z"/> <path d="M666 2764 c-9 -24 -7 -28 9 -14 17 14 20 30 6 30 -5 0 -12 -7 -15 -16z"/> <path d="M1495 2749 c-22 -12 -52 -30 -67 -40 -14 -11 -39 -19 -54 -19 -34 0 -25 -10 17 -19 28 -6 37 -1 73 33 38 37 41 38 44 18 3 -17 10 -22 33 -22 24 0 30 4 27 18 -2 9 -10 16 -16 15 -18 -4 -14 15 6 26 36 21 -22 12 -63 -10z"/> <path d="M1586 2762 c-3 -5 1 -9 9 -9 8 0 15 4 15 9 0 4 -4 8 -9 8 -6 0 -12 -4 -15 -8z"/> <path d="M1078 2729 c-19 -10 -24 -29 -9 -29 5 0 19 9 32 20 26 21 9 28 -23 9z"/> <path d="M1153 2712 c-48 -30 -59 -51 -15 -28 23 12 74 58 61 55 -2 0 -23 -13 -46 -27z"/> <path d="M1635 2730 c-4 -6 -10 -8 -15 -5 -5 3 -11 1 -14 -4 -4 -5 -3 -12 1 -14 12 -7 53 11 53 23 0 13 -17 13 -25 0z"/> <path d="M791 2711 c-11 -20 -3 -143 10 -155 9 -10 14 47 10 111 -2 24 2 33 19 38 25 8 19 18 -11 20 -11 1 -24 -5 -28 -14z"/> <path d="M935 2721 c-3 -5 2 -11 10 -15 8 -3 17 -1 20 3 3 5 -2 11 -10 15 -8 3 -17 1 -20 -3z"/> <path d="M700 2704 c0 -8 5 -12 10 -9 6 4 8 11 5 16 -9 14 -15 11 -15 -7z"/> <path d="M900 2690 c-8 -5 -18 -6 -24 -3 -5 3 -6 1 -2 -5 9 -15 33 -15 41 -1 10 15 2 20 -15 9z"/> <path d="M1158 2670 c-43 -38 -24 -38 22 0 19 17 29 30 22 30 -6 0 -26 -13 -44 -30z"/> <path d="M625 2680 c-3 -5 -1 -10 4 -10 6 0 11 5 11 10 0 6 -2 10 -4 10 -3 0 -8 -4 -11 -10z"/> <path d="M985 2680 c3 -5 10 -10 16 -10 5 0 9 5 9 10 0 6 -7 10 -16 10 -8 0 -12 -4 -9 -10z"/> <path d="M1205 2670 c-10 -11 -15 -20 -12 -20 14 0 57 24 57 32 0 15 -27 8 -45 -12z"/> <path d="M1685 2680 c-3 -5 1 -10 9 -10 9 0 16 5 16 10 0 6 -4 10 -9 10 -6 0 -13 -4 -16 -10z"/> <path d="M1255 2669 c-4 -6 -5 -12 -2 -15 7 -7 37 7 37 17 0 13 -27 11 -35 -2z"/> <path d="M1295 2659 c-4 -6 -5 -13 -2 -16 7 -7 27 6 27 18 0 12 -17 12 -25 -2z"/> <path d="M1625 2660 c-3 -5 1 -10 9 -10 8 0 18 5 21 10 3 6 -1 10 -9 10 -8 0 -18 -4 -21 -10z"/> <path d="M1340 2640 c0 -5 12 -10 26 -10 14 0 23 4 19 10 -3 6 -15 10 -26 10 -10 0 -19 -4 -19 -10z"/> <path d="M1747 2629 c7 -7 15 -10 18 -7 3 3 -2 9 -12 12 -14 6 -15 5 -6 -5z"/> <path d="M1092 2609 c-14 -22 -7 -25 14 -5 8 8 11 17 6 20 -4 2 -13 -4 -20 -15z"/> <path d="M1425 2617 c-4 -10 -5 -21 -1 -24 10 -10 18 4 13 24 -4 17 -4 17 -12 0z"/> <path d="M1790 2618 c0 -7 6 -20 13 -29 11 -15 15 -15 32 -3 21 15 14 28 -22 39 -16 4 -23 2 -23 -7z"/> <path d="M898 2604 c-22 -11 -28 -22 -28 -49 0 -46 9 -65 31 -65 11 0 31 -7 44 -16 22 -14 25 -14 25 -1 0 8 -6 20 -14 26 -20 16 -26 72 -9 78 7 3 13 9 13 15 0 5 -4 6 -10 3 -5 -3 -10 -2 -10 4 0 5 6 12 13 14 6 3 3 6 -8 6 -11 0 -32 -7 -47 -15z m23 -23 c-9 -6 -10 -11 -2 -15 6 -4 11 -18 11 -32 0 -17 -5 -24 -20 -24 -16 0 -20 7 -20 33 0 38 6 47 29 47 13 0 13 -2 2 -9z"/> <path d="M1523 2604 c-35 -18 -43 -31 -18 -31 8 0 15 4 15 9 0 4 8 8 19 8 10 0 32 7 47 15 l29 15 -30 0 c-16 0 -45 -8 -62 -16z"/> <path d="M1260 2589 c0 -5 9 -9 20 -9 11 0 20 2 20 4 0 2 -9 6 -20 9 -11 3 -20 1 -20 -4z"/> <path d="M656 2582 c-2 -4 -1 -13 3 -20 4 -8 11 -5 19 8 10 16 10 20 -2 20 -8 0 -17 -4 -20 -8z"/> <path d="M1100 2580 c-9 -6 -10 -10 -3 -10 6 0 15 5 18 10 8 12 4 12 -15 0z"/> <path d="M710 2551 c-6 -12 -7 -21 -1 -21 10 0 24 30 17 37 -2 3 -9 -5 -16 -16z"/> <path d="M1734 2538 l-19 -21 28 18 c28 18 33 25 19 25 -5 0 -17 -10 -28 -22z"/> <path d="M1875 2549 c-10 -15 3 -25 16 -12 7 7 7 13 1 17 -6 3 -14 1 -17 -5z"/> <path d="M1107 2538 c4 -7 6 -26 4 -42 -2 -18 1 -26 8 -22 6 4 11 0 11 -8 0 -9 -4 -16 -10 -16 -5 0 -10 -5 -10 -11 0 -5 5 -7 11 -3 8 5 10 -1 7 -20 -3 -14 -2 -26 3 -26 4 0 14 -3 22 -6 13 -5 13 1 -1 41 -14 37 -14 47 -4 54 10 6 9 14 -5 39 -10 18 -24 32 -31 32 -8 0 -10 -5 -5 -12z"/> <path d="M1794 2534 c-14 -45 -24 -64 -54 -98 -18 -20 -46 -40 -64 -45 -26 -8 -20 -10 36 -8 59 1 66 3 53 16 -12 12 -17 12 -32 1 -10 -7 -2 3 17 22 34 33 70 111 57 124 -4 4 -9 -2 -13 -12z"/> <path d="M672 2500 c-8 -13 -9 -20 -1 -20 11 0 39 24 39 34 0 14 -26 4 -38 -14z"/> <path d="M1745 2500 c-10 -11 -15 -23 -12 -27 7 -6 36 25 37 40 0 11 -6 8 -25 -13z"/> <path d="M1670 2500 c0 -5 5 -10 10 -10 6 0 10 5 10 10 0 6 -4 10 -10 10 -5 0 -10 -4 -10 -10z"/> <path d="M775 2470 c3 -5 8 -10 11 -10 2 0 4 5 4 10 0 6 -5 10 -11 10 -5 0 -7 -4 -4 -10z"/> <path d="M830 2470 c0 -5 5 -10 11 -10 5 0 7 5 4 10 -3 6 -8 10 -11 10 -2 0 -4 -4 -4 -10z"/> <path d="M1156 2473 c-9 -9 76 -61 91 -56 18 7 -10 33 -36 33 -12 0 -21 6 -21 15 0 15 -21 20 -34 8z"/> <path d="M871 2453 c7 -10 15 -20 16 -22 2 -2 3 3 3 11 0 9 -7 19 -16 22 -15 6 -15 4 -3 -11z"/> <path d="M1610 2438 c0 -4 -9 -8 -20 -8 -11 0 -20 -5 -20 -11 0 -6 19 -9 48 -7 26 2 45 7 44 13 -2 6 -8 9 -13 8 -5 -2 -9 1 -9 5 0 5 -7 9 -15 9 -8 0 -15 -4 -15 -9z"/> <path d="M935 2420 c3 -5 8 -10 11 -10 2 0 4 5 4 10 0 6 -5 10 -11 10 -5 0 -7 -4 -4 -10z"/> <path d="M975 2420 c3 -5 8 -10 11 -10 2 0 4 5 4 10 0 6 -5 10 -11 10 -5 0 -7 -4 -4 -10z"/> <path d="M1279 2401 c7 -5 11 -13 7 -19 -3 -5 3 -12 14 -15 11 -3 20 -2 20 1 -1 15 -28 42 -41 42 -12 0 -12 -2 0 -9z"/> <path d="M952 2367 c-14 -40 -15 -47 -3 -47 5 0 12 8 15 18 2 9 7 27 11 40 10 35 -10 26 -23 -11z"/> <path d="M1900 2385 c7 -8 16 -12 21 -9 13 8 1 24 -18 24 -13 0 -13 -3 -3 -15z"/> <path d="M1554 2368 c-5 -7 0 -9 14 -6 14 4 22 1 25 -11 3 -11 5 -9 6 7 1 16 -5 22 -18 22 -11 0 -23 -5 -27 -12z"/> <path d="M1621 2364 c0 -11 3 -14 6 -6 3 7 2 16 -1 19 -3 4 -6 -2 -5 -13z"/> <path d="M1330 2361 c0 -5 9 -11 21 -14 16 -4 18 -3 8 9 -13 16 -29 19 -29 5z"/> <path d="M815 2350 c3 -5 11 -10 16 -10 6 0 7 5 4 10 -3 6 -11 10 -16 10 -6 0 -7 -4 -4 -10z"/> <path d="M1751 2339 c-25 -15 -36 -17 -41 -9 -10 17 -86 -19 -126 -59 -32 -32 -42 -59 -36 -98 6 -40 22 -25 20 18 -3 42 0 46 72 78 14 7 17 9 8 7 -10 -3 -18 -3 -18 1 0 7 32 32 42 33 4 0 5 -6 3 -13 -9 -21 32 -38 75 -31 22 4 40 11 40 15 0 5 18 6 39 3 36 -6 41 -4 55 22 l15 29 2 -30 c4 -67 2 -91 -7 -107 -10 -17 -81 -58 -101 -58 -7 0 -13 -4 -13 -10 0 -15 17 -12 62 11 43 22 54 18 61 -21 2 -14 3 -8 2 13 -2 20 1 34 6 31 5 -3 10 19 11 48 1 29 2 67 3 83 2 38 -24 58 -77 57 -41 -1 -62 -16 -53 -39 2 -8 -3 -13 -13 -13 -10 0 -23 -5 -28 -10 -14 -14 -71 -1 -71 16 0 19 26 18 33 -1 4 -8 10 -15 16 -15 5 0 7 4 3 9 -3 5 4 12 15 16 11 3 25 15 30 26 13 24 13 24 -29 -2z m109 -20 c0 -18 -20 -18 -29 0 -9 16 -8 18 9 14 11 -3 20 -9 20 -14z"/> <path d="M2010 2346 c0 -2 9 -6 20 -9 11 -3 18 -1 14 4 -5 9 -34 13 -34 5z"/> <path d="M2085 2330 c-3 -5 1 -10 9 -10 9 0 16 5 16 10 0 6 -4 10 -9 10 -6 0 -13 -4 -16 -10z"/> <path d="M850 2328 c1 -31 61 -178 72 -178 5 0 8 -8 8 -18 0 -10 25 -43 55 -72 30 -30 58 -63 61 -74 8 -25 71 -132 87 -148 8 -7 14 -16 15 -20 1 -5 5 -7 10 -5 4 1 6 6 4 10 -1 5 3 6 10 2 7 -4 3 2 -10 13 -14 14 -20 26 -15 38 4 10 2 15 -3 11 -6 -3 -25 20 -44 51 -18 31 -44 67 -57 79 -13 12 -23 24 -23 27 0 3 -11 17 -25 32 -24 26 -106 184 -120 232 -3 12 -11 22 -16 22 -5 0 -9 -1 -9 -2z"/> <path d="M1374 2315 c8 -8 17 -15 20 -15 3 0 3 7 0 15 -4 8 -13 15 -21 15 -12 0 -12 -2 1 -15z"/> <path d="M1003 2306 c5 -12 3 -23 -5 -28 -8 -5 -9 -8 -2 -8 6 0 17 6 23 14 9 10 7 17 -6 27 -15 12 -16 12 -10 -5z"/> <path d="M1430 2300 c0 -5 5 -10 10 -10 6 0 10 5 10 10 0 6 -4 10 -10 10 -5 0 -10 -4 -10 -10z"/> <path d="M1990 2299 c0 -5 5 -7 10 -4 6 3 10 8 10 11 0 2 -4 4 -10 4 -5 0 -10 -5 -10 -11z"/> <path d="M2076 2296 c-23 -11 -26 -15 -14 -22 24 -15 29 -41 9 -47 -20 -5 -21 -51 -2 -70 6 -6 11 -24 11 -40 0 -16 4 -26 10 -22 13 8 13 56 0 91 -6 15 -7 31 -2 38 9 10 26 87 20 85 -2 0 -16 -6 -32 -13z"/> <path d="M1948 2274 c-1 -16 -3 -63 -4 -104 -1 -41 -6 -97 -12 -124 -11 -55 -8 -79 15 -137 13 -30 10 -92 -5 -97 -6 -2 -9 -9 -6 -17 8 -19 -23 -31 -73 -30 -24 1 -43 -2 -43 -6 0 -4 -8 -5 -19 -2 -10 3 -22 0 -25 -6 -10 -16 -63 -13 -91 5 -14 9 -22 21 -19 26 4 6 1 9 -7 6 -22 -7 -23 -38 -2 -38 11 0 28 -9 40 -19 13 -12 31 -18 54 -16 19 2 34 4 34 5 0 1 13 4 30 6 51 6 115 28 135 46 26 25 36 84 21 133 -26 88 -28 100 -14 140 13 35 18 175 10 227 -5 31 -17 32 -19 2z"/> <path d="M638 2271 c-13 -11 -52 -35 -86 -55 -35 -21 -84 -63 -114 -98 -29 -33 -84 -91 -122 -127 -38 -36 -100 -103 -137 -148 l-69 -82 2 -128 c1 -105 3 -121 11 -91 6 22 19 40 34 47 12 6 23 16 23 22 0 8 -4 8 -15 -1 -25 -21 -39 -6 -41 46 -1 27 1 54 5 59 3 6 6 21 6 35 1 16 9 29 25 37 14 7 21 13 17 13 -4 0 -2 10 4 22 11 21 13 22 19 4 6 -18 7 -18 13 -3 4 10 2 17 -5 17 -7 0 -6 5 2 15 7 8 19 15 26 15 8 0 11 6 7 17 -4 11 -3 14 5 9 7 -4 12 -3 12 1 0 14 91 113 104 114 6 0 42 36 80 80 43 49 76 79 89 79 11 0 29 10 41 23 12 12 41 39 65 60 44 38 43 52 -1 18z"/> <path d="M1460 2275 c-14 -8 -19 -14 -12 -15 7 0 11 -3 9 -7 -3 -5 1 -21 8 -38 l12 -30 8 37 c4 20 5 43 3 51 -3 14 -6 14 -28 2z"/> <path d="M740 2257 c0 -13 7 -32 15 -43 13 -18 14 -16 15 24 0 31 -4 42 -15 42 -9 0 -15 -9 -15 -23z"/> <path d="M696 2213 c-3 -10 -17 -33 -31 -52 -29 -40 -37 -135 -10 -125 11 5 13 0 7 -23 -8 -26 -8 -42 -2 -60 1 -5 3 -14 4 -22 0 -8 7 -16 14 -18 15 -6 17 63 1 73 -11 6 -9 29 6 69 5 14 4 16 -3 7 -7 -11 -11 -8 -16 13 -5 20 0 35 22 63 16 20 28 47 28 59 -3 30 -12 38 -20 16z"/> <path d="M1805 2219 c-11 -17 0 -20 21 -4 17 13 17 14 2 15 -9 0 -20 -5 -23 -11z"/> <path d="M2236 2198 c-3 -18 -9 -46 -12 -63 -5 -25 -4 -28 7 -17 8 7 15 23 16 35 0 12 4 34 7 50 4 15 2 27 -2 27 -5 0 -12 -15 -16 -32z"/> <path d="M1600 2212 c0 -5 43 -9 95 -9 58 -1 93 2 90 8 -7 11 -185 12 -185 1z"/> <path d="M1190 2206 c0 -2 8 -10 18 -17 15 -13 16 -12 3 4 -13 16 -21 21 -21 13z"/> <path d="M2180 2198 c0 -7 5 -20 10 -28 8 -12 10 -9 10 13 0 15 -4 27 -10 27 -5 0 -10 -6 -10 -12z"/> <path d="M807 2182 c3 -12 9 -25 14 -28 14 -8 11 10 -6 32 -13 18 -14 18 -8 -4z"/> <path d="M1490 2179 c0 -5 5 -7 10 -4 6 3 10 8 10 11 0 2 -4 4 -10 4 -5 0 -10 -5 -10 -11z"/> <path d="M2133 2139 c3 -27 7 -52 10 -55 10 -11 19 39 12 72 -10 54 -27 41 -22 -17z"/> <path d="M770 2156 c0 -9 5 -16 10 -16 6 0 10 4 10 9 0 6 -4 13 -10 16 -5 3 -10 -1 -10 -9z"/> <path d="M1196 2162 c-3 -5 1 -9 9 -9 8 0 15 4 15 9 0 4 -4 8 -9 8 -6 0 -12 -4 -15 -8z"/> <path d="M1670 2136 c-6 -9 -10 -21 -7 -28 4 -9 6 -7 6 4 1 9 7 18 14 21 6 2 9 7 6 11 -3 4 -12 0 -19 -8z"/> <path d="M1710 2140 c-13 -9 -7 -14 13 -11 4 0 7 -3 7 -9 0 -14 27 -13 36 1 7 11 -12 29 -31 29 -5 0 -17 -5 -25 -10z"/> <path d="M2041 2109 c13 -60 29 -99 41 -99 6 0 8 -9 5 -20 -3 -11 -1 -20 4 -20 14 0 11 29 -12 94 -28 80 -52 108 -38 45z"/> <path d="M528 2133 c7 -3 16 -2 19 1 4 3 -2 6 -13 5 -11 0 -14 -3 -6 -6z"/> <path d="M711 2122 c-13 -25 -14 -32 -2 -32 9 0 23 41 16 48 -2 2 -8 -5 -14 -16z"/> <path d="M1210 2120 c0 -5 5 -10 11 -10 5 0 7 5 4 10 -3 6 -8 10 -11 10 -2 0 -4 -4 -4 -10z"/> <path d="M2275 2110 c10 -11 20 -18 23 -15 7 6 -18 35 -31 35 -5 0 -2 -9 8 -20z"/> <path d="M515 2090 c-17 -19 -17 -19 9 -7 14 7 26 15 26 20 0 13 -17 7 -35 -13z"/> <path d="M752 2088 c5 -15 28 -23 28 -10 0 5 -7 13 -16 16 -10 4 -14 1 -12 -6z"/> <path d="M2220 2081 c0 -25 6 -27 13 -6 4 8 2 17 -3 20 -6 4 -10 -3 -10 -14z"/> <path d="M434 2049 c-25 -27 -31 -37 -17 -30 33 17 38 13 12 -10 -23 -19 -23 -20 -2 -10 28 14 36 28 22 37 -8 5 -4 13 12 25 13 10 21 20 18 23 -3 3 -23 -13 -45 -35z"/> <path d="M810 2080 c0 -5 5 -10 10 -10 6 0 10 5 10 10 0 6 -4 10 -10 10 -5 0 -10 -4 -10 -10z"/> <path d="M550 2070 c-8 -5 -12 -12 -9 -15 4 -3 12 1 19 10 14 17 11 19 -10 5z"/> <path d="M1251 2064 c0 -11 3 -14 6 -6 3 7 2 16 -1 19 -3 4 -6 -2 -5 -13z"/> <path d="M2258 2073 c7 -3 16 -2 19 1 4 3 -2 6 -13 5 -11 0 -14 -3 -6 -6z"/> <path d="M735 2060 c-3 -5 3 -10 15 -10 12 0 18 5 15 10 -3 6 -10 10 -15 10 -5 0 -12 -4 -15 -10z"/> <path d="M857 2063 c-3 -5 -2 -15 4 -23 12 -19 12 -33 0 -25 -11 6 -36 -33 -28 -42 3 -3 13 4 23 16 10 11 21 18 25 15 5 -3 3 10 -3 28 -13 40 -15 42 -21 31z"/> <path d="M563 2037 c-18 -23 -20 -32 -11 -67 10 -37 28 -56 28 -28 0 6 7 3 15 -8 11 -14 13 -34 9 -76 -5 -40 -3 -58 5 -58 6 0 11 9 11 19 0 27 11 52 19 46 18 -10 3 36 -17 53 -12 11 -22 26 -22 35 0 8 -8 14 -17 13 -24 -1 -29 37 -8 58 9 9 15 21 13 28 -2 6 -13 -1 -25 -15z"/> <path d="M482 2030 c0 -14 2 -19 5 -12 2 6 2 18 0 25 -3 6 -5 1 -5 -13z"/> <path d="M2280 2035 c-6 -7 -17 -12 -25 -9 -7 3 -16 1 -20 -5 -3 -6 2 -11 13 -11 30 0 32 -10 12 -64 -11 -28 -20 -60 -20 -71 1 -20 1 -20 15 -1 8 11 15 32 15 47 0 14 7 32 15 39 9 7 14 15 11 17 -2 3 0 18 4 34 10 32 -2 46 -20 24z"/> <path d="M796 2031 c-3 -5 1 -11 9 -14 9 -4 12 -1 8 9 -6 16 -10 17 -17 5z"/> <path d="M920 2030 c0 -5 5 -10 11 -10 5 0 7 5 4 10 -3 6 -8 10 -11 10 -2 0 -4 -4 -4 -10z"/> <path d="M1884 2016 c-9 -20 -9 -23 2 -19 8 3 14 14 14 24 0 25 -3 24 -16 -5z"/> <path d="M2178 2018 c-4 -66 -3 -81 9 -97 10 -13 12 -6 13 46 0 34 -4 65 -10 68 -5 3 -11 -4 -12 -17z"/> <path d="M512 2010 c0 -14 2 -19 5 -12 2 6 2 18 0 25 -3 6 -5 1 -5 -13z"/> <path d="M606 2014 c-5 -12 -2 -15 10 -10 8 3 18 6 20 6 3 0 2 5 -1 10 -9 15 -22 12 -29 -6z"/> <path d="M1258 2013 c7 -3 16 -2 19 1 4 3 -2 6 -13 5 -11 0 -14 -3 -6 -6z"/> <path d="M441 1980 c-13 -12 -21 -26 -17 -35 3 -9 -3 -20 -14 -27 -11 -7 -20 -23 -20 -36 0 -13 -5 -32 -11 -43 -7 -15 -7 -24 0 -33 6 -8 9 -22 6 -32 -3 -11 1 -5 9 11 11 23 11 33 3 44 -9 11 -9 15 1 18 6 3 12 18 12 34 0 17 6 32 15 36 17 6 61 83 48 83 -5 -1 -19 -10 -32 -20z"/> <path d="M956 1987 c3 -10 9 -15 12 -12 3 3 0 11 -7 18 -10 9 -11 8 -5 -6z"/> <path d="M605 1980 c3 -5 8 -10 11 -10 2 0 4 5 4 10 0 6 -5 10 -11 10 -5 0 -7 -4 -4 -10z"/> <path d="M718 1957 c-2 -21 1 -34 8 -34 7 0 12 14 11 34 -1 18 -4 33 -8 33 -4 0 -9 -15 -11 -33z"/> <path d="M361 1936 c-15 -26 -21 -50 -17 -61 9 -23 16 -15 21 23 2 17 11 43 21 57 9 14 12 25 7 25 -4 0 -19 -20 -32 -44z"/> <path d="M1298 1973 c6 -2 18 -2 25 0 6 3 1 5 -13 5 -14 0 -19 -2 -12 -5z"/> <path d="M2027 1973 c-4 -3 -1 -16 7 -28 8 -12 16 -32 18 -46 1 -13 6 -19 9 -14 7 13 -10 95 -20 95 -4 0 -11 -3 -14 -7z"/> <path d="M2231 1964 c0 -11 3 -14 6 -6 3 7 2 16 -1 19 -3 4 -6 -2 -5 -13z"/> <path d="M1340 1960 c0 -6 7 -10 15 -10 8 0 15 2 15 4 0 2 -7 6 -15 10 -8 3 -15 1 -15 -4z"/> <path d="M510 1949 c0 -5 -4 -7 -10 -4 -5 3 -7 0 -4 -9 3 -8 12 -12 19 -10 8 3 11 12 8 20 -6 17 -13 18 -13 3z"/> <path d="M826 1944 c-3 -12 -2 -33 4 -48 5 -15 10 -47 10 -71 0 -24 5 -56 10 -70 13 -33 41 -296 33 -308 -3 -5 1 -13 8 -18 11 -7 14 -60 14 -281 0 -245 -2 -276 -18 -299 -9 -14 -15 -34 -11 -43 3 -9 1 -23 -6 -31 -6 -8 -8 -20 -4 -26 4 -7 3 -9 -3 -6 -6 4 -13 -2 -16 -13 -3 -11 -13 -20 -22 -20 -11 0 -15 5 -12 14 5 11 0 11 -24 -2 -25 -14 -31 -15 -38 -3 -5 7 -13 11 -19 7 -6 -3 -13 0 -15 6 -4 10 -8 9 -16 -2 -13 -19 -47 0 -43 24 2 9 -4 16 -12 16 -19 0 -33 -23 -18 -28 7 -2 12 -11 12 -19 0 -12 -7 -14 -32 -8 -18 4 -43 8 -56 9 -13 1 -20 6 -17 14 8 20 -12 14 -27 -10 -15 -23 -44 -17 -34 8 6 16 -24 7 -40 -12 -17 -21 -106 -12 -114 11 -10 28 -36 27 -38 -3 -2 -29 -13 -43 -19 -25 -2 7 -11 9 -19 6 -12 -4 -14 1 -12 23 2 16 8 32 13 36 6 5 3 14 -7 25 -17 16 -18 15 -18 -37 0 -52 -12 -91 -25 -79 -3 3 -6 36 -8 72 -1 36 -6 69 -10 73 -8 8 -9 -2 -12 -87 -3 -64 -12 -99 -27 -99 -6 0 -9 61 -6 179 1 99 6 177 10 175 4 -3 10 12 13 33 4 21 9 46 12 57 3 11 1 16 -5 12 -6 -4 -8 2 -5 15 4 16 8 17 14 7 7 -10 9 -9 9 5 0 10 6 30 14 45 25 49 29 89 10 96 -13 5 -15 2 -10 -20 5 -17 3 -30 -5 -34 -13 -8 -53 -120 -45 -127 2 -3 -3 -19 -13 -37 -16 -28 -19 -72 -23 -436 -3 -223 -2 -324 1 -225 4 99 11 189 15 200 15 33 59 76 95 91 28 12 186 14 970 15 515 1 926 4 913 6 -20 4 -23 10 -20 40 4 52 21 51 37 -2 l13 -45 338 0 c217 0 349 -4 371 -11 19 -6 48 -26 64 -44 l30 -33 0 393 c0 217 -2 391 -5 389 -13 -13 -28 -89 -23 -118 3 -18 0 -49 -5 -69 -6 -20 -7 -37 -3 -37 5 0 9 -106 9 -236 l1 -236 -22 7 c-37 12 -119 23 -169 24 -29 1 -48 6 -48 12 0 8 -4 8 -15 -1 -8 -7 -51 -13 -100 -15 -69 -2 -87 0 -94 13 -11 19 -42 25 -35 7 9 -21 -16 -28 -36 -10 -17 15 -19 15 -29 -2 -8 -15 -13 -16 -30 -6 -11 7 -22 9 -25 5 -6 -10 -129 -7 -148 4 -22 13 -51 71 -37 76 8 3 5 10 -6 21 -23 24 -15 31 14 11 14 -10 20 -22 16 -34 -4 -13 3 -22 26 -34 36 -18 104 -21 114 -6 4 6 -6 10 -24 10 -39 0 -99 30 -107 53 -3 10 -16 29 -30 42 -17 17 -24 35 -24 63 0 35 3 41 27 47 15 3 22 9 17 13 -6 4 -14 16 -17 26 -17 44 -47 -51 -42 -132 3 -42 -2 -71 -18 -110 -18 -46 -24 -53 -47 -50 -14 1 -30 -1 -37 -5 -6 -4 -18 -1 -25 6 -11 12 -14 12 -24 -1 -9 -13 -15 -14 -26 -4 -11 8 -17 9 -26 0 -8 -8 -15 -8 -27 2 -11 9 -18 10 -29 1 -22 -18 -48 -2 -42 25 4 13 2 24 -3 24 -4 0 -11 -13 -14 -30 -7 -34 -22 -38 -49 -13 -17 15 -18 15 -18 0 0 -20 -4 -21 -31 -7 -13 7 -19 7 -19 0 0 -17 -38 -11 -43 8 -3 9 -5 52 -5 95 -1 43 -4 81 -6 86 -3 5 -6 72 -7 150 0 85 -5 143 -11 147 -11 7 -3 -417 9 -464 3 -12 1 -23 -3 -23 -36 -6 -136 -4 -140 3 -3 4 -11 5 -18 2 -23 -9 -97 -10 -103 -1 -2 4 -10 4 -16 -1 -15 -11 -98 -10 -116 2 -7 5 -16 5 -20 0 -10 -15 -121 -11 -130 5 -7 11 -11 10 -19 -4 -11 -20 -32 -12 -33 13 0 14 -2 14 -8 -2 -10 -26 -91 -33 -91 -9 0 20 19 92 32 119 6 12 11 130 12 270 0 137 5 255 9 262 5 7 4 12 -2 12 -6 0 -11 10 -11 22 0 13 -9 72 -20 133 -10 60 -29 169 -40 240 -12 72 -25 141 -29 155 -8 24 -8 24 -15 4z"/> <path d="M2305 1950 c3 -5 8 -10 11 -10 2 0 4 5 4 10 0 6 -5 10 -11 10 -5 0 -7 -4 -4 -10z"/> <path d="M316 1934 c-4 -9 -4 -19 -1 -22 2 -3 7 3 11 12 4 9 4 19 1 22 -2 3 -7 -3 -11 -12z"/> <path d="M877 1943 c-4 -6 -2 -24 5 -40 6 -15 10 -32 9 -38 -2 -6 2 -6 8 1 8 7 7 21 -2 49 -8 21 -17 34 -20 28z"/> <path d="M1363 1933 c25 -3 35 -8 30 -16 -5 -9 -3 -9 8 -1 8 6 21 14 29 17 8 3 -12 5 -45 5 -40 -1 -47 -3 -22 -5z"/> <path d="M456 1911 c-9 -10 -14 -25 -10 -34 8 -22 20 -14 32 23 12 34 3 39 -22 11z"/> <path d="M1440 1920 c-13 -8 -12 -10 3 -10 9 0 17 5 17 10 0 12 -1 12 -20 0z"/> <path d="M1880 1920 c0 -5 5 -10 11 -10 5 0 7 5 4 10 -3 6 -8 10 -11 10 -2 0 -4 -4 -4 -10z"/> <path d="M771 1898 c-1 -16 4 -28 9 -28 12 0 12 8 0 35 -8 18 -9 17 -9 -7z"/> <path d="M492 1869 c-8 -26 -9 -46 -3 -57 11 -19 15 -12 24 43 9 49 -7 59 -21 14z"/> <path d="M551 1903 c-1 -6 -4 -19 -8 -29 -4 -11 -3 -15 4 -11 6 4 14 1 16 -5 4 -9 5 -8 6 2 0 18 -17 60 -18 43z"/> <path d="M990 1887 c0 -7 11 -23 25 -35 29 -25 43 -29 25 -7 -7 8 -10 15 -6 15 3 0 -2 9 -11 20 -20 23 -33 26 -33 7z"/> <path d="M2149 1895 c-1 -5 -3 -39 -4 -75 -1 -36 -5 -92 -9 -125 -4 -36 -2 -66 4 -75 7 -11 10 -5 10 25 0 22 5 76 11 121 8 57 9 90 1 110 -6 16 -11 25 -13 19z"/> <path d="M274 1868 c-4 -13 -9 -25 -13 -28 -16 -13 -51 -70 -42 -70 5 0 17 12 27 28 10 15 24 33 31 40 7 7 13 22 13 33 0 26 -7 24 -16 -3z"/> <path d="M690 1881 c0 -12 39 -58 40 -46 0 26 -14 55 -26 55 -8 0 -14 -4 -14 -9z"/> <path d="M2010 1880 c0 -34 13 -90 22 -90 10 0 0 66 -13 90 -7 13 -8 13 -9 0z"/> <path d="M1901 1854 c0 -11 3 -14 6 -6 3 7 2 16 -1 19 -3 4 -6 -2 -5 -13z"/> <path d="M2081 1803 c0 -36 -5 -89 -10 -117 -6 -28 -12 -85 -15 -126 -2 -41 -7 -82 -10 -90 -2 -8 -7 -60 -11 -115 -7 -124 -9 -143 -18 -151 -11 -11 -8 -92 3 -99 6 -4 10 9 10 33 0 62 11 104 24 93 8 -7 11 15 12 77 1 48 3 98 6 112 3 14 6 86 7 160 2 86 6 128 11 115 9 -21 10 -19 16 35 5 48 -6 140 -16 140 -4 0 -8 -30 -9 -67z"/> <path d="M766 1845 c-3 -9 0 -15 9 -15 16 0 20 16 6 24 -5 3 -11 -1 -15 -9z"/> <path d="M335 1840 c-3 -5 -1 -10 4 -10 6 0 11 5 11 10 0 6 -2 10 -4 10 -3 0 -8 -4 -11 -10z"/> <path d="M434 1825 c1 -33 16 -33 16 0 0 14 -4 25 -9 25 -5 0 -8 -11 -7 -25z"/> <path d="M550 1825 c0 -8 -4 -15 -9 -15 -5 0 -12 -7 -15 -16 -3 -8 -2 -13 3 -9 5 3 11 -1 14 -7 6 -18 13 -8 20 30 4 18 2 32 -3 32 -6 0 -10 -7 -10 -15z"/> <path d="M2210 1821 c-7 -14 -7 -22 1 -27 12 -7 29 12 29 34 0 19 -18 14 -30 -7z"/> <path d="M645 1820 c-3 -5 -1 -10 4 -10 6 0 11 5 11 10 0 6 -2 10 -4 10 -3 0 -8 -4 -11 -10z"/> <path d="M1611 1808 c0 -13 3 -17 6 -10 2 6 10 9 16 5 7 -4 6 1 -2 10 -18 22 -21 21 -20 -5z"/> <path d="M2320 1819 c0 -5 5 -7 10 -4 6 3 10 8 10 11 0 2 -4 4 -10 4 -5 0 -10 -5 -10 -11z"/> <path d="M285 1800 c-17 -19 -14 -57 4 -46 7 5 22 66 16 66 -1 0 -10 -9 -20 -20z"/> <path d="M736 1805 c-3 -8 -1 -15 4 -15 6 0 10 7 10 15 0 8 -2 15 -4 15 -2 0 -6 -7 -10 -15z"/> <path d="M901 1804 c0 -11 3 -14 6 -6 3 7 2 16 -1 19 -3 4 -6 -2 -5 -13z"/> <path d="M961 1804 c0 -11 3 -14 6 -6 3 7 2 16 -1 19 -3 4 -6 -2 -5 -13z"/> <path d="M1170 1806 c0 -3 10 -21 22 -41 18 -31 23 -34 30 -21 7 12 3 23 -14 41 -21 23 -38 32 -38 21z"/> <path d="M2280 1786 c0 -14 5 -28 10 -31 6 -3 10 5 10 19 0 14 -4 28 -10 31 -6 3 -10 -5 -10 -19z"/> <path d="M326 1775 c-4 -14 -11 -25 -16 -25 -6 0 -8 -11 -4 -26 5 -19 3 -25 -4 -20 -16 10 -26 -38 -13 -61 9 -16 10 -16 11 5 0 13 5 32 11 43 6 11 12 28 14 37 2 9 6 29 10 45 4 15 5 27 2 27 -3 0 -8 -11 -11 -25z"/> <path d="M2330 1792 c0 -5 7 -15 15 -22 8 -7 15 -9 15 -6 0 4 -7 14 -15 22 -8 9 -15 11 -15 6z"/> <path d="M477 1758 c8 -44 13 -48 13 -10 0 17 -4 34 -10 37 -6 4 -7 -6 -3 -27z"/> <path d="M680 1779 c0 -5 -4 -7 -10 -4 -5 3 -10 1 -10 -4 0 -6 4 -11 9 -11 5 0 12 -8 14 -17 3 -10 5 -3 6 15 0 17 -1 32 -4 32 -3 0 -5 -5 -5 -11z"/> <path d="M1043 1781 c10 -4 18 -11 17 -16 -1 -5 3 -11 9 -13 5 -2 9 6 8 17 -1 16 -8 21 -27 20 -20 0 -22 -2 -7 -8z"/> <path d="M423 1736 c1 -35 4 -43 14 -34 17 14 16 53 -1 67 -13 11 -15 5 -13 -33z"/> <path d="M738 1767 c6 -7 10 -34 9 -59 -1 -35 3 -52 17 -65 18 -17 18 -17 10 7 -4 14 -8 43 -8 65 0 22 -5 46 -12 53 -16 16 -30 16 -16 -1z"/> <path d="M785 1758 c4 -13 11 -27 16 -32 5 -6 9 -19 10 -30 0 -13 3 -16 6 -7 7 17 -17 91 -29 91 -5 0 -6 -10 -3 -22z"/> <path d="M987 1760 c11 -42 58 -75 88 -64 8 4 15 12 15 20 0 17 -12 18 -27 3 -8 -8 -21 -1 -46 26 -30 32 -35 34 -30 15z"/> <path d="M2420 1755 c7 -8 19 -15 27 -15 13 0 13 3 3 15 -7 8 -19 15 -27 15 -13 0 -13 -3 -3 -15z"/> <path d="M636 1745 c-4 -11 -12 -31 -17 -44 -15 -36 -3 -37 16 -1 9 17 14 39 12 48 -3 15 -5 14 -11 -3z"/> <path d="M1996 1752 c-4 -7 -2 -12 4 -12 6 0 8 -10 4 -25 -4 -16 -2 -25 6 -25 6 0 8 -5 4 -12 -4 -7 -3 -8 4 -4 15 9 14 23 -2 61 -8 19 -15 25 -20 17z"/> <path d="M252 1725 c-1 -16 -9 -42 -16 -57 -9 -16 -11 -30 -5 -33 14 -9 30 44 26 84 -3 33 -4 33 -5 6z"/> <path d="M363 1724 c0 -15 -7 -30 -14 -35 -15 -9 -21 -38 -11 -55 5 -9 11 -5 19 12 6 14 7 24 1 24 -5 0 -2 10 6 22 17 23 21 58 9 58 -5 0 -9 -12 -10 -26z"/> <path d="M565 1738 c-2 -7 -3 -22 -1 -33 3 -11 5 -24 5 -29 2 -21 20 10 23 38 3 30 -18 49 -27 24z"/> <path d="M1500 1729 c-39 -24 -34 -35 6 -14 16 8 37 15 47 15 21 0 22 -23 2 -40 -9 -7 -13 -15 -10 -18 3 -3 0 -12 -7 -21 -6 -9 1 -4 16 12 24 24 45 33 70 28 13 -3 59 9 55 14 -3 2 -36 13 -76 23 -70 20 -71 20 -103 1z"/> <path d="M2388 1731 c-21 -21 -24 -39 -5 -22 8 6 17 8 20 4 4 -3 7 3 7 15 0 26 0 26 -22 3z"/> <path d="M2251 1724 c0 -11 3 -14 6 -6 3 7 2 16 -1 19 -3 4 -6 -2 -5 -13z"/> <path d="M2307 1722 c3 -12 9 -25 14 -28 14 -8 11 10 -6 32 -13 18 -14 18 -8 -4z"/> <path d="M202 1684 c-25 -50 -24 -69 0 -32 14 22 32 78 25 78 -2 0 -13 -21 -25 -46z"/> <path d="M2193 1695 c-9 -27 -8 -35 2 -35 14 0 27 51 16 63 -4 4 -12 -8 -18 -28z"/> <path d="M147 1703 c-4 -3 -7 -11 -7 -17 0 -6 5 -5 12 2 6 6 9 14 7 17 -3 3 -9 2 -12 -2z"/> <path d="M397 1684 c-3 -16 -9 -38 -13 -48 -5 -14 -4 -17 4 -12 7 4 12 2 12 -5 0 -20 10 -4 15 24 3 14 1 35 -3 48 -9 22 -9 22 -15 -7z"/> <path d="M459 1678 c-4 -30 -2 -38 11 -38 9 0 16 8 16 20 0 11 -3 20 -7 20 -4 0 -9 8 -11 18 -3 9 -6 0 -9 -20z"/> <path d="M524 1698 c-10 -16 -13 -68 -4 -68 4 0 10 18 12 40 4 43 3 46 -8 28z"/> <path d="M960 1708 c0 -3 7 -19 15 -34 8 -16 15 -22 15 -14 -1 8 -7 24 -15 34 -8 11 -15 17 -15 14z"/> <path d="M1886 1702 c-11 -18 20 -112 38 -112 4 0 6 -7 2 -15 -3 -8 -2 -15 3 -15 8 0 32 -44 37 -66 1 -6 9 -24 17 -40 26 -48 20 -2 -9 62 -14 33 -29 68 -34 79 -4 11 -14 34 -21 50 -7 17 -16 39 -19 50 -4 14 -8 16 -14 7z"/> <path d="M2417 1703 c-4 -3 -7 -11 -7 -17 0 -6 5 -5 12 2 6 6 9 14 7 17 -3 3 -9 2 -12 -2z"/> <path d="M162 1680 c-7 -11 -12 -25 -12 -32 1 -7 8 0 16 15 18 33 14 46 -4 17z"/> <path d="M1246 1686 c3 -9 11 -16 16 -16 13 0 5 23 -10 28 -7 2 -10 -2 -6 -12z"/> <path d="M1957 1682 c3 -12 9 -25 14 -28 14 -8 11 10 -6 32 -13 18 -14 18 -8 -4z"/> <path d="M1145 1674 c-16 -8 -34 -22 -38 -30 -12 -22 -36 -17 -49 11 -13 28 -28 33 -28 9 0 -8 22 -39 49 -67 26 -29 56 -71 66 -94 11 -24 22 -43 26 -43 4 0 -6 30 -21 68 -20 46 -34 66 -45 64 -13 -2 -13 1 -3 23 12 26 43 34 51 13 3 -7 6 -3 6 9 1 30 21 40 38 18 12 -18 13 -17 13 8 0 32 -19 35 -65 11z"/> <path d="M1777 1683 c10 -3 9 -8 -1 -19 -11 -11 -13 -31 -9 -87 8 -106 21 -114 15 -10 -3 61 -1 93 7 97 7 5 11 -4 11 -26 0 -41 20 -88 38 -88 6 0 12 5 12 10 0 6 -4 10 -10 10 -5 0 -12 17 -16 38 -7 44 -30 82 -47 81 -9 0 -9 -2 0 -6z"/> <path d="M2260 1681 c0 -6 5 -11 10 -11 6 0 10 -7 10 -15 0 -8 5 -15 10 -15 7 0 7 6 0 19 -12 24 -30 36 -30 22z"/> <path d="M2367 1676 c-3 -8 -2 -18 4 -22 16 -9 22 2 11 21 -8 15 -10 16 -15 1z"/> <path d="M680 1674 c0 -3 11 -22 25 -42 14 -21 25 -30 25 -21 0 9 -7 22 -15 29 -8 7 -15 19 -15 26 0 8 -4 14 -10 14 -5 0 -10 -2 -10 -6z"/> <path d="M1075 1670 c3 -5 8 -10 11 -10 2 0 4 5 4 10 0 6 -5 10 -11 10 -5 0 -7 -4 -4 -10z"/> <path d="M1705 1661 c-3 -11 -3 -32 1 -48 3 -15 10 -50 14 -78 7 -41 8 -32 7 47 -2 94 -9 120 -22 79z"/> <path d="M2337 1658 c-2 -7 -1 -22 4 -33 6 -16 8 -14 8 13 1 33 -4 41 -12 20z"/> <path d="M1269 1636 c30 -32 33 -32 22 -3 -5 12 -17 24 -27 26 -17 3 -16 0 5 -23z"/> <path d="M2405 1623 c-16 -20 -39 -44 -49 -54 -11 -11 -16 -22 -12 -26 4 -4 10 -3 14 2 4 6 12 11 17 12 6 1 21 6 35 12 18 7 20 10 7 10 -15 1 -16 4 -5 24 7 12 19 26 26 30 13 9 17 27 5 27 -5 -1 -21 -17 -38 -37z"/> <path d="M1551 1602 c-14 -57 -10 -78 9 -42 6 11 10 38 8 58 l-3 37 -14 -53z"/> <path d="M1970 1625 c0 -9 6 -18 13 -21 8 -3 14 -19 15 -36 1 -50 12 -45 12 6 0 29 -4 45 -10 41 -5 -3 -10 1 -10 9 0 9 -4 16 -10 16 -5 0 -10 -7 -10 -15z"/> <path d="M655 1622 c-5 -4 -15 -17 -22 -28 -11 -20 -10 -21 13 -10 13 6 24 19 24 29 0 19 -1 20 -15 9z"/> <path d="M2220 1617 c0 -7 8 -17 18 -24 17 -10 18 -8 14 13 -4 24 -32 34 -32 11z"/> <path d="M207 1613 c-13 -13 -7 -21 13 -16 11 3 17 9 14 14 -6 11 -18 12 -27 2z"/> <path d="M500 1596 c0 -14 4 -27 9 -31 12 -7 25 31 16 45 -11 18 -25 10 -25 -14z"/> <path d="M2295 1597 c-4 -14 -15 -29 -25 -32 -10 -3 -20 -15 -23 -26 -3 -11 -15 -23 -26 -26 -20 -5 -38 -39 -27 -50 3 -4 6 1 6 10 0 8 8 18 18 21 19 7 102 83 102 94 0 4 -4 14 -9 21 -8 12 -11 9 -16 -12z"/> <path d="M2476 1605 c4 -8 8 -15 10 -15 2 0 4 7 4 15 0 8 -4 15 -10 15 -5 0 -7 -7 -4 -15z"/> <path d="M233 1582 c-23 -28 -29 -53 -15 -66 4 -4 12 9 18 31 6 21 16 39 22 39 7 1 17 2 22 3 18 2 11 21 -7 21 -10 0 -28 -13 -40 -28z"/> <path d="M309 1594 c-12 -14 -11 -16 5 -13 11 2 21 10 24 17 5 17 -13 15 -29 -4z"/> <path d="M562 1598 c-16 -16 -15 -35 3 -42 11 -4 15 2 15 24 0 34 -1 35 -18 18z"/> <path d="M1660 1572 c0 -23 5 -42 10 -42 6 0 10 -8 10 -17 0 -15 -2 -16 -10 -3 -8 13 -10 12 -10 -2 0 -10 7 -18 16 -18 13 0 14 9 10 52 -8 67 -26 88 -26 30z"/> <path d="M459 1594 c-1 -5 -1 -12 0 -16 0 -5 -5 -8 -13 -8 -7 0 -16 -8 -18 -18 -4 -12 1 -18 13 -18 11 0 19 10 23 30 3 16 4 31 1 34 -3 3 -6 1 -6 -4z"/> <path d="M795 1580 c4 -11 2 -20 -4 -20 -6 0 -11 8 -11 18 0 14 -2 15 -10 2 -6 -10 -2 -20 13 -35 25 -23 39 -12 27 21 -5 12 -6 25 -3 28 4 3 1 6 -6 6 -8 0 -10 -7 -6 -20z"/> <path d="M1233 1566 c28 -43 77 -59 77 -25 0 6 -5 7 -10 4 -17 -11 -50 5 -50 25 0 15 -18 30 -35 30 -2 0 6 -15 18 -34z"/> <path d="M2177 1594 c-11 -11 -8 -64 3 -64 14 0 24 50 13 61 -5 5 -12 6 -16 3z"/> <path d="M350 1580 c-8 -5 -12 -12 -9 -15 8 -8 39 5 39 16 0 11 -11 11 -30 -1z"/> <path d="M1481 1564 c0 -11 3 -14 6 -6 3 7 2 16 -1 19 -3 4 -6 -2 -5 -13z"/> <path d="M176 1555 c-3 -8 -1 -15 4 -15 6 0 10 7 10 15 0 8 -2 15 -4 15 -2 0 -6 -7 -10 -15z"/> <path d="M708 1531 c15 -21 29 -37 31 -35 8 7 -20 50 -40 62 -15 9 -13 4 9 -27z"/> <path d="M2443 1556 c4 -10 7 -23 7 -29 0 -7 13 -21 28 -31 27 -19 27 -19 10 0 -9 10 -18 30 -20 43 -1 14 -9 27 -17 29 -10 3 -12 0 -8 -12z"/> <path d="M143 1540 c-1 -11 2 -22 6 -24 4 -3 7 4 8 14 1 11 -2 22 -6 24 -4 3 -7 -4 -8 -14z"/> <path d="M277 1553 c-11 -17 -4 -63 9 -63 15 0 28 31 16 39 -5 3 -11 13 -14 21 -3 9 -7 10 -11 3z"/> <path d="M623 1553 c9 -2 23 -2 30 0 6 3 -1 5 -18 5 -16 0 -22 -2 -12 -5z"/> <path d="M1330 1556 c0 -2 7 -7 16 -10 8 -3 12 -2 9 4 -6 10 -25 14 -25 6z"/> <path d="M332 1517 c1 -12 -5 -42 -14 -67 -24 -68 -39 -117 -43 -140 -8 -40 39 7 52 53 13 46 23 90 16 69 -7 -20 -22 -4 -16 19 3 12 11 18 19 15 10 -4 14 4 14 28 0 21 -6 36 -15 40 -10 4 -14 -1 -13 -17z m-31 -180 c-10 -9 -11 -8 -5 6 3 10 9 15 12 12 3 -3 0 -11 -7 -18z"/> <path d="M561 1524 c0 -11 3 -14 6 -6 3 7 2 16 -1 19 -3 4 -6 -2 -5 -13z"/> <path d="M597 1506 c-13 -30 -15 -42 -6 -50 9 -8 10 -7 4 2 -4 8 0 21 10 32 9 10 15 27 13 37 -3 13 -9 8 -21 -21z"/> <path d="M1370 1524 c0 -9 11 -29 24 -45 13 -15 26 -34 29 -41 2 -7 8 -10 12 -6 4 4 -1 15 -10 25 -10 9 -24 32 -32 50 -15 36 -23 42 -23 17z"/> <path d="M2390 1532 c0 -5 7 -16 16 -23 14 -12 16 -11 13 5 -4 20 -29 35 -29 18z"/> <path d="M2297 1523 c-12 -11 -8 -33 6 -33 7 0 13 9 13 20 0 20 -7 25 -19 13z"/> <path d="M120 1490 c-12 -22 -17 -226 -6 -237 3 -3 6 6 6 21 0 15 9 45 20 68 11 22 17 45 13 51 -4 6 -1 7 7 2 10 -6 12 -4 7 7 -3 9 0 21 6 27 6 6 8 13 5 17 -3 3 -18 -14 -33 -38 -28 -45 -30 -33 -7 40 6 18 7 32 2 32 -5 0 -7 7 -4 15 9 22 -4 18 -16 -5z"/> <path d="M399 1500 c-1 -8 -1 -21 0 -27 1 -7 -2 -13 -7 -13 -5 0 -14 -18 -20 -39 -9 -37 -8 -39 9 -28 12 7 14 14 7 18 -6 4 -7 12 -4 18 4 6 11 9 16 6 11 -7 18 51 8 67 -6 10 -8 10 -9 -2z"/> <path d="M1300 1498 c0 -8 16 -29 35 -48 19 -19 35 -40 35 -47 0 -6 4 -15 10 -18 6 -4 7 1 3 11 -5 14 -3 16 11 11 12 -5 7 6 -15 30 -46 53 -79 78 -79 61z"/> <path d="M550 1485 c0 -8 2 -15 4 -15 2 0 6 7 10 15 3 8 1 15 -4 15 -6 0 -10 -7 -10 -15z"/> <path d="M2150 1477 c0 -18 5 -27 16 -27 14 0 15 2 3 17 -8 9 -12 18 -11 20 2 3 1 7 -2 11 -3 3 -6 -7 -6 -21z"/> <path d="M2350 1486 c0 -9 7 -16 16 -16 17 0 14 22 -4 28 -7 2 -12 -3 -12 -12z"/> <path d="M684 1474 c10 -23 14 -43 15 -65 1 -9 7 -19 15 -22 10 -4 14 1 12 16 -5 33 -23 74 -37 83 -9 5 -10 2 -5 -12z"/> <path d="M1847 1483 c-4 -3 -3 -11 2 -17 5 -6 11 -20 14 -31 3 -12 5 -4 6 18 1 35 -7 46 -22 30z"/> <path d="M2420 1461 c0 -22 4 -29 14 -25 8 3 12 13 9 25 -9 32 -23 32 -23 0z"/> <path d="M440 1469 c0 -6 5 -7 10 -4 6 3 10 -1 10 -9 0 -9 5 -16 10 -16 20 0 10 36 -10 37 -11 1 -20 -3 -20 -8z"/> <path d="M820 1459 c0 -11 4 -18 10 -14 5 3 7 12 3 20 -7 21 -13 19 -13 -6z"/> <path d="M2540 1471 c0 -6 5 -13 10 -16 6 -3 10 1 10 9 0 9 -4 16 -10 16 -5 0 -10 -4 -10 -9z"/> <path d="M272 1449 c-22 -58 -30 -89 -22 -89 5 0 15 23 24 52 15 53 14 80 -2 37z"/> <path d="M1440 1417 c-7 -29 -17 -57 -22 -64 -5 -7 -5 -13 0 -17 10 -6 40 59 48 101 9 46 -13 29 -26 -20z"/> <path d="M1791 1454 c-1 -12 6 -25 15 -28 13 -5 14 -3 7 6 -6 7 -13 20 -16 28 -4 10 -6 8 -6 -6z"/> <path d="M208 1424 c3 -23 0 -34 -9 -34 -7 0 -9 -3 -6 -7 4 -3 -2 -13 -14 -21 -11 -8 -18 -20 -15 -27 2 -7 -2 -22 -10 -33 -7 -11 -16 -31 -18 -44 -2 -12 -10 -23 -17 -22 -11 1 -14 -19 -14 -93 0 -51 3 -93 8 -93 4 0 7 11 7 25 0 43 49 217 80 284 33 70 36 87 17 94 -9 3 -12 -5 -9 -29z"/> <path d="M1690 1450 c0 -5 5 -10 11 -10 5 0 7 5 4 10 -3 6 -8 10 -11 10 -2 0 -4 -4 -4 -10z"/> <path d="M2250 1445 c0 -8 4 -15 10 -15 5 0 7 7 4 15 -4 8 -8 15 -10 15 -2 0 -4 -7 -4 -15z"/> <path d="M498 1415 c-3 -28 -1 -35 11 -32 10 2 15 12 13 27 -4 41 -19 44 -24 5z"/> <path d="M780 1446 c0 -4 5 -17 11 -28 7 -12 13 -44 16 -72 2 -28 6 -67 10 -86 6 -34 6 -35 13 -9 4 15 3 50 -2 79 -5 29 -7 58 -4 65 2 7 -6 23 -20 36 -13 12 -24 19 -24 15z"/> <path d="M1035 1440 c3 -5 8 -10 11 -10 2 0 4 5 4 10 0 6 -5 10 -11 10 -5 0 -7 -4 -4 -10z"/> <path d="M1507 1443 c-4 -3 -7 -11 -7 -17 0 -6 5 -5 12 2 6 6 9 14 7 17 -3 3 -9 2 -12 -2z"/> <path d="M1551 1428 c-1 -20 3 -26 14 -22 8 4 15 10 15 16 0 5 -4 7 -9 3 -5 -3 -12 3 -14 12 -3 11 -5 8 -6 -9z"/> <path d="M560 1431 c0 -5 7 -14 15 -21 8 -7 13 -15 11 -19 -3 -4 5 -8 17 -8 19 -2 20 0 6 10 -8 7 -18 20 -22 30 -7 17 -27 24 -27 8z"/> <path d="M2140 1438 c-2 -9 -3 -53 -1 -66 1 -4 10 -13 22 -20 15 -10 19 -10 14 -1 -5 6 -14 30 -21 53 -7 23 -13 38 -14 34z"/> <path d="M2201 1424 c0 -11 3 -14 6 -6 3 7 2 16 -1 19 -3 4 -6 -2 -5 -13z"/> <path d="M2310 1432 c0 -17 37 -42 53 -36 12 4 20 -1 26 -17 7 -17 10 -19 10 -7 1 9 9 22 19 27 13 8 7 10 -29 11 -32 0 -49 5 -53 15 -6 16 -26 21 -26 7z"/> <path d="M1693 1414 c-3 -8 -1 -20 6 -27 8 -8 11 -4 9 16 -3 31 -6 34 -15 11z"/> <path d="M1925 1420 c-3 -5 1 -10 10 -10 9 0 13 5 10 10 -3 6 -8 10 -10 10 -2 0 -7 -4 -10 -10z"/> <path d="M440 1395 c0 -14 5 -25 10 -25 6 0 10 11 10 25 0 14 -4 25 -10 25 -5 0 -10 -11 -10 -25z"/> <path d="M1875 1411 c-3 -5 -1 -12 5 -16 5 -3 10 1 10 9 0 18 -6 21 -15 7z"/> <path d="M2530 1410 c0 -5 7 -10 16 -10 8 0 12 5 9 10 -3 6 -10 10 -16 10 -5 0 -9 -4 -9 -10z"/> <path d="M1115 1401 c-3 -5 -1 -12 5 -16 5 -3 10 1 10 9 0 18 -6 21 -15 7z"/> <path d="M1471 1354 c-13 -30 -21 -57 -18 -61 4 -3 11 7 17 23 6 16 16 42 22 57 20 51 3 36 -21 -19z"/> <path d="M996 1385 c4 -8 8 -15 10 -15 2 0 4 7 4 15 0 8 -4 15 -10 15 -5 0 -7 -7 -4 -15z"/> <path d="M1936 1391 c-3 -5 1 -11 9 -15 8 -3 15 -1 15 4 0 13 -18 22 -24 11z"/> <path d="M553 1363 c2 -15 9 -29 15 -31 13 -4 16 17 6 42 -10 26 -25 18 -21 -11z"/> <path d="M1650 1380 c0 -5 5 -10 10 -10 6 0 10 5 10 10 0 6 -4 10 -10 10 -5 0 -10 -4 -10 -10z"/> <path d="M1050 1373 c0 -5 5 -15 10 -23 8 -12 10 -11 10 8 0 12 -4 22 -10 22 -5 0 -10 -3 -10 -7z"/> <path d="M2446 1367 c3 -10 9 -15 12 -12 3 3 0 11 -7 18 -10 9 -11 8 -5 -6z"/> <path d="M510 1361 c0 -8 -7 -11 -15 -7 -10 3 -15 -1 -15 -13 0 -10 -3 -21 -7 -24 -3 -4 -8 -24 -10 -44 -3 -31 -2 -34 11 -24 10 9 13 22 9 43 -4 20 -2 29 4 25 11 -7 38 42 28 51 -3 3 -5 0 -5 -7z"/> <path d="M632 1362 c-9 -6 -10 -15 -3 -33 7 -18 10 -19 10 -6 1 10 8 20 16 23 8 4 15 10 15 15 0 11 -21 11 -38 1z"/> <path d="M1700 1353 c0 -13 5 -23 10 -23 13 0 13 11 0 30 -8 12 -10 11 -10 -7z"/> <path d="M2220 1349 c0 -11 4 -18 10 -14 5 3 7 12 3 20 -7 21 -13 19 -13 -6z"/> <path d="M359 1344 c-7 -9 -14 -34 -14 -55 0 -20 -4 -37 -9 -36 -9 2 -35 -41 -40 -67 -2 -6 -8 -24 -15 -40 -6 -16 -10 -31 -7 -33 2 -3 -2 -20 -10 -39 -20 -49 -24 -92 -8 -98 16 -6 19 -1 29 42 4 19 2 38 -4 45 -6 8 -6 18 -1 27 6 8 10 26 11 40 0 21 2 22 8 7 6 -17 8 -16 20 10 63 138 87 253 40 197z m6 -51 c-9 -37 -18 -20 -9 19 4 18 9 27 11 20 3 -7 2 -24 -2 -39z m-25 -62 c0 -18 -12 -41 -21 -41 -6 0 -6 8 0 19 6 10 7 21 4 25 -3 3 -1 6 5 6 7 0 12 -4 12 -9z m-60 -193 c0 -7 -4 -19 -9 -27 -7 -10 -9 -7 -8 12 2 26 17 39 17 15z"/> <path d="M426 1341 c-17 -19 -17 -19 2 -14 12 3 23 11 26 19 8 20 -8 17 -28 -5z"/> <path d="M1120 1351 c0 -6 4 -12 8 -15 5 -3 9 1 9 9 0 8 -4 15 -9 15 -4 0 -8 -4 -8 -9z"/> <path d="M2425 1347 c-4 -10 -5 -21 -1 -24 10 -10 18 4 13 24 -4 17 -4 17 -12 0z"/> <path d="M2527 1348 c4 -7 13 -33 18 -57 6 -24 16 -46 23 -47 7 -1 8 0 2 3 -6 3 -6 11 0 22 7 13 3 27 -16 54 -14 21 -27 37 -30 37 -3 0 -2 -6 3 -12z"/> <path d="M240 1340 c0 -7 -3 -10 -7 -7 -10 11 -33 -14 -33 -36 0 -21 0 -21 16 -1 15 18 15 18 8 -5 -4 -15 -2 -21 4 -17 13 7 26 65 18 73 -3 4 -6 0 -6 -7z"/> <path d="M1240 1326 c0 -9 5 -16 10 -16 6 0 10 4 10 9 0 6 -4 13 -10 16 -5 3 -10 -1 -10 -9z"/> <path d="M2350 1319 c0 -11 5 -17 10 -14 6 3 10 13 10 21 0 8 -4 14 -10 14 -5 0 -10 -9 -10 -21z"/> <path d="M1067 1315 c-4 -8 -2 -17 3 -20 6 -4 10 3 10 14 0 25 -6 27 -13 6z"/> <path d="M2126 1318 c-12 -38 -12 -68 -1 -68 17 0 27 27 14 36 -7 4 -6 10 1 19 8 9 8 15 0 20 -5 3 -12 0 -14 -7z"/> <path d="M2390 1314 c0 -8 5 -12 10 -9 6 4 8 11 5 16 -9 14 -15 11 -15 -7z"/> <path d="M602 1303 c-5 -10 -7 -24 -4 -32 2 -7 0 -16 -4 -20 -12 -8 -34 -58 -33 -74 0 -7 7 5 16 25 8 21 18 36 23 33 4 -2 12 7 18 20 8 18 8 25 1 25 -6 0 -9 9 -6 20 6 25 1 26 -11 3z"/> <path d="M1422 1285 c0 -52 -10 -122 -23 -162 -12 -37 -9 -203 3 -203 4 0 8 26 8 58 0 50 9 115 36 266 5 27 4 37 -4 32 -6 -4 -12 5 -15 21 -3 20 -5 17 -5 -12z"/> <path d="M2230 1308 c0 -7 5 -20 10 -28 8 -12 10 -11 10 7 0 12 -4 25 -10 28 -5 3 -10 0 -10 -7z"/> <path d="M404 1293 c-3 -10 -10 -28 -15 -41 -6 -15 -6 -21 0 -17 6 3 14 -3 20 -12 6 -10 11 -16 11 -13 0 3 4 20 9 37 7 24 6 32 -2 30 -7 -1 -11 6 -9 16 2 9 0 17 -3 17 -3 0 -8 -8 -11 -17z"/> <path d="M525 1265 c-4 -27 -14 -65 -21 -84 -17 -41 -17 -42 -1 -38 26 5 39 38 33 80 -4 25 -3 37 2 29 7 -11 11 -10 16 4 4 10 3 20 -2 23 -5 3 -11 13 -14 21 -3 8 -9 -7 -13 -35z"/> <path d="M1840 1300 c0 -5 5 -10 11 -10 5 0 7 5 4 10 -3 6 -8 10 -11 10 -2 0 -4 -4 -4 -10z"/> <path d="M657 1286 c-5 -12 -2 -25 9 -38 19 -20 33 -16 17 4 -6 7 -13 22 -15 33 -3 19 -4 19 -11 1z"/> <path d="M1712 1275 c0 -16 2 -22 5 -12 2 9 2 23 0 30 -3 6 -5 -1 -5 -18z"/> <path d="M1790 1284 c0 -8 5 -12 10 -9 6 4 8 11 5 16 -9 14 -15 11 -15 -7z"/> <path d="M2856 1275 c-9 -14 -12 -25 -7 -25 12 0 35 39 28 46 -2 3 -12 -7 -21 -21z"/> <path d="M1020 1273 c0 -13 5 -23 10 -23 13 0 13 11 0 30 -8 12 -10 11 -10 -7z"/> <path d="M2500 1265 c0 -14 5 -25 10 -25 6 0 10 11 10 25 0 14 -4 25 -10 25 -5 0 -10 -11 -10 -25z"/> <path d="M253 1253 c-37 -105 -47 -138 -67 -215 -12 -49 -19 -88 -15 -88 4 0 10 12 14 27 4 19 9 23 14 14 11 -16 17 -6 25 42 4 23 3 37 -4 37 -5 0 -11 -15 -11 -32 -1 -26 -3 -28 -6 -9 -7 34 5 74 21 68 9 -4 20 17 36 71 12 42 27 83 32 90 6 7 8 15 5 18 -3 3 -13 -7 -22 -23 l-16 -28 6 28 c3 15 4 27 1 27 -2 0 -8 -12 -13 -27z m-23 -128 c0 -8 -4 -15 -10 -15 -5 0 -7 7 -4 15 4 8 8 15 10 15 2 0 4 -7 4 -15z"/> <path d="M1081 1264 c0 -11 3 -14 6 -6 3 7 2 16 -1 19 -3 4 -6 -2 -5 -13z"/> <path d="M1251 1264 c0 -11 3 -14 6 -6 3 7 2 16 -1 19 -3 4 -6 -2 -5 -13z"/> <path d="M2450 1265 c-7 -8 -22 -15 -34 -15 -19 0 -21 -4 -18 -35 5 -42 19 -46 24 -7 3 25 27 39 29 17 1 -15 32 -65 41 -65 4 0 1 12 -7 26 -7 15 -12 40 -10 55 4 34 -8 45 -25 24z"/> <path d="M2300 1260 c0 -5 5 -10 10 -10 6 0 10 5 10 10 0 6 -4 10 -10 10 -5 0 -10 -4 -10 -10z"/> <path d="M776 1245 c4 -8 8 -15 10 -15 2 0 4 7 4 15 0 8 -4 15 -10 15 -5 0 -7 -7 -4 -15z"/> <path d="M1291 1244 c0 -11 3 -14 6 -6 3 7 2 16 -1 19 -3 4 -6 -2 -5 -13z"/> <path d="M1489 1245 c-3 -11 0 -40 7 -65 7 -25 15 -56 17 -70 l4 -25 1 25 c2 41 -24 157 -29 135z"/> <path d="M2201 1234 c0 -11 3 -14 6 -6 3 7 2 16 -1 19 -3 4 -6 -2 -5 -13z"/> <path d="M2102 1203 c-1 -21 -5 -54 -8 -74 -3 -22 -1 -40 5 -44 6 -3 11 -1 11 5 0 6 5 8 10 5 6 -3 10 -2 10 4 0 5 -4 13 -10 16 -16 10 -12 72 6 89 16 17 11 36 -10 36 -7 0 -13 -15 -14 -37z"/> <path d="M2254 1220 c0 -11 6 -20 14 -20 7 0 12 8 10 17 -4 24 -24 27 -24 3z"/> <path d="M2346 1222 c-3 -5 -1 -23 3 -40 5 -17 7 -32 5 -35 -2 -2 3 -4 11 -4 8 0 11 5 8 10 -3 5 -6 23 -5 38 1 29 -12 47 -22 31z"/> <path d="M370 1211 c0 -5 -3 -18 -6 -28 -4 -13 -3 -15 4 -4 18 24 23 -7 8 -44 -8 -19 -12 -35 -8 -35 4 0 0 -5 -8 -11 -12 -8 -12 -10 -1 -7 11 3 48 87 51 116 0 1 -7 2 -16 2 -8 0 -12 5 -9 10 3 6 1 10 -4 10 -6 0 -11 -4 -11 -9z"/> <path d="M630 1200 c0 -12 -4 -29 -9 -38 -4 -9 -11 -30 -14 -47 -6 -30 -6 -30 6 -5 7 14 20 37 30 52 17 25 18 29 3 43 -15 15 -16 15 -16 -5z"/> <path d="M694 1188 c3 -18 12 -35 18 -39 18 -12 20 -5 7 27 -7 16 -12 32 -11 37 1 4 -3 7 -9 7 -8 0 -9 -11 -5 -32z"/> <path d="M1860 1210 c0 -5 5 -10 10 -10 6 0 10 -12 9 -27 -2 -34 17 -83 31 -83 7 0 5 9 -4 22 -9 12 -16 35 -16 49 0 15 -3 34 -6 43 -7 18 -24 22 -24 6z"/> <path d="M441 1203 c-1 -6 -4 -20 -8 -30 -6 -16 -5 -17 12 -3 17 14 18 13 12 -3 -4 -10 -7 -23 -7 -29 0 -7 -5 -7 -13 1 -17 13 -27 5 -27 -24 0 -12 -3 -25 -7 -29 -5 -4 -8 -11 -9 -14 0 -4 -4 -19 -7 -34 -4 -16 -9 -40 -12 -55 -5 -27 -5 -27 7 -6 7 12 17 21 22 20 13 -3 28 57 16 61 -15 5 -12 32 3 32 8 0 19 10 26 23 14 27 23 89 11 82 -4 -3 -11 1 -13 7 -4 9 -6 9 -6 1z"/> <path d="M1926 1202 c-2 -4 -1 -14 5 -22 7 -12 9 -10 9 8 0 23 -5 28 -14 14z"/> <path d="M2520 1204 c0 -13 18 -39 24 -34 2 3 -2 14 -10 24 -8 11 -14 16 -14 10z"/> <path d="M2578 1188 c-13 -16 -15 -24 -6 -29 9 -6 38 29 38 47 0 11 -17 1 -32 -18z"/> <path d="M579 1172 c-6 -18 -15 -29 -20 -26 -5 3 -9 -10 -9 -29 0 -22 -6 -37 -15 -41 -9 -3 -15 -18 -15 -36 0 -17 -7 -45 -16 -61 -12 -24 -13 -34 -3 -45 14 -17 29 -18 29 -3 0 5 -4 7 -10 4 -17 -10 -11 14 15 62 18 35 21 49 12 55 -9 6 -9 10 1 20 6 6 12 8 13 3 0 -6 9 19 20 54 19 66 18 99 -2 43z"/> <path d="M1034 1179 c-3 -6 -2 -15 3 -20 5 -5 9 -1 9 11 0 23 -2 24 -12 9z"/> <path d="M1093 1168 c1 -15 6 -23 11 -18 4 4 4 16 -2 26 -9 16 -10 14 -9 -8z"/> <path d="M2205 1171 c-6 -11 9 -23 19 -14 9 9 7 23 -3 23 -6 0 -12 -4 -16 -9z"/> <path d="M2155 1160 c-3 -5 -1 -10 4 -10 6 0 11 5 11 10 0 6 -2 10 -4 10 -3 0 -8 -4 -11 -10z"/> <path d="M2251 1144 c0 -11 3 -14 6 -6 3 7 2 16 -1 19 -3 4 -6 -2 -5 -13z"/> <path d="M2300 1146 c0 -8 5 -18 10 -21 6 -3 10 3 10 14 0 12 -4 21 -10 21 -5 0 -10 -6 -10 -14z"/> <path d="M656 1134 c-4 -9 -4 -19 -1 -22 2 -3 7 3 11 12 4 9 4 19 1 22 -2 3 -7 -3 -11 -12z"/> <path d="M820 1145 c0 -2 5 -16 12 -30 16 -35 29 -31 15 5 -10 25 -27 42 -27 25z"/> <path d="M1683 1090 c0 -36 2 -50 4 -32 2 17 2 47 0 65 -2 17 -4 3 -4 -33z"/> <path d="M2155 1130 c3 -5 8 -10 11 -10 2 0 4 5 4 10 0 6 -5 10 -11 10 -5 0 -7 -4 -4 -10z"/> <path d="M2500 1124 c0 -23 25 -50 33 -37 3 5 -3 20 -14 33 -18 24 -19 24 -19 4z"/> <path d="M713 1101 c-10 -28 -9 -29 7 -18 10 6 18 19 17 29 -2 26 -11 22 -24 -11z"/> <path d="M337 1113 c-4 -3 -7 -18 -6 -32 1 -26 1 -25 10 3 9 31 7 41 -4 29z"/> <path d="M506 1113 c-4 -4 -15 -8 -24 -8 -9 0 -18 -9 -20 -20 -3 -16 -1 -17 7 -5 9 13 11 13 11 -2 0 -26 15 -22 29 8 12 27 10 40 -3 27z"/> <path d="M2448 1109 c-5 -14 10 -49 26 -60 5 -4 6 -13 4 -20 -7 -18 10 -51 23 -44 15 10 10 25 -8 26 -11 0 -13 3 -5 6 18 7 15 23 -12 67 -15 25 -25 34 -28 25z"/> <path d="M2740 1109 c-19 -4 -38 -5 -41 -3 -4 2 -10 -2 -12 -8 -4 -10 -8 -9 -16 2 -9 13 -11 13 -11 -2 0 -11 -8 -18 -20 -18 -11 0 -20 -6 -20 -14 0 -15 32 -10 95 13 38 14 89 9 112 -11 12 -10 26 -12 43 -7 27 7 21 11 -20 13 -19 1 -25 6 -24 23 0 17 -3 20 -16 13 -9 -5 -21 -5 -26 -1 -5 4 -25 4 -44 0z"/> <path d="M660 1090 c-6 -12 -9 -24 -7 -27 3 -2 11 5 17 17 6 12 9 24 7 27 -3 2 -11 -5 -17 -17z"/> <path d="M2205 1100 c3 -5 10 -10 16 -10 5 0 9 5 9 10 0 6 -7 10 -16 10 -8 0 -12 -4 -9 -10z"/> <path d="M1296 1039 c4 -81 14 -89 14 -11 0 33 -4 63 -9 66 -5 3 -7 -22 -5 -55z"/> <path d="M1631 1084 c0 -11 3 -14 6 -6 3 7 2 16 -1 19 -3 4 -6 -2 -5 -13z"/> <path d="M2560 1094 c0 -13 21 -44 30 -44 16 0 11 37 -6 44 -19 7 -24 8 -24 0z"/> <path d="M610 1072 c-29 -35 -51 -88 -55 -131 -3 -39 -2 -42 9 -25 19 28 31 68 17 60 -14 -9 -4 20 19 54 16 24 32 60 27 60 -1 0 -9 -8 -17 -18z"/> <path d="M1740 1059 c0 -19 4 -41 9 -48 6 -10 8 1 4 30 -7 55 -13 63 -13 18z"/> <path d="M2398 1078 c7 -7 12 -20 12 -31 0 -26 19 -59 30 -52 6 4 3 16 -5 29 -9 13 -15 28 -14 32 4 22 -2 34 -18 34 -13 0 -14 -3 -5 -12z"/> <path d="M2215 1070 c-3 -5 -1 -10 4 -10 6 0 11 5 11 10 0 6 -2 10 -4 10 -3 0 -8 -4 -11 -10z"/> <path d="M2275 1070 c3 -5 8 -10 11 -10 2 0 4 5 4 10 0 6 -5 10 -11 10 -5 0 -7 -4 -4 -10z"/> <path d="M2320 1070 c0 -5 7 -7 15 -4 8 4 15 8 15 10 0 2 -7 4 -15 4 -8 0 -15 -4 -15 -10z"/> <path d="M344 1030 c-7 -45 -24 -64 -25 -28 0 22 -1 22 -9 3 -12 -27 -12 -47 -1 -40 5 3 13 0 17 -6 10 -17 24 10 24 48 0 17 5 35 10 38 13 8 13 25 0 25 -5 0 -13 -18 -16 -40z"/> <path d="M1051 1054 c0 -11 3 -14 6 -6 3 7 2 16 -1 19 -3 4 -6 -2 -5 -13z"/> <path d="M1111 1054 c0 -11 3 -14 6 -6 3 7 2 16 -1 19 -3 4 -6 -2 -5 -13z"/> <path d="M1990 1060 c0 -5 5 -10 11 -10 5 0 7 5 4 10 -3 6 -8 10 -11 10 -2 0 -4 -4 -4 -10z"/> <path d="M2336 1051 c-7 -11 22 -60 37 -61 13 0 7 24 -12 49 -12 16 -21 20 -25 12z"/> <path d="M2527 1045 c-3 -7 -3 -15 0 -18 7 -7 33 3 33 13 0 14 -28 19 -33 5z"/> <path d="M452 1025 c-15 -32 -15 -52 -1 -61 16 -9 29 15 29 54 0 38 -12 42 -28 7z m18 -15 c0 -5 -5 -10 -11 -10 -5 0 -7 5 -4 10 3 6 8 10 11 10 2 0 4 -4 4 -10z"/> <path d="M676 1028 c8 -28 12 -33 20 -25 9 8 -6 47 -17 47 -6 0 -7 -10 -3 -22z"/> <path d="M798 1013 c5 -41 -16 -143 -32 -158 -6 -5 -17 -28 -25 -50 -8 -22 -16 -46 -18 -52 -3 -7 0 -13 6 -13 6 0 11 4 11 10 0 5 14 40 32 77 34 73 34 72 41 150 3 33 0 56 -7 62 -9 8 -11 1 -8 -26z"/> <path d="M2136 1041 c-3 -5 1 -11 9 -14 9 -4 12 -1 8 9 -6 16 -10 17 -17 5z"/> <path d="M2277 1039 c6 -6 9 -18 6 -25 -3 -8 -1 -14 5 -14 5 0 12 6 15 14 6 14 -10 36 -27 36 -6 0 -5 -5 1 -11z"/> <path d="M1213 981 c-2 -33 1 -62 5 -65 5 -3 9 24 10 59 1 81 -12 86 -15 6z"/> <path d="M1513 1015 c0 -14 3 -28 8 -31 5 -3 9 9 9 25 0 17 -4 31 -9 31 -5 0 -8 -11 -8 -25z"/> <path d="M1982 1005 c-13 -16 -5 -19 22 -9 9 3 16 10 16 15 0 14 -24 10 -38 -6z"/> <path d="M2031 990 c-13 -11 -32 -20 -42 -20 -11 0 -22 -7 -25 -15 -4 -8 -17 -15 -30 -15 -13 0 -24 -5 -24 -11 0 -31 146 33 158 69 5 18 -9 14 -37 -8z"/> <path d="M625 988 c-10 -26 -2 -43 12 -26 7 8 8 19 3 28 -8 12 -10 12 -15 -2z"/> <path d="M1630 984 c0 -8 5 -12 10 -9 6 4 8 11 5 16 -9 14 -15 11 -15 -7z"/> <path d="M2720 990 c0 -5 5 -10 10 -10 6 0 10 5 10 10 0 6 -4 10 -10 10 -5 0 -10 -4 -10 -10z"/> <path d="M706 974 c-5 -14 -4 -15 9 -4 17 14 19 20 6 20 -5 0 -12 -7 -15 -16z"/> <path d="M2237 983 c-10 -16 11 -37 40 -39 15 -1 32 -3 36 -3 9 -1 42 -72 39 -84 -2 -5 2 -6 8 -2 6 4 7 13 1 23 -5 9 -11 28 -12 42 -5 32 -16 40 -56 40 -19 0 -36 7 -41 16 -5 9 -12 12 -15 7z"/> <path d="M2187 973 c-2 -4 4 -17 14 -27 22 -22 25 -10 5 17 -8 10 -16 15 -19 10z"/> <path d="M865 940 c-4 -17 -5 -34 -2 -36 2 -3 7 10 11 27 3 18 4 34 2 36 -2 3 -7 -10 -11 -27z"/> <path d="M1115 961 c-3 -5 -1 -12 5 -16 5 -3 10 1 10 9 0 18 -6 21 -15 7z"/> <path d="M1471 954 c0 -11 3 -14 6 -6 3 7 2 16 -1 19 -3 4 -6 -2 -5 -13z"/> <path d="M1810 956 c0 -9 5 -16 10 -16 6 0 10 4 10 9 0 6 -4 13 -10 16 -5 3 -10 -1 -10 -9z"/> <path d="M2645 950 c-10 -11 -15 -23 -12 -26 4 -4 9 1 13 10 3 9 11 13 17 9 6 -4 7 -1 2 7 -6 10 -1 12 19 8 14 -3 26 -1 26 3 0 17 -47 9 -65 -11z"/> <path d="M227 953 c-4 -3 -7 -13 -7 -22 1 -13 3 -13 11 2 11 19 8 33 -4 20z"/> <path d="M391 944 c0 -11 3 -14 6 -6 3 7 2 16 -1 19 -3 4 -6 -2 -5 -13z"/> <path d="M2370 957 c0 -1 13 -29 29 -61 16 -33 27 -66 24 -75 -4 -14 -4 -14 6 -1 14 20 14 46 -2 62 -7 7 -13 21 -13 31 -2 32 -4 35 -24 40 -11 3 -20 4 -20 4z"/> <path d="M246 934 c-9 -23 -7 -36 3 -30 12 8 21 46 11 46 -4 0 -11 -7 -14 -16z"/> <path d="M291 945 c-2 -5 -5 -23 -7 -40 -3 -25 -2 -27 7 -12 5 10 8 28 6 40 -2 12 -5 18 -6 12z"/> <path d="M649 948 c-7 -24 -5 -38 7 -38 8 0 14 9 14 20 0 11 -4 20 -10 20 -5 0 -10 -1 -11 -2z"/> <path d="M306 909 c-8 -44 -8 -55 3 -43 14 14 24 74 13 74 -5 0 -12 -14 -16 -31z"/> <path d="M357 928 c-5 -16 10 -48 23 -48 14 0 12 22 -4 43 -10 13 -15 15 -19 5z"/> <path d="M1072 920 c0 -14 2 -19 5 -12 2 6 2 18 0 25 -3 6 -5 1 -5 -13z"/> <path d="M1301 890 c1 -55 1 -55 11 -18 7 25 6 43 -1 55 -8 14 -10 6 -10 -37z"/> <path d="M2461 923 c1 -10 5 -29 9 -43 7 -21 8 -19 9 18 1 23 -3 42 -9 42 -5 0 -10 -8 -9 -17z"/> <path d="M597 915 c-4 -8 -3 -25 2 -37 8 -22 8 -22 19 -2 7 14 7 24 -3 37 -11 15 -13 16 -18 2z"/> <path d="M2598 923 c7 -3 16 -2 19 1 4 3 -2 6 -13 5 -11 0 -14 -3 -6 -6z"/> <path d="M154 885 c-3 -20 -4 -39 0 -42 3 -4 6 3 6 15 0 15 4 20 16 15 12 -4 15 0 12 17 -5 38 -26 35 -34 -5z"/> <path d="M432 904 c-9 -9 -11 -25 -7 -42 6 -26 6 -26 -9 -7 -15 19 -15 18 -16 -15 0 -26 3 -31 10 -20 7 11 10 11 10 2 0 -7 5 -10 11 -6 6 3 9 19 5 34 -3 19 -1 30 9 34 8 3 15 12 15 21 0 19 -11 19 -28 -1z"/> <path d="M740 909 c0 -5 5 -7 10 -4 6 3 10 8 10 11 0 2 -4 4 -10 4 -5 0 -10 -5 -10 -11z"/> <path d="M2520 909 c0 -5 5 -7 10 -4 6 3 10 8 10 11 0 2 -4 4 -10 4 -5 0 -10 -5 -10 -11z"/> <path d="M1691 893 c1 -10 5 -31 9 -48 7 -27 8 -25 9 18 0 26 -3 47 -9 47 -5 0 -9 -8 -9 -17z"/> <path d="M475 890 c-3 -5 -2 -17 3 -26 6 -11 11 -13 16 -5 12 18 28 12 21 -8 -4 -14 1 -20 20 -25 14 -4 25 -13 25 -21 0 -19 7 -19 26 0 20 19 10 35 -17 28 -16 -4 -20 -2 -17 8 2 7 -10 23 -29 36 -39 26 -40 27 -48 13z"/> <path d="M673 893 c-7 -3 -13 -14 -13 -26 0 -20 1 -20 16 -5 18 18 16 37 -3 31z"/> <path d="M1123 865 c0 -22 2 -30 4 -17 2 12 2 30 0 40 -3 9 -5 -1 -4 -23z"/> <path d="M1471 868 c0 -21 1 -38 4 -38 16 0 55 35 55 49 -1 14 -2 14 -11 -1 -14 -25 -37 -22 -42 5 -3 13 -5 8 -6 -15z"/> <path d="M1751 884 c0 -11 3 -14 6 -6 3 7 2 16 -1 19 -3 4 -6 -2 -5 -13z"/> <path d="M2210 889 c0 -5 5 -7 10 -4 6 3 10 -3 10 -14 0 -11 5 -23 11 -26 19 -12 21 3 4 29 -18 27 -35 34 -35 15z"/> <path d="M2750 893 c-23 -9 -54 -42 -47 -50 4 -3 7 -2 7 4 0 6 20 17 45 24 28 8 40 16 32 21 -14 9 -16 9 -37 1z"/> <path d="M210 878 c0 -19 32 -44 52 -40 11 2 18 -5 20 -20 4 -30 22 -30 26 0 2 15 -2 22 -12 22 -9 0 -16 5 -16 11 0 5 -4 8 -9 4 -5 -3 -12 -1 -16 5 -3 5 -15 15 -26 20 -14 8 -19 7 -19 -2z"/> <path d="M340 867 c0 -16 6 -23 20 -23 11 0 20 6 20 14 0 7 -4 10 -10 7 -5 -3 -10 1 -10 9 0 9 -4 16 -10 16 -5 0 -10 -10 -10 -23z"/> <path d="M1392 854 c0 -25 3 -33 9 -23 11 18 12 59 0 59 -5 0 -9 -16 -9 -36z"/> <path d="M1850 864 c-10 -26 -2 -43 22 -44 4 0 9 -10 11 -22 3 -13 4 1 3 31 -1 61 -20 79 -36 35z"/> <path d="M1921 874 c0 -11 3 -14 6 -6 3 7 2 16 -1 19 -3 4 -6 -2 -5 -13z"/> <path d="M842 853 c-19 -52 -21 -63 -13 -63 10 0 36 78 29 85 -3 3 -10 -7 -16 -22z"/> <path d="M636 861 c-5 -7 -3 -18 3 -24 14 -14 20 -6 11 17 -5 15 -9 16 -14 7z"/> <path d="M1221 844 c0 -11 3 -14 6 -6 3 7 2 16 -1 19 -3 4 -6 -2 -5 -13z"/> <path d="M2290 851 c0 -5 5 -13 10 -16 6 -3 10 -2 10 4 0 5 -4 13 -10 16 -5 3 -10 2 -10 -4z"/> <path d="M687 833 c-4 -3 -7 -13 -7 -22 1 -13 3 -13 11 2 11 19 8 33 -4 20z"/> <path d="M2630 830 c-12 -8 -11 -10 8 -10 12 0 22 5 22 10 0 13 -11 13 -30 0z"/> <path d="M466 823 c-12 -12 -6 -43 9 -43 8 0 15 9 15 19 0 21 -13 34 -24 24z"/> <path d="M1033 790 c0 -25 2 -35 4 -22 2 12 2 32 0 45 -2 12 -4 2 -4 -23z"/> <path d="M1312 800 c0 -19 2 -27 5 -17 2 9 2 25 0 35 -3 9 -5 1 -5 -18z"/> <path d="M1500 815 c-7 -8 -8 -15 -2 -15 5 0 15 7 22 15 7 8 8 15 2 15 -5 0 -15 -7 -22 -15z"/> <path d="M2440 800 c0 -28 13 -40 24 -22 7 12 -5 52 -15 52 -5 0 -9 -13 -9 -30z"/> <path d="M323 790 c-1 -11 4 -20 13 -20 8 0 14 -6 14 -12 0 -7 6 -4 12 6 9 15 7 22 -8 33 -24 18 -29 17 -31 -7z"/> <path d="M591 786 c-17 -20 5 -31 24 -12 8 8 15 17 15 20 0 12 -28 6 -39 -8z"/> <path d="M781 774 c0 -11 3 -14 6 -6 3 7 2 16 -1 19 -3 4 -6 -2 -5 -13z"/> <path d="M1077 783 c-2 -5 -1 -19 4 -33 7 -23 7 -23 8 8 1 31 -3 40 -12 25z"/> <path d="M1470 776 c0 -20 19 -31 32 -18 7 7 3 14 -11 21 -17 10 -21 9 -21 -3z"/> <path d="M2370 782 c0 -15 11 -21 27 -15 12 5 12 7 1 14 -17 11 -28 11 -28 1z"/> <path d="M2320 770 c0 -5 5 -10 10 -10 6 0 10 5 10 10 0 6 -4 10 -10 10 -5 0 -10 -4 -10 -10z"/> <path d="M386 755 c-2 -7 2 -16 10 -19 25 -10 32 -7 30 11 -3 20 -33 26 -40 8z"/> <path d="M1181 754 c0 -11 3 -14 6 -6 3 7 2 16 -1 19 -3 4 -6 -2 -5 -13z"/> <path d="M1650 760 c0 -5 5 -10 10 -10 6 0 10 5 10 10 0 6 -4 10 -10 10 -5 0 -10 -4 -10 -10z"/> <path d="M2946 560 c8 -43 14 -51 14 -19 0 13 -5 31 -10 39 -7 11 -8 5 -4 -20z"/> <path d="M400 501 c-20 -4 -42 -11 -49 -15 -23 -15 -41 -73 -41 -134 0 -118 32 -152 142 -152 74 0 91 9 86 41 -3 22 -7 24 -53 21 -40 -2 -55 1 -68 16 -26 29 -32 82 -13 126 16 37 16 37 68 35 53 -3 53 -3 56 29 3 30 2 32 -32 32 -19 0 -40 2 -48 4 -7 2 -29 1 -48 -3z m10 -36 c0 -3 -9 -18 -21 -34 -44 -60 -28 -158 32 -188 l24 -13 -30 0 c-50 1 -68 22 -73 90 -6 83 4 129 31 140 26 11 37 12 37 5z"/> <path d="M2600 500 c-42 -10 -60 -33 -60 -78 0 -51 14 -67 85 -97 46 -20 65 -33 63 -44 -3 -13 -18 -16 -76 -16 -71 0 -72 0 -72 -26 0 -34 14 -39 105 -39 95 0 120 18 119 84 -1 57 -12 70 -82 96 -94 36 -93 60 3 60 56 0 64 3 70 21 4 12 3 25 -2 29 -13 12 -115 19 -153 10z m7 -48 c-10 -10 -17 -25 -17 -32 0 -19 40 -60 60 -60 8 0 25 -7 36 -15 12 -8 24 -12 27 -9 3 4 10 -9 15 -27 11 -39 -4 -72 -34 -78 -18 -3 -17 -1 2 20 36 39 13 75 -61 99 -48 16 -64 35 -65 76 0 36 6 44 33 44 19 0 19 -1 4 -18z"/> <path d="M2959 328 l-4 -186 -30 -43 c-17 -24 -46 -52 -65 -64 -35 -20 -43 -20 -1341 -20 l-1305 0 -37 35 c-22 21 -45 57 -57 90 -18 50 -20 52 -14 15 7 -46 23 -81 60 -124 l26 -31 1320 0 1321 0 43 35 c81 66 89 89 92 265 2 85 2 169 0 185 -2 17 -6 -54 -9 -157z"/> <path d="M580 350 l0 -150 41 0 41 0 -4 65 -3 65 48 0 49 0 -4 -65 -3 -65 43 0 42 0 0 150 0 150 -42 0 -43 0 3 -55 4 -55 -49 0 -48 0 3 55 4 55 -41 0 -41 0 0 -150z m50 71 c0 -22 5 -41 13 -44 10 -3 10 -9 0 -26 -7 -11 -13 -41 -13 -65 0 -25 -4 -48 -10 -51 -6 -4 -10 35 -10 109 0 71 4 116 10 116 6 0 10 -18 10 -39z m162 -76 c0 -59 -3 -109 -6 -112 -5 -5 -8 45 -6 82 1 3 -6 13 -15 21 -19 19 -19 28 0 44 8 7 15 28 15 48 0 19 3 33 6 29 4 -3 6 -54 6 -112z"/> <path d="M930 458 c-6 -24 -26 -91 -44 -150 l-34 -108 43 0 c41 0 43 2 52 37 8 35 10 36 53 36 43 0 45 -1 54 -36 9 -35 12 -37 51 -37 l42 0 -24 83 c-13 45 -33 112 -44 150 l-20 67 -59 0 -59 0 -11 -42z m50 -3 c-7 -9 -15 -13 -17 -11 -7 7 7 26 19 26 6 0 6 -6 -2 -15z m55 4 c11 -17 -1 -21 -15 -4 -8 9 -8 15 -2 15 6 0 14 -5 17 -11z m-22 -48 c3 -16 9 -40 13 -55 6 -24 4 -26 -26 -26 -29 0 -32 2 -26 23 4 12 9 37 13 55 7 40 19 41 26 3z m45 -26 c-3 -3 -9 2 -12 12 -6 14 -5 15 5 6 7 -7 10 -15 7 -18z m-113 -27 c-3 -12 0 -27 6 -34 7 -9 5 -18 -10 -33 -12 -12 -21 -27 -21 -35 0 -8 -4 -17 -9 -20 -13 -8 9 109 26 137 8 14 12 7 8 -15z m152 -118 c-3 -10 -8 -4 -16 15 -6 17 -19 35 -28 42 -13 10 -13 15 -4 27 6 7 11 18 10 22 -6 36 6 18 22 -31 11 -33 18 -66 16 -75z"/> <path d="M1170 349 l0 -151 101 4 c94 3 102 5 123 29 47 55 42 203 -9 246 -23 20 -37 23 -121 23 l-94 0 0 -151z m70 112 c0 -6 -4 -13 -10 -16 -13 -8 -13 -171 0 -196 9 -16 7 -19 -10 -19 -19 0 -20 6 -20 120 0 113 1 120 20 120 11 0 20 -4 20 -9z m128 -11 c24 -23 25 -26 24 -120 -1 -55 -4 -67 -24 -82 -13 -10 -32 -18 -43 -17 -18 0 -19 0 -2 10 26 15 47 63 47 109 0 41 -22 98 -44 112 -7 5 -5 8 5 8 8 0 25 -9 37 -20z m-69 -10 c23 0 41 -40 41 -93 0 -55 -22 -87 -61 -87 l-29 0 0 96 c0 84 2 95 16 90 9 -3 24 -6 33 -6z"/> <path d="M1543 478 c3 -13 13 -75 23 -138 9 -63 22 -121 27 -128 7 -8 28 -12 61 -10 l51 3 12 65 c7 36 12 88 13 117 0 28 5 55 10 58 6 3 10 0 10 -7 1 -35 29 -218 35 -227 9 -15 100 -14 112 2 5 6 18 66 27 132 9 66 19 128 22 138 5 14 -2 17 -40 17 -25 0 -45 -3 -44 -7 4 -19 -15 -233 -21 -233 -3 0 -14 50 -23 111 -10 60 -20 114 -23 120 -4 5 -26 9 -50 9 -56 0 -60 -7 -76 -138 -7 -56 -15 -102 -19 -102 -4 0 -10 41 -14 91 -11 147 -12 149 -58 149 -36 0 -40 -2 -35 -22z m358 -68 l-9 -45 -1 46 c-1 25 2 49 6 53 12 12 13 -6 4 -54z m-265 -165 c17 -12 17 -13 2 -11 -23 3 -28 9 -33 37 -2 13 -9 56 -15 96 -6 40 -8 78 -3 85 4 8 12 -29 19 -90 9 -81 15 -106 30 -117z m194 0 c0 -12 -19 -12 -23 0 -4 9 -1 12 9 8 7 -3 14 -7 14 -8z m45 6 c3 -5 1 -12 -5 -16 -5 -3 -10 1 -10 9 0 18 6 21 15 7z m-195 -11 c0 -5 -2 -10 -4 -10 -3 0 -8 5 -11 10 -3 6 -1 10 4 10 6 0 11 -4 11 -10z"/> <path d="M2037 493 c-5 -9 -87 -279 -87 -287 0 -3 18 -6 40 -6 37 0 40 2 49 38 10 36 12 37 56 37 44 0 46 -1 56 -37 9 -36 12 -38 50 -38 46 0 47 -17 -10 170 l-37 125 -56 3 c-31 2 -58 -1 -61 -5z m48 -35 c-11 -6 -23 -16 -27 -22 -5 -7 -8 -5 -8 6 0 17 14 26 40 27 10 0 8 -3 -5 -11z m45 -9 c0 -6 -4 -7 -10 -4 -5 3 -10 11 -10 16 0 6 5 7 10 4 6 -3 10 -11 10 -16z m-14 -65 c7 -27 13 -50 14 -51 0 -2 -15 -3 -33 -3 l-33 0 10 55 c6 30 15 54 20 52 5 -2 15 -25 22 -53z m-77 -16 c-1 -13 1 -30 5 -39 4 -10 -4 -32 -21 -59 -30 -46 -45 -33 -19 17 8 16 17 45 21 66 8 40 18 51 14 15z m153 -128 c-2 -3 -7 1 -9 8 -3 7 -16 25 -30 40 -13 15 -20 28 -14 30 6 2 11 20 12 40 0 32 3 27 23 -38 13 -41 21 -77 18 -80z"/> <path d="M2260 350 l0 -150 40 0 40 0 0 60 c0 57 1 60 24 60 31 0 42 -15 53 -70 9 -45 9 -45 55 -48 l46 -3 -19 58 c-11 32 -29 66 -42 75 l-22 18 22 0 c49 0 61 95 17 129 -23 18 -41 21 -120 21 l-94 0 0 -150z m62 108 c-17 -17 -15 -78 3 -98 14 -15 14 -18 0 -30 -9 -8 -15 -29 -15 -56 0 -24 -4 -44 -10 -44 -6 0 -10 47 -10 120 0 117 1 120 22 120 17 0 19 -3 10 -12z m131 -2 c20 -16 20 -67 1 -73 -7 -2 -10 6 -6 22 3 16 -2 33 -13 45 -21 23 -9 26 18 6z m-49 -12 c9 -4 16 -18 16 -34 0 -29 -15 -40 -56 -40 -21 0 -24 4 -24 40 0 36 3 40 24 40 13 0 31 -3 40 -6z m61 -183 c10 -46 -8 -32 -25 20 -8 22 -20 43 -27 46 -7 3 -13 10 -13 16 0 24 58 -50 65 -82z"/> </g> </svg> 