<svg version="1.0" xmlns="http://www.w3.org/2000/svg" width="288.000000pt" height="234.000000pt"
    viewBox="0 0 288.000000 234.000000" preserveAspectRatio="xMidYMid meet">
    <g transform="translate(0.000000,234.000000) scale(0.100000,-0.100000)" fill="#1d131c"
        stroke="none">
        <path
            d="M1077 2053 c-4 -3 -7 -44 -7 -89 l0 -84 -177 -2 -178 -3 -3 -87 -3 -87 -87 -3 -87 -3 -3 -177 -2 -177 -88 -3 -87 -3 0 -175 0 -175 87 -3 87 -3 3 -87 3 -87 87 -3 87 -3 3 -87 3 -87 535 0 535 0 3 87 3 88 177 2 177 3 3 87 3 87 87 3 87 3 0 265 0 265 -87 3 -88 3 -2 177 -3 177 -87 3 -87 3 -3 87 -3 87 -441 3 c-242 1 -444 -1 -447 -5z" />
    </g>
    <g transform="translate(0.000000,234.000000) scale(0.100000,-0.100000)" fill="#1d131c"
        stroke="#1d131c" strokeWidth="10px">
        <path
            d="M1077 2053 c-4 -3 -7 -44 -7 -89 l0 -84 -177 -2 -178 -3 -3 -87 -3 -87 -87 -3 -87 -3 -3 -177 -2 -177 -88 -3 -87 -3 0 -175 0 -175 87 -3 87 -3 3 -87 3 -87 87 -3 87 -3 3 -87 3 -87 535 0 535 0 3 87 3 88 177 2 177 3 3 87 3 87 87 3 87 3 0 265 0 265 -87 3 -88 3 -2 177 -3 177 -87 3 -87 3 -3 87 -3 87 -441 3 c-242 1 -444 -1 -447 -5z m895 -350 l3 -178 88 -3 87 -3 0 -269 0 -270 -177 -2 -178 -3 -3 -87 -3 -88 -539 0 -539 0 -3 88 -3 87 -87 3 -88 3 0 179 0 179 88 3 87 3 3 177 2 178 178 2 177 3 3 88 3 87 449 0 450 0 2 -177z" />
    </g>
    <g transform="translate(0.000000,234.000000) scale(0.100000,-0.100000)" fill="#42373f"
        stroke="#42373f" strokeWidth="10px">
        <path
            d="M1074 1867 c-3 -8 -4 -47 -2 -88 l3 -74 357 -3 357 -2 3 -88 3 -87 87 -3 88 -3 2 -177 3 -177 85 0 85 0 0 175 0 175 -87 3 -88 3 -2 177 -3 177 -443 3 c-365 2 -443 0 -448 -11z" />
        <path
            d="M714 1687 c-3 -8 -4 -47 -2 -88 l3 -74 85 0 85 0 0 85 0 85 -83 3 c-63 2 -84 0 -88 -11z" />
    </g>
    <g transform="translate(0.000000,234.000000) scale(0.100000,-0.100000)" fill="#5c5059"
        stroke="#5c5059" strokeWidth="10px">
        <path
            d="M897 1693 c-4 -3 -7 -44 -7 -89 l0 -83 -87 -3 -88 -3 0 -85 0 -85 87 -3 87 -3 3 -87 3 -87 535 0 535 0 0 175 0 175 -85 0 -85 0 -3 -42 c-3 -42 -3 -42 -45 -45 -42 -3 -42 -3 -45 -45 l-3 -43 -405 0 -404 0 0 90 0 90 313 2 312 3 3 42 3 42 132 3 132 3 0 40 0 40 -441 3 c-242 1 -444 -1 -447 -5z" />
    </g>
    <g transform="translate(0.000000,234.000000) scale(0.100000,-0.100000)" fill="#6f626b"
        stroke="#6f626b" strokeWidth="10px">
        <path
            d="M1527 1604 c-4 -4 -7 -25 -7 -46 l0 -38 -312 -2 -313 -3 0 -85 0 -85 400 0 400 0 3 42 c3 42 3 42 45 45 l42 3 0 85 0 85 -126 3 c-69 1 -128 -1 -132 -4z" />
    </g>
    <g transform="translate(0.000000,234.000000) scale(0.100000,-0.100000)" fill="#382e33"
        stroke="#382e33" strokeWidth="10px">
        <path
            d="M534 1147 c-3 -8 -4 -47 -2 -88 l3 -74 175 0 175 0 0 85 0 85 -173 3 c-138 2 -173 0 -178 -11z" />
        <path
            d="M1437 1154 c-4 -4 -7 -45 -7 -90 l0 -84 -177 -2 -178 -3 0 -85 0 -85 175 0 175 0 3 87 3 87 87 3 87 3 0 85 0 85 -80 3 c-45 1 -84 0 -88 -4z" />
    </g>
    <g transform="translate(0.000000,234.000000) scale(0.100000,-0.100000)" fill="#2b2428"
        stroke="#2b2428" strokeWidth="10px">
        <path
            d="M1617 1153 c-4 -3 -7 -44 -7 -89 l0 -83 -87 -3 -88 -3 0 -85 0 -85 175 0 175 0 3 87 3 88 177 2 177 3 0 85 0 85 -261 3 c-143 1 -263 -1 -267 -5z" />
    </g>
    <g transform="translate(0.000000,234.000000) scale(0.100000,-0.100000)" fill="#3f383c"
        stroke="#3f383c" strokeWidth="10px">
        <path
            d="M534 1327 c-3 -8 -4 -47 -2 -88 l3 -74 177 -3 177 -2 3 -88 3 -87 265 0 265 0 0 85 0 85 -267 3 -267 2 -3 88 -3 87 -173 3 c-138 2 -173 0 -178 -11z" />
    </g>
    <g transform="translate(0.000000,234.000000) scale(0.100000,-0.100000)" fill="#322a2f"
        stroke="#322a2f" strokeWidth="10px">
        <path
            d="M714 967 c-3 -8 -4 -47 -2 -88 l3 -74 175 0 175 0 0 85 0 85 -173 3 c-138 2 -173 0 -178 -11z" />
    </g>
</svg>