 <svg  version="1.0" xmlns="http://www.w3.org/2000/svg"  width="300.000000pt" height="300.000000pt" viewBox="0 0 300.000000 300.000000"  preserveAspectRatio="xMidYMid meet">  <g transform="translate(0.000000,300.000000) scale(0.100000,-0.100000)" fill="#f9f9f9" stroke="none"> <path d="M1735 2860 c27 -12 43 -12 25 0 -8 5 -22 9 -30 9 -10 0 -8 -3 5 -9z"/> <path d="M1602 2835 c-44 -37 -60 -88 -82 -268 -11 -89 -25 -178 -30 -197 -13 -45 -13 -50 3 -50 26 0 44 35 50 92 7 70 32 125 67 147 15 9 25 22 22 30 -3 9 0 12 11 8 11 -4 13 0 9 15 l-5 21 -16 -20 c-9 -11 -22 -29 -29 -39 -11 -17 -12 -17 -7 6 4 21 2 19 -12 -7 -18 -36 -43 -44 -40 -14 1 12 6 17 15 13 12 -4 12 -2 1 16 -11 17 -10 23 2 38 12 16 12 17 -1 9 -13 -8 -13 -7 0 10 12 15 12 17 1 10 -11 -6 -13 -4 -7 11 5 10 9 24 9 31 0 6 7 9 16 5 14 -5 14 -3 -1 14 -16 18 -15 21 6 56 13 21 26 35 31 30 4 -4 5 2 1 13 -4 11 -4 16 0 12 4 -4 13 -2 21 4 19 16 16 1 -8 -37 -11 -19 -25 -32 -30 -29 -5 4 -6 -2 -2 -11 4 -11 3 -15 -5 -10 -6 3 -14 1 -18 -5 -5 -8 -3 -9 6 -4 9 6 11 4 5 -6 -8 -12 -6 -12 8 0 9 7 17 10 17 6 0 -4 7 -2 15 5 12 10 16 8 24 -11 5 -13 10 -18 10 -11 1 7 -6 23 -15 37 -14 22 -14 26 1 49 20 30 35 34 36 9 0 -15 2 -15 9 2 7 16 9 12 11 -20 l2 -40 6 35 7 35 7 -29 c7 -23 10 -27 18 -15 7 11 9 9 9 -9 0 -13 4 -21 9 -18 5 3 12 -1 15 -10 4 -10 2 -13 -6 -8 -7 4 -8 3 -4 -5 4 -6 11 -9 16 -6 18 11 22 -18 5 -33 -10 -10 -15 -12 -12 -6 4 6 -2 19 -12 28 -17 15 -18 14 -28 -29 -6 -27 -6 -45 -1 -45 5 0 6 -4 3 -10 -3 -5 -2 -10 4 -10 6 0 35 25 65 56 39 40 48 54 32 50 -16 -4 -26 4 -46 35 -28 45 -102 99 -136 99 -12 0 -36 -11 -52 -25z m20 -87 c-7 -7 -12 -8 -12 -2 0 14 12 26 19 19 2 -3 -1 -11 -7 -17z m145 -67 c1 -11 -4 -22 -12 -25 -11 -4 -14 1 -11 17 3 12 5 26 5 31 1 15 15 -3 18 -23z"/> <path d="M1780 2847 c0 -10 41 -49 46 -45 2 3 -7 15 -21 28 -14 13 -25 20 -25 17z"/> <path d="M1836 2775 c4 -8 11 -15 16 -15 6 0 5 6 -2 15 -7 8 -14 15 -16 15 -2 0 -1 -7 2 -15z"/> <path d="M1626 2721 c-3 -5 2 -15 12 -22 15 -12 16 -12 5 2 -7 9 -10 19 -6 22 3 4 4 7 0 7 -3 0 -8 -4 -11 -9z"/> <path d="M1671 2714 c0 -11 3 -14 6 -6 3 7 2 16 -1 19 -3 4 -6 -2 -5 -13z"/> <path d="M1589 2678 c-1 -2 -2 -18 -3 -35 -3 -38 7 -42 27 -12 10 13 30 23 56 26 53 7 53 21 0 17 -24 -2 -46 -10 -54 -20 -8 -12 -14 -14 -19 -6 -4 7 -4 17 -1 22 3 6 4 10 1 10 -3 0 -7 -1 -7 -2z"/> <path d="M1910 2643 c-1 -46 -28 -157 -39 -161 -6 -2 -11 -28 -11 -59 l0 -55 30 7 c23 5 30 3 30 -9 0 -9 5 -16 11 -16 6 0 9 6 6 14 -3 8 1 17 9 20 9 3 12 11 9 17 -5 8 -10 8 -18 0 -6 -6 -17 -11 -25 -11 -12 0 -13 12 -7 68 16 145 20 212 13 212 -5 0 -8 -12 -8 -27z"/> <path d="M1684 2629 c31 -24 34 -43 5 -36 -18 5 -18 3 -7 -11 26 -34 41 -40 70 -30 26 9 47 43 34 55 -3 4 -6 -1 -6 -10 0 -17 -34 -32 -50 -22 -18 11 -11 25 12 25 17 0 11 6 -24 25 -57 30 -70 32 -34 4z"/> <path d="M1117 2633 c-5 -7 -6 -17 -2 -23 3 -5 0 -19 -7 -31 -10 -16 -10 -23 -2 -26 7 -2 10 -13 7 -23 -3 -11 -1 -20 5 -20 5 0 12 12 15 28 7 36 -6 111 -16 95z m13 -57 c0 -3 -4 -8 -10 -11 -5 -3 -10 -1 -10 4 0 6 5 11 10 11 6 0 10 -2 10 -4z"/> <path d="M1351 2593 c0 -18 -5 -33 -11 -33 -5 0 -10 -7 -10 -15 0 -8 5 -15 10 -15 6 0 10 -33 10 -79 0 -75 -2 -81 -27 -101 l-28 -21 32 5 c21 3 37 0 46 -9 8 -8 18 -11 22 -7 5 4 5 -1 2 -10 -4 -10 -2 -18 4 -18 6 0 8 -8 5 -17 -4 -10 -4 -14 0 -10 4 4 13 2 21 -4 10 -9 13 -6 13 17 0 18 -8 34 -20 42 -11 7 -20 21 -20 33 0 16 -4 19 -19 14 -18 -5 -20 0 -23 89 -3 81 -1 93 11 83 12 -10 13 -9 6 3 -5 8 -12 30 -16 50 l-7 35 -1 -32z"/> <path d="M1653 2551 c-2 -19 41 -44 74 -44 23 0 34 -42 43 -152 l7 -100 1 90 c1 52 -4 106 -12 127 -11 31 -11 38 1 42 15 6 9 26 -8 26 -6 0 -7 -5 -3 -11 11 -19 -48 -1 -72 22 -25 24 -29 24 -31 0z"/> <path d="M2186 2548 c-5 -15 -13 -74 -25 -173 -5 -38 -13 -81 -19 -95 -9 -21 -11 -14 -13 45 l-2 70 -6 -58 c-3 -31 -10 -57 -16 -57 -55 0 -59 -47 -10 -121 39 -60 51 -103 40 -152 -3 -17 -7 -47 -8 -66 -2 -29 -8 -37 -35 -48 -22 -9 -30 -18 -25 -26 4 -6 8 -16 10 -22 1 -5 5 -19 8 -30 7 -24 -28 -85 -49 -85 -8 0 -17 -7 -20 -16 -3 -8 -11 -12 -17 -8 -7 4 -9 3 -6 -3 4 -6 -6 -10 -24 -11 -29 -1 -30 0 -16 21 8 12 23 22 32 22 10 0 20 6 23 13 2 7 -5 12 -18 12 -12 0 -18 4 -15 11 5 7 14 5 30 -5 21 -14 24 -13 40 4 10 11 15 20 10 20 -4 0 -1 8 6 17 13 16 13 16 -10 0 -19 -13 -28 -14 -40 -5 -13 10 -14 10 -3 -2 19 -22 14 -32 -9 -20 -19 11 -20 13 -4 37 9 13 14 31 11 38 -2 7 2 21 9 32 18 23 19 39 2 24 -16 -13 -28 -5 -20 14 2 8 -6 33 -20 57 -14 24 -27 59 -31 78 -5 30 -4 32 6 15 6 -11 20 -33 31 -49 14 -19 16 -27 6 -22 -7 4 -5 0 5 -8 11 -9 16 -16 12 -16 -4 0 6 -18 24 -40 28 -35 33 -38 55 -28 14 6 25 16 25 22 0 6 -4 6 -12 -2 -12 -12 -38 1 -38 20 0 5 -16 34 -36 66 -20 31 -52 90 -71 131 -35 79 -67 121 -90 121 -25 0 -7 -65 23 -83 18 -10 37 -84 29 -114 -3 -14 -2 -30 3 -36 18 -23 52 -128 52 -161 0 -33 -32 -139 -49 -160 -11 -14 -23 -68 -25 -118 -1 -34 1 -38 19 -34 11 2 74 14 140 27 116 21 167 39 113 39 -34 0 -49 20 -46 62 3 45 21 63 40 40 21 -24 48 -98 40 -107 -4 -4 4 -5 18 -2 14 3 44 9 68 13 47 7 52 16 22 41 -11 10 -20 26 -20 36 0 10 -5 15 -11 12 -6 -4 -8 -20 -4 -38 5 -24 4 -28 -4 -17 -9 13 -12 12 -17 -7 -8 -30 -24 -19 -24 15 0 22 -2 24 -11 12 -7 -11 -8 -6 -3 20 9 46 13 78 16 118 0 17 6 32 12 32 6 0 4 4 -4 10 -12 8 -12 10 3 16 26 9 32 -2 18 -30 -13 -23 -9 -46 7 -46 9 0 9 72 -1 87 -4 6 -4 13 0 16 5 2 2 2 -4 1 -7 -2 -25 7 -41 20 -20 17 -35 23 -55 19 -26 -5 -27 -4 -18 19 5 13 10 40 11 59 2 35 -19 99 -32 99 -4 0 -8 20 -8 45 0 32 -4 45 -14 45 -7 0 -19 7 -26 15 -15 18 1 20 19 3 11 -11 12 -10 6 1 -6 10 -4 13 6 9 8 -3 22 -9 32 -13 12 -5 17 -2 17 9 0 9 5 16 11 16 5 0 7 -4 4 -10 -3 -5 2 -10 12 -10 16 0 18 9 18 75 0 41 -4 75 -9 75 -5 0 -6 37 -2 85 5 76 2 107 -8 73z m1 -265 c-3 -10 -5 -4 -5 12 0 17 2 24 5 18 2 -7 2 -21 0 -30z m38 -382 c-4 -9 -9 -44 -12 -78 -6 -61 -21 -87 -24 -40 -3 37 3 92 10 97 11 9 12 32 1 25 -5 -3 -10 0 -10 8 0 10 7 13 21 10 14 -4 18 -11 14 -22z m-40 -25 c-2 -6 -6 -24 -9 -39 -9 -41 -27 -22 -20 21 3 20 8 41 11 46 7 10 22 -14 18 -28z m-55 1 c0 -7 -4 -17 -10 -23 -6 -6 6 -28 31 -62 22 -28 35 -52 30 -52 -6 0 -14 7 -19 15 -7 13 -12 11 -33 -11 -13 -14 -23 -27 -22 -30 1 -2 0 -11 -4 -20 -3 -9 -1 -30 4 -45 11 -29 11 -29 -30 -30 -23 0 -51 -3 -62 -5 -11 -3 -34 -7 -51 -10 -28 -4 -32 -1 -36 24 -5 33 13 55 38 45 13 -5 15 -3 9 7 -5 9 -4 11 4 6 20 -12 86 39 108 82 17 34 21 37 30 23 6 -9 14 -13 17 -10 4 4 -5 20 -19 37 -27 33 -32 57 -12 65 21 9 27 7 27 -6z m-80 -91 c0 -2 -7 -9 -15 -16 -13 -11 -14 -10 -9 4 5 14 24 23 24 12z"/> <path d="M2038 1677 c-72 -45 -86 -62 -38 -46 25 9 124 88 110 88 -3 0 -35 -19 -72 -42z"/> <path d="M1800 2542 c0 -12 19 -26 26 -19 2 2 -2 10 -11 17 -9 8 -15 8 -15 2z"/> <path d="M1933 2528 c1 -16 5 -28 9 -28 10 0 9 9 -2 35 -8 17 -8 16 -7 -7z"/> <path d="M1197 2513 c-3 -5 -8 -38 -12 -75 -6 -52 -11 -67 -25 -71 -25 -6 -30 0 -30 41 0 20 -3 32 -7 28 -4 -4 -6 -23 -4 -42 2 -28 -1 -36 -17 -41 -13 -3 -18 -11 -15 -24 7 -24 -5 -71 -16 -65 -13 8 -22 67 -13 80 4 6 6 45 3 86 -8 107 -23 71 -24 -55 0 -96 -2 -104 -21 -109 -39 -10 -46 -7 -46 24 0 20 -5 30 -15 30 -10 0 -15 11 -16 38 -1 20 -4 51 -8 67 -6 28 -8 26 -14 -21 -7 -47 -10 -52 -37 -57 l-29 -6 -3 -148 c-3 -131 -5 -148 -20 -151 -16 -3 -18 5 -18 68 0 39 -4 80 -10 90 -5 10 -14 43 -20 72 l-9 53 5 -60 c3 -33 7 -91 10 -130 6 -83 20 -118 46 -112 15 4 18 -1 18 -37 0 -31 5 -44 21 -55 19 -11 21 -19 15 -72 -3 -36 -2 -59 4 -59 17 0 17 125 0 145 -6 8 -9 19 -6 24 4 6 0 26 -8 46 -9 20 -11 35 -5 35 6 0 10 46 10 123 -1 155 -1 159 16 152 8 -3 21 -5 29 -5 8 0 14 -10 14 -23 0 -21 46 -77 64 -77 4 0 14 6 21 14 8 7 29 13 47 12 l33 -2 -2 -63 c-3 -58 -24 -110 -45 -111 -5 0 -8 24 -8 54 0 54 0 55 -30 54 -23 -1 -29 -5 -25 -15 3 -8 5 -42 6 -76 0 -47 2 -57 9 -40 5 12 8 35 6 50 -2 15 1 39 7 53 9 22 11 18 18 -40 5 -50 4 -69 -8 -81 -11 -14 -12 -18 -1 -23 10 -5 10 -7 1 -12 -8 -3 -10 -17 -6 -36 4 -22 3 -29 -5 -24 -8 5 -10 1 -5 -10 4 -11 3 -15 -5 -10 -8 4 -10 -3 -7 -24 4 -33 -17 -95 -28 -83 -4 3 -7 -1 -7 -10 0 -10 -4 -18 -10 -18 -5 -1 -13 -3 -17 -4 -5 -2 -17 -6 -28 -10 -18 -6 -43 -46 -61 -100 -6 -18 -4 -17 10 3 10 12 22 22 27 22 6 0 22 9 36 20 63 49 213 -48 213 -138 0 -10 -6 -27 -14 -37 -13 -18 -14 -18 -9 9 13 64 -50 127 -134 134 -49 4 -55 2 -82 -27 -29 -31 -30 -36 -27 -107 4 -93 -2 -124 -23 -124 -13 0 -14 -2 -1 -9 8 -6 17 -8 20 -6 3 2 5 -10 6 -26 1 -16 -3 -29 -7 -29 -5 0 -9 6 -9 13 0 8 -4 7 -10 -3 -9 -13 -11 -13 -20 0 -8 13 -10 13 -10 -2 0 -9 8 -19 18 -21 13 -4 12 -5 -4 -6 -22 -1 -32 18 -40 79 -2 14 -10 43 -19 65 l-14 40 -1 -43 c0 -26 4 -41 10 -37 6 3 10 -3 10 -14 0 -11 -4 -23 -10 -26 -5 -3 -10 -16 -9 -28 0 -21 1 -21 8 -2 7 16 8 15 14 -11 4 -19 15 -34 31 -42 28 -12 34 -40 14 -60 -19 -19 -28 -14 -28 16 0 15 -6 35 -13 44 -12 15 -14 15 -26 -4 -11 -18 -11 -20 2 -15 10 4 16 -3 20 -21 5 -25 4 -25 -9 -7 -11 15 -14 16 -14 3 0 -28 56 -42 105 -27 6 2 19 -2 30 -8 20 -11 27 -13 46 -13 5 0 8 -4 5 -9 -10 -15 23 -21 80 -15 l54 7 0 -235 c0 -220 -1 -236 -19 -252 -12 -11 -62 -26 -121 -38 -148 -28 -140 -42 -140 242 0 219 -1 228 -21 241 -18 13 -12 14 55 16 l76 2 2 -196 3 -197 28 -7 27 -7 0 199 c0 181 -2 200 -17 206 -10 3 -24 11 -32 17 -7 5 -32 11 -55 12 -58 3 -349 -45 -359 -59 -4 -7 -5 -142 -2 -302 7 -295 9 -310 53 -435 21 -58 76 -151 107 -180 30 -29 32 -18 4 21 -11 16 -17 34 -13 41 4 7 3 10 -1 5 -10 -8 -97 242 -88 256 11 18 55 -82 56 -130 0 -7 4 -13 7 -13 8 0 24 -56 23 -77 0 -7 3 -10 8 -7 5 3 9 -3 10 -13 2 -47 7 -65 22 -81 10 -9 17 -12 17 -7 0 6 -24 81 -53 167 -47 142 -55 159 -86 180 -19 13 -37 30 -39 38 -4 11 -1 10 12 -3 25 -24 116 -21 100 4 -9 16 13 10 39 -11 25 -20 43 -79 76 -250 9 -44 9 -44 10 -10 1 19 10 82 20 140 17 95 17 106 3 118 -9 6 -22 12 -29 12 -12 0 -12 -3 0 -20 15 -22 11 -73 -6 -67 -6 2 -11 13 -12 25 -1 12 -14 35 -29 51 -18 18 -24 31 -17 35 7 5 11 51 11 124 0 117 0 117 27 129 15 7 29 10 32 7 3 -3 6 -45 7 -94 1 -48 5 -93 8 -99 5 -7 1 -8 -9 -4 -15 5 -15 3 -4 -15 7 -11 18 -18 24 -14 5 3 4 -2 -4 -11 -7 -9 -23 -17 -35 -18 -19 0 -19 -1 4 -10 14 -6 44 -8 67 -5 26 3 45 1 51 -7 9 -10 38 -142 55 -247 4 -21 5 -19 6 7 0 18 8 78 17 134 l16 102 -22 17 -23 17 24 6 c13 4 34 7 47 7 12 0 22 5 22 10 0 7 6 7 18 1 48 -28 48 -17 1 -220 l-44 -191 -35 -10 c-64 -18 -66 -17 -86 71 -20 88 -23 86 -44 -28 l-13 -71 -44 -12 c-25 -6 -53 -8 -64 -5 -10 4 -19 2 -19 -4 0 -19 36 -21 90 -6 30 9 80 20 110 25 81 14 251 49 259 54 4 3 67 14 140 26 74 12 155 28 180 36 25 7 60 14 76 14 57 -1 3 -17 -160 -49 -88 -18 -169 -34 -180 -37 -19 -4 -194 -38 -260 -50 -16 -3 -70 -14 -120 -25 -49 -10 -97 -19 -108 -19 -10 0 -43 27 -74 60 -30 33 -58 58 -63 55 -14 -9 -61 53 -85 111 -14 33 -25 53 -25 46 0 -7 7 -29 15 -49 19 -45 19 -62 1 -43 -8 8 -22 40 -31 70 -16 47 -19 107 -22 417 -3 257 -1 368 7 382 12 23 35 18 26 -5 -3 -7 -1 -16 5 -20 6 -3 8 -11 6 -18 -3 -8 6 -10 32 -7 32 4 33 5 11 11 -14 3 -27 15 -29 25 -3 19 -39 61 -45 54 -2 -2 -11 -18 -20 -36 -14 -28 -16 -79 -15 -410 1 -208 5 -367 9 -353 5 17 8 19 9 8 2 -29 2 -32 16 -65 13 -30 12 -31 -7 -28 -12 3 -32 14 -45 26 -12 13 -23 18 -23 13 -1 -5 -7 2 -15 16 -10 18 -14 61 -15 154 0 71 -2 127 -5 125 -2 -3 -5 -58 -6 -122 -1 -109 -8 -140 -23 -101 -11 28 -7 976 4 969 15 -9 13 188 -1 202 -9 9 -7 10 10 6 19 -5 21 -2 21 46 0 32 -4 50 -10 46 -5 -3 -10 -22 -10 -41 0 -19 -4 -33 -8 -30 -30 18 -32 -14 -32 -607 -1 -549 1 -598 17 -616 9 -11 22 -35 28 -53 9 -29 14 -33 43 -30 26 2 34 -3 47 -28 13 -25 21 -30 54 -30 30 0 40 -5 51 -25 8 -14 25 -28 39 -31 14 -3 49 -31 77 -62 60 -66 54 -65 261 -23 81 16 290 57 463 91 714 140 1245 248 1288 261 18 6 53 31 78 55 26 24 50 44 55 44 5 0 9 6 9 13 0 7 5 18 12 25 7 7 11 31 10 55 -1 23 7 103 18 177 13 86 20 186 20 276 l0 141 -40 28 c-44 31 -50 40 -21 32 14 -3 19 0 18 13 -1 15 -6 16 -31 9 -44 -13 -46 -12 -46 16 0 20 -5 25 -25 25 -22 0 -25 -4 -25 -34 0 -31 5 -36 63 -66 34 -18 65 -38 69 -44 4 -6 8 -59 8 -117 0 -97 -2 -107 -23 -127 -23 -22 -167 -58 -193 -48 -10 4 -14 26 -14 84 0 47 -5 83 -12 90 -9 9 1 12 45 12 l57 0 0 -40 c0 -35 3 -40 23 -40 21 0 22 3 19 64 l-4 64 -65 30 -66 31 2 94 c2 79 -1 97 -14 104 -11 7 14 15 86 27 100 18 102 18 128 -2 15 -11 27 -31 29 -48 5 -37 19 -54 46 -53 17 1 17 2 4 6 -15 4 -18 16 -18 63 0 89 -2 89 -200 52 -47 -8 -101 -15 -121 -14 -19 1 -77 -6 -127 -17 -75 -15 -92 -16 -92 -5 0 8 10 14 23 14 37 0 168 35 161 43 -4 4 -2 7 4 7 7 0 12 -4 12 -10 0 -5 8 -10 18 -9 10 0 12 3 5 6 -7 2 -13 12 -13 20 0 11 8 14 30 11 25 -4 30 -1 31 16 0 20 1 20 9 -1 13 -31 21 -29 18 5 -2 17 1 26 10 25 6 -2 12 2 12 9 0 6 3 8 7 5 3 -4 13 -1 21 6 13 10 15 8 9 -13 -4 -14 -7 -29 -7 -35 0 -5 -4 -4 -9 4 -9 14 -31 7 -31 -10 0 -12 54 -6 93 10 16 6 39 8 52 5 20 -5 23 -3 18 15 -3 11 0 35 6 53 l11 33 -20 -25 c-10 -14 -21 -32 -23 -40 -2 -8 -2 0 0 18 3 21 0 32 -6 28 -5 -3 -12 0 -14 6 -6 14 -10 -15 -8 -49 1 -11 -2 -24 -8 -27 -6 -4 -10 15 -10 51 1 55 -10 165 -16 171 -1 2 -3 -34 -3 -78 0 -45 -3 -84 -6 -88 -17 -16 -21 27 -20 206 0 154 -1 184 -8 137 -5 -33 -16 -67 -24 -76 -18 -20 -18 -62 0 -97 17 -35 28 -92 17 -92 -5 0 -11 16 -14 36 -10 62 -47 88 -47 33 0 -24 4 -30 16 -25 8 3 12 2 9 -4 -3 -6 -1 -10 4 -10 6 0 11 -8 11 -18 0 -10 4 -22 9 -28 4 -5 13 -23 19 -40 10 -32 10 -32 -43 -55 -39 -17 -51 -27 -47 -38 4 -12 2 -13 -7 -5 -9 9 -30 6 -82 -12 -39 -13 -100 -29 -136 -34 -36 -6 -153 -28 -261 -50 -109 -21 -273 -53 -367 -70 -93 -17 -226 -42 -294 -56 -69 -13 -127 -24 -129 -24 -2 0 0 -5 3 -10 4 -6 0 -22 -9 -35 -18 -27 -21 -65 -6 -65 6 0 10 7 10 15 0 19 25 8 83 -37 36 -29 37 -31 37 -98 0 -62 -2 -70 -27 -90 l-27 -21 37 -119 c20 -65 37 -123 37 -128 0 -5 -18 -12 -39 -16 -22 -3 -45 -8 -53 -11 -9 -3 -24 32 -53 125 -22 71 -44 130 -49 130 -4 0 -7 -60 -4 -134 l4 -134 -55 -11 c-30 -6 -57 -11 -60 -11 -3 0 -8 111 -9 247 -4 230 -5 247 -23 262 -19 15 -18 16 18 17 21 1 57 5 81 9 39 7 42 6 42 -14 0 -11 5 -21 10 -21 6 0 10 12 10 28 0 19 -10 35 -36 55 -30 25 -33 31 -22 44 10 13 10 17 1 20 -9 3 -12 22 -8 61 3 40 2 46 -3 22 -7 -34 -8 -34 -14 -10 -9 32 0 70 17 70 7 0 18 -13 25 -30 14 -35 21 -35 121 -15 41 8 171 32 289 55 224 42 260 52 260 71 0 8 -4 8 -12 1 -7 -5 -31 -13 -52 -16 -22 -4 -42 -8 -44 -11 -7 -7 -114 44 -164 78 -50 34 -68 62 -20 32 24 -15 23 -13 -6 14 -19 18 -30 36 -26 43 4 6 3 8 -3 5 -17 -10 -29 12 -58 102 -20 60 -26 95 -21 125 4 31 3 35 -4 19 -5 -13 -15 -23 -22 -23 -7 0 -35 -25 -62 -56 -26 -30 -50 -53 -53 -50 -3 3 9 20 27 38 47 49 77 99 84 138 5 29 2 25 -22 -25 -16 -33 -46 -80 -68 -106 l-40 -45 -59 24 c-33 13 -87 42 -120 64 -39 26 -53 32 -40 17 34 -39 69 -68 83 -69 6 0 12 -4 12 -10 0 -5 6 -10 14 -10 8 0 17 -4 21 -9 5 -9 -15 -5 -70 14 -11 3 -2 -5 19 -19 29 -18 44 -22 57 -15 28 15 34 11 14 -11 -22 -24 -9 -27 16 -4 10 9 30 18 44 19 l25 3 -21 -29 c-18 -25 -36 -34 -61 -30 -5 0 -8 -4 -8 -10 0 -6 9 -8 22 -3 20 6 19 3 -9 -32 -66 -84 -64 -83 -127 -18 -30 32 -53 61 -50 66 3 5 11 5 17 1 7 -4 4 5 -5 19 -10 15 -13 28 -8 30 6 2 1 9 -11 16 -12 8 -18 9 -14 3 3 -6 0 -11 -7 -11 -9 -1 -7 -5 4 -14 10 -7 14 -17 10 -21 -4 -5 -1 -5 6 -1 14 9 17 -10 2 -19 -6 -4 -8 -11 -4 -16 3 -6 -12 -7 -38 -4 l-43 5 44 -16 c24 -9 63 -35 87 -58 38 -36 44 -48 44 -82 l-1 -39 -14 40 c-22 63 -108 125 -173 125 -16 0 -42 -10 -57 -22 l-28 -21 13 22 c6 13 26 29 44 36 30 13 77 55 61 55 -4 0 0 9 9 19 12 13 15 27 11 41 -4 13 -1 28 8 38 17 20 28 65 27 109 0 17 3 34 7 36 5 3 8 -8 9 -24 1 -16 10 -39 20 -50 22 -24 128 -84 164 -93 14 -3 5 3 -20 15 -139 63 -194 135 -137 178 11 7 18 24 17 40 -1 14 -2 32 -1 39 1 18 21 15 21 -4 0 -14 2 -13 17 1 22 22 99 55 142 61 45 6 48 9 43 44 -6 43 -22 48 -22 6 0 -32 -2 -35 -29 -34 -26 1 -30 5 -34 37 -2 20 0 46 4 59 5 13 5 22 -1 22 -6 0 -10 4 -10 10 0 6 9 5 24 -1 17 -8 29 -8 42 0 17 9 16 10 -9 11 -16 0 -26 4 -22 10 8 13 3 13 -31 0 -26 -10 -27 -12 -22 -74 6 -69 -4 -103 -22 -76 -8 13 -10 12 -10 -3 0 -18 -57 -50 -72 -41 -5 3 -8 18 -8 33 0 15 -4 31 -10 37 -16 16 0 54 24 55 19 0 19 1 -4 10 -20 8 -22 12 -10 19 9 6 17 5 22 -3 5 -8 13 -6 27 7 12 11 21 15 22 10 0 -5 3 -20 5 -34 3 -14 5 -36 5 -50 0 -23 1 -23 8 -5 5 11 7 58 5 105 -7 159 -7 159 -17 143z m263 -593 c0 -38 48 -171 75 -205 14 -19 24 -35 21 -35 -14 0 -58 59 -71 95 -23 62 -44 165 -34 165 5 0 9 -9 9 -20z m-19 -55 c5 4 9 -8 9 -25 0 -18 -4 -29 -10 -25 -5 3 -11 1 -11 -4 -1 -6 -2 -16 -3 -22 0 -6 -19 -21 -41 -35 -50 -30 -37 -32 16 -2 23 13 38 27 35 35 -3 8 2 13 15 13 11 0 19 -6 17 -13 -5 -23 63 -116 111 -152 27 -19 71 -45 100 -58 l51 -24 -50 -7 c-28 -4 -56 -9 -64 -12 -7 -3 -27 9 -44 25 -32 33 -56 43 -29 14 8 -10 17 -27 19 -38 3 -17 -2 -19 -42 -18 -38 2 -41 1 -20 -7 19 -7 11 -8 -28 -4 -30 3 -59 1 -65 -4 -7 -5 -46 -14 -87 -21 -74 -12 -75 -12 -93 14 -27 37 -61 33 -81 -10 -17 -35 -36 -47 -36 -22 0 7 16 37 35 67 19 30 35 65 35 78 0 13 18 42 44 70 95 103 116 127 116 137 0 5 15 22 33 37 l32 28 7 -23 c5 -18 6 -16 8 13 2 25 4 29 7 12 2 -12 9 -20 14 -17z m-447 -212 c-5 -14 -4 -15 4 -4 13 18 45 7 82 -30 35 -36 38 -65 10 -119 -11 -22 -20 -42 -20 -44 0 -3 18 -15 40 -26 43 -22 52 -40 20 -40 -11 0 -20 5 -20 12 0 9 -3 9 -12 0 -9 -9 -9 -21 0 -50 7 -22 12 -49 12 -61 0 -11 5 -21 10 -21 13 0 13 66 0 91 -9 16 -7 19 8 19 20 0 32 -33 32 -86 0 -26 -34 -51 -45 -34 -5 8 -11 7 -21 -1 -7 -6 -20 -9 -29 -6 -8 4 -17 2 -20 -3 -4 -6 -13 -10 -20 -10 -11 0 -12 6 -5 25 16 42 -14 144 -36 122 -3 -3 -1 -29 6 -57 7 -28 10 -60 7 -70 -3 -12 1 -24 11 -30 10 -5 12 -10 7 -10 -6 0 -16 5 -22 11 -6 6 -27 11 -47 12 -33 1 -35 3 -32 31 2 17 0 36 -4 41 -4 6 -11 31 -14 57 -6 43 -5 50 19 74 24 24 32 26 85 22 33 -2 58 -2 55 0 -2 3 0 13 6 23 8 16 5 21 -16 29 -15 6 -38 10 -53 10 -35 -1 -79 -25 -63 -34 6 -4 11 -3 11 2 0 12 78 4 100 -10 10 -6 2 -7 -23 -3 -47 8 -102 -9 -122 -38 -19 -26 -19 -23 0 28 8 22 14 71 15 108 0 61 2 69 23 77 39 16 67 12 61 -7z m1699 -16 c3 -8 1 -20 -4 -28 -6 -10 -9 -7 -9 14 0 29 5 35 13 14z m-1794 -44 c0 -34 -1 -36 -11 -16 -6 12 -8 29 -5 37 11 27 17 18 16 -21z m1556 -27 c-16 -8 -128 -33 -247 -57 -120 -24 -213 -46 -207 -50 5 -3 42 1 82 9 40 7 100 20 135 26 34 7 65 10 67 6 7 -12 -7 -20 -35 -20 -15 0 -94 -13 -176 -29 -82 -16 -198 -39 -259 -50 -531 -98 -535 -99 -505 -82 8 5 71 19 140 31 69 13 129 26 133 30 10 9 -75 -4 -171 -24 -82 -18 -104 -20 -82 -7 14 8 231 48 390 71 152 22 242 39 253 48 7 6 98 26 202 46 105 20 210 43 235 50 58 18 83 19 45 2z m-2148 -48 c-3 -7 -5 -2 -5 12 0 14 2 19 5 13 2 -7 2 -19 0 -25z m738 -8 c13 -6 2 -7 -30 -3 -27 3 -52 7 -54 9 -9 8 65 2 84 -6z m1483 -20 c27 -16 33 -26 30 -48 -2 -18 -10 -28 -23 -30 -111 -17 -125 -23 -125 -51 0 -23 9 -31 75 -64 l75 -37 0 -118 c0 -112 -1 -120 -24 -141 -32 -30 -156 -55 -191 -39 -22 10 -24 17 -27 91 -3 72 -5 81 -28 96 -13 9 -21 11 -17 5 4 -7 1 -17 -7 -23 -10 -8 -15 -5 -24 13 -9 21 -8 25 9 29 11 3 32 -1 47 -9 15 -8 46 -14 70 -14 l42 0 0 -45 c0 -41 2 -45 25 -45 24 0 25 2 25 68 l0 67 -58 24 c-84 36 -82 33 -82 129 0 69 3 87 18 98 15 12 15 15 2 24 -9 6 -10 10 -3 10 6 0 14 -4 17 -9 7 -11 109 14 114 29 5 15 23 12 60 -10z m-208 -19 c0 -3 -4 -12 -9 -20 -8 -12 -12 -13 -26 -1 -11 9 -12 15 -5 20 13 8 40 9 40 1z m-44 -67 c0 -33 -1 -34 -48 -40 -47 -6 -48 -7 -48 -43 0 -36 0 -36 42 -36 l43 0 3 -42 3 -42 -45 -6 -46 -7 0 -69 0 -68 29 5 c51 10 71 -9 71 -69 l0 -52 -141 -28 c-78 -16 -147 -31 -154 -33 -8 -4 -24 36 -50 130 -21 75 -42 136 -46 136 -5 0 -9 -65 -9 -145 0 -131 -2 -145 -17 -145 -10 0 -35 -3 -55 -6 l-38 -7 0 250 c0 244 -1 251 -21 265 -20 13 -18 14 22 14 62 1 152 15 166 26 7 6 22 4 40 -6 60 -33 63 -38 63 -118 0 -64 -3 -78 -20 -89 -20 -14 -20 -15 13 -136 18 -67 34 -124 37 -126 3 -3 4 103 2 236 -2 174 -6 244 -15 249 -21 13 -37 9 -31 -9 2 -10 -1 -8 -7 5 -16 29 -5 39 30 25 21 -8 47 -6 105 6 42 9 74 20 70 23 -3 4 7 2 23 -4 24 -9 29 -17 29 -44z m244 -39 c0 -14 5 -25 10 -25 6 0 10 9 10 19 0 38 15 29 16 -10 2 -35 0 -38 -17 -28 -11 6 -19 6 -19 0 0 -5 -18 0 -40 10 -48 24 -50 35 -7 48 47 13 47 13 47 -14z m-782 -62 c3 -42 2 -43 -27 -43 l-31 0 0 -224 0 -223 -37 -6 c-21 -3 -47 -9 -58 -12 -20 -6 -20 -2 -17 214 1 122 -1 221 -5 221 -7 0 -56 -11 -120 -25 -21 -5 -23 -2 -23 40 0 33 -4 45 -14 45 -9 0 -13 -7 -11 -20 2 -11 0 -20 -6 -20 -5 0 -9 5 -9 12 0 6 -3 8 -7 5 -3 -4 -12 -2 -20 4 -22 19 14 36 77 37 54 0 240 29 250 38 2 3 16 4 30 2 22 -3 25 -8 28 -45z m549 18 c-1 -19 -18 -18 -43 0 -6 5 -15 5 -19 1 -5 -4 -5 -1 -1 6 4 6 20 12 36 12 22 0 28 -4 27 -19z m-1396 -54 c-8 -8 -11 -5 -11 10 0 12 -5 25 -10 28 -7 4 -9 -2 -4 -19 4 -16 2 -26 -5 -26 -6 0 -11 6 -11 14 0 8 -3 21 -6 29 -4 11 2 16 18 19 27 4 48 -36 29 -55z m319 3 c0 -5 -5 -10 -11 -10 -5 0 -7 5 -4 10 3 6 8 10 11 10 2 0 4 -4 4 -10z m1442 -35 c15 -10 11 -12 -25 -13 -38 -2 -42 0 -42 22 0 21 2 22 25 13 14 -6 33 -16 42 -22z m-908 -172 c-2 -83 0 -163 5 -180 7 -24 5 -32 -10 -41 -10 -7 -21 -12 -23 -12 -6 0 -7 390 -1 400 4 6 11 5 20 -3 10 -11 12 -47 9 -164z m638 125 c-4 -4 -27 -8 -52 -10 -40 -3 -45 -1 -42 17 6 44 10 45 56 22 25 -12 42 -25 38 -29z m-839 -41 c7 -64 2 -341 -7 -355 -8 -14 -36 -16 -36 -3 0 4 -10 6 -23 4 -22 -4 -26 2 -50 79 -40 128 -41 131 -17 160 13 18 22 46 24 84 4 52 7 59 30 65 22 6 25 4 29 -25 4 -30 4 -30 5 6 2 30 5 35 21 31 14 -3 20 -16 24 -46z m-785 -16 c4 -38 -9 -51 -50 -51 -26 0 -28 -3 -28 -43 l0 -43 40 4 40 4 0 -40 c0 -42 -11 -52 -56 -52 l-24 0 0 -139 0 -138 -47 -7 c-27 -3 -52 -6 -56 -6 -5 0 -8 112 -8 248 l2 249 -23 11 c-22 10 -21 11 12 12 19 0 64 7 100 14 88 19 94 17 98 -23z m1502 -21 c14 0 20 -7 20 -22 -1 -22 -1 -23 -15 -4 -13 17 -15 18 -15 3 0 -9 -4 -17 -8 -17 -14 0 -56 50 -48 57 4 4 17 -3 28 -17 l20 -25 -16 27 c-9 15 -16 33 -16 40 1 7 8 1 16 -14 8 -16 23 -28 34 -28z m-1490 -65 c0 -21 -3 -24 -17 -17 -10 5 -24 7 -31 5 -7 -3 -10 1 -6 11 3 9 9 14 13 12 4 -3 13 -1 21 5 20 12 20 12 20 -16z m2052 -44 c-7 -30 -9 -32 -21 -17 -12 14 -11 19 4 36 23 25 25 23 17 -19z m-49 -33 c22 -16 27 -27 27 -59 0 -21 -4 -39 -9 -39 -5 0 -22 -3 -39 -6 -28 -6 -30 -4 -25 15 6 23 3 24 -21 15 -9 -3 -16 -16 -16 -28 0 -16 13 -27 55 -45 l55 -23 0 -62 c0 -57 -3 -65 -32 -93 -38 -37 -122 -63 -141 -44 -6 6 -10 30 -8 53 2 34 -2 45 -21 61 -17 14 -19 17 -5 13 10 -3 36 -6 58 -6 35 0 39 -3 39 -25 0 -17 5 -25 18 -25 14 0 17 8 17 38 0 35 -2 38 -56 64 l-57 26 5 64 c3 34 11 69 17 77 8 11 8 15 -1 18 -25 9 -13 23 20 24 17 0 41 4 52 8 21 9 25 8 68 -21z m-193 4 c0 -26 -11 -34 -27 -21 -10 9 -10 15 -2 25 16 19 29 17 29 -4z m19 -46 c-14 -15 -22 0 -13 26 7 22 7 22 14 3 4 -11 4 -24 -1 -29z m-670 -24 c-4 -2 -5 -12 -2 -22 3 -11 9 -17 14 -14 5 3 6 -3 2 -12 -6 -15 -1 -16 43 -11 85 9 84 12 84 -192 l0 -179 -44 -11 c-25 -6 -46 -11 -48 -11 -2 0 -2 80 0 178 l3 178 -40 20 c-31 15 -39 23 -35 38 3 10 6 34 6 53 0 34 0 34 12 12 7 -13 9 -25 5 -27z m594 37 c50 -26 67 -51 67 -99 0 -34 -5 -52 -20 -65 -26 -23 -25 -41 5 -122 28 -72 24 -83 -25 -83 -23 0 -28 8 -51 77 -35 109 -51 108 -48 -3 2 -86 1 -89 -22 -95 -35 -10 -87 -10 -71 -1 9 7 12 49 10 177 l-3 168 -35 19 -35 20 30 -5 c17 -3 59 1 95 8 36 7 69 13 73 14 5 0 18 -4 30 -10z m-1986 -61 c-3 -8 -6 -5 -6 6 -1 11 2 17 5 13 3 -3 4 -12 1 -19z m1761 -8 l42 -30 0 -131 c0 -123 -1 -132 -25 -163 -21 -27 -35 -34 -90 -45 -99 -18 -97 -22 -96 164 1 100 6 164 13 172 8 10 8 17 -1 26 -9 9 -1 14 36 23 71 17 76 17 121 -16z m-187 -28 c10 -25 -8 -26 -28 -2 -17 21 -16 29 4 26 9 -2 20 -12 24 -24z m-209 -28 l33 -15 0 -180 c0 -164 -1 -179 -17 -179 -20 0 -20 4 -18 235 1 113 0 120 -22 137 -29 22 -19 23 24 2z m-47 -5 c12 -19 -5 -23 -22 -6 -16 16 -16 17 -1 17 9 0 20 -5 23 -11z m-579 -20 c1 -5 2 -13 3 -19 3 -29 42 -50 94 -50 44 1 49 2 32 12 -17 10 -15 13 25 23 50 12 76 4 138 -43 28 -21 32 -30 32 -70 0 -36 -6 -52 -26 -73 l-26 -27 32 -78 c17 -42 27 -81 23 -85 -4 -4 -21 -10 -38 -13 -30 -6 -30 -5 -59 71 -16 43 -33 82 -38 88 -4 5 -8 -32 -8 -82 0 -101 4 -95 -71 -108 -23 -4 -39 -3 -44 4 -4 7 -1 10 7 9 10 -2 14 33 16 169 l2 172 -32 17 c-32 16 -33 16 -16 -2 14 -16 16 -41 16 -152 0 -73 -5 -135 -9 -138 -5 -3 -10 4 -10 15 -2 33 -4 39 -11 47 -5 4 -8 28 -9 53 0 30 -3 40 -8 28 -5 -14 -11 -4 -24 40 -10 32 -23 68 -29 80 -9 18 -8 26 5 41 9 10 17 34 19 54 2 33 11 43 14 17z m551 -15 c51 -35 53 -38 53 -82 0 -36 -6 -52 -26 -73 l-26 -28 31 -76 c18 -42 30 -79 28 -81 -3 -3 -20 -7 -39 -10 l-34 -6 -31 78 c-17 43 -35 80 -40 81 -4 2 -7 -37 -5 -86 l3 -89 -51 -7 c-28 -4 -54 -4 -57 -1 -4 3 -1 6 5 6 9 0 12 48 12 173 l0 174 -27 13 -28 13 45 10 c25 5 61 12 80 17 19 4 39 8 45 9 5 0 33 -15 62 -35z m-213 -41 c3 -7 1 -13 -4 -13 -6 0 -10 5 -10 10 0 6 -5 10 -10 10 -18 0 -60 32 -54 41 6 10 71 -30 78 -48z m1016 27 c13 -8 12 -10 -2 -10 -10 0 -21 0 -25 -1 -4 0 -9 4 -11 10 -5 14 18 14 38 1z m-2093 -82 c-3 -8 -6 -5 -6 6 -1 11 2 17 5 13 3 -3 4 -12 1 -19z m671 -1 c13 -16 116 -346 110 -352 -2 -3 -26 -8 -51 -11 -39 -6 -47 -4 -47 10 0 18 -4 19 -48 10 -21 -4 -32 -13 -34 -28 -2 -16 -13 -23 -51 -30 -47 -8 -73 -2 -50 12 7 4 23 59 37 122 14 63 32 142 40 175 14 54 14 61 0 70 -45 29 -45 30 20 32 40 1 68 -3 74 -10z m-658 -37 c0 -5 -7 -7 -15 -4 -8 4 -12 10 -9 15 6 11 24 2 24 -11z m380 -30 c5 0 6 -8 3 -17 -6 -15 -7 -15 -14 3 -4 10 -7 26 -7 34 0 10 2 9 5 -2 2 -10 8 -18 13 -18z m-380 -68 c0 -15 -2 -15 -10 -2 -13 20 -13 33 0 25 6 -3 10 -14 10 -23z m1066 -17 c2 -26 0 -33 -11 -28 -16 5 -19 30 -9 58 9 22 17 11 20 -30z m1039 36 c-10 -9 -137 -39 -190 -44 -17 -2 -36 -6 -42 -10 -9 -6 -69 -17 -183 -34 -46 -7 -32 7 17 17 21 5 52 13 68 18 36 13 129 31 208 42 32 4 61 11 64 14 4 3 20 6 37 6 18 0 26 -4 21 -9z m-2079 -98 c3 -16 10 -40 14 -55 5 -16 5 -28 1 -28 -7 0 -30 61 -37 98 -5 25 16 11 22 -15z m1565 -9 c-25 -8 -61 -16 -80 -18 -20 -3 -36 -5 -36 -6 0 -3 -92 -21 -126 -25 -15 -1 -31 -5 -36 -8 -4 -3 -29 -8 -53 -12 -25 -3 -65 -11 -90 -17 -25 -5 -56 -12 -70 -14 -14 -2 -36 -7 -50 -10 -18 -4 -22 -2 -14 6 6 6 38 15 70 20 32 4 72 13 87 19 16 6 40 11 55 11 25 0 138 24 257 55 28 7 68 13 90 13 l40 0 -44 -14z m-366 -24 c3 -5 1 -10 -4 -10 -6 0 -11 5 -11 10 0 6 2 10 4 10 3 0 8 -4 11 -10z m-281 -45 c3 -8 1 -15 -4 -15 -6 0 -10 7 -10 15 0 8 2 15 4 15 2 0 6 -7 10 -15z"/> <path d="M1403 1633 c9 -2 23 -2 30 0 6 3 -1 5 -18 5 -16 0 -22 -2 -12 -5z"/> <path d="M1488 1633 c7 -3 16 -2 19 1 4 3 -2 6 -13 5 -11 0 -14 -3 -6 -6z"/> <path d="M1473 1583 c9 -2 23 -2 30 0 6 3 -1 5 -18 5 -16 0 -22 -2 -12 -5z"/> <path d="M1440 1540 c25 -8 117 -13 109 -6 -2 2 -33 6 -69 9 -39 3 -55 2 -40 -3z"/> <path d="M960 1626 c0 -18 35 -22 46 -4 4 7 3 8 -5 4 -6 -4 -18 -2 -26 4 -12 10 -15 9 -15 -4z"/> <path d="M945 1419 c-28 -13 -34 -19 -19 -19 11 0 24 3 28 8 4 4 26 12 49 19 37 10 39 11 12 11 -16 0 -48 -8 -70 -19z"/> <path d="M1040 1387 c0 -43 24 -125 35 -121 8 4 10 15 4 42 -5 20 -11 49 -14 65 -5 27 -25 38 -25 14z"/> <path d="M930 1361 c0 -5 5 -32 12 -59 11 -50 32 -62 35 -22 1 13 -2 18 -9 14 -7 -5 -8 -2 -4 5 9 14 -12 71 -25 71 -5 0 -9 -4 -9 -9z"/> <path d="M1893 1293 c-8 -3 -13 -23 -13 -49 0 -42 1 -44 30 -44 29 0 30 1 30 50 0 51 -9 59 -47 43z"/> <path d="M2203 1003 c-13 -2 -23 -8 -23 -13 0 -5 15 -4 33 2 52 18 47 22 -10 11z"/> <path d="M1492 1080 c0 -19 2 -27 5 -17 2 9 2 25 0 35 -3 9 -5 1 -5 -18z"/> <path d="M1493 960 c0 -47 2 -66 4 -42 2 23 2 61 0 85 -2 23 -4 4 -4 -43z"/> <path d="M1492 830 c0 -14 2 -19 5 -12 2 6 2 18 0 25 -3 6 -5 1 -5 -13z"/> <path d="M2720 950 c-23 -7 -23 -8 -3 -9 12 -1 25 4 28 9 3 6 5 10 3 9 -2 -1 -14 -5 -28 -9z"/> <path d="M2018 803 c7 -3 16 -2 19 1 4 3 -2 6 -13 5 -11 0 -14 -3 -6 -6z"/> <path d="M2440 900 c-20 -6 -21 -8 -5 -8 11 0 34 4 50 8 27 7 27 8 5 8 -14 0 -36 -4 -50 -8z"/> <path d="M2480 851 c-18 -5 -26 -15 -28 -34 -3 -24 0 -27 27 -27 29 0 31 3 31 35 0 19 -1 35 -2 34 -2 -1 -14 -4 -28 -8z"/> <path d="M2230 856 c0 -2 9 -6 20 -9 11 -3 18 -1 14 4 -5 9 -34 13 -34 5z"/> <path d="M2188 843 c6 -2 18 -2 25 0 6 3 1 5 -13 5 -14 0 -19 -2 -12 -5z"/> <path d="M2210 690 c0 -103 1 -110 20 -110 19 0 20 7 20 110 0 103 -1 110 -20 110 -19 0 -20 -7 -20 -110z"/> <path d="M1470 707 c-25 -5 -49 -13 -55 -19 -7 -7 -2 -8 14 -3 13 4 42 9 64 11 22 2 42 6 44 8 10 10 -27 12 -67 3z"/> <path d="M1291 694 c0 -11 3 -14 6 -6 3 7 2 16 -1 19 -3 4 -6 -2 -5 -13z"/> <path d="M1478 653 c-13 -3 -18 -15 -18 -39 0 -31 3 -34 28 -34 25 0 27 3 27 40 0 39 -3 42 -37 33z"/> <path d="M1291 594 c0 -11 3 -14 6 -6 3 7 2 16 -1 19 -3 4 -6 -2 -5 -13z"/> <path d="M1733 756 c-28 -6 -55 -15 -60 -20 -5 -5 5 -6 22 -1 30 7 55 11 88 14 9 0 17 6 17 11 0 11 2 12 -67 -4z"/> <path d="M1758 703 c-12 -3 -18 -14 -18 -34 0 -25 4 -29 28 -29 24 0 27 3 27 35 0 35 -3 37 -37 28z"/> <path d="M1165 650 c-19 -8 -19 -9 3 -9 12 -1 22 4 22 9 0 6 -1 10 -2 9 -2 0 -12 -4 -23 -9z"/> <path d="M1167 504 c-3 -33 -9 -68 -13 -77 -5 -14 0 -17 25 -17 24 0 29 3 24 17 -3 9 -11 44 -18 77 l-11 61 -7 -61z"/> <path d="M2041 2495 c0 -17 -7 -37 -13 -44 -8 -9 -9 -15 -3 -17 7 -3 9 -43 7 -109 -3 -69 -1 -105 6 -105 12 0 20 202 11 265 -5 35 -6 36 -8 10z"/> <path d="M1926 2481 c-4 -5 3 -7 14 -4 23 6 26 13 6 13 -8 0 -17 -4 -20 -9z"/> <path d="M1944 2462 c-6 -4 -4 -13 8 -24 17 -17 18 -17 18 7 0 26 -7 30 -26 17z"/> <path d="M731 2365 c-7 -47 -19 -107 -27 -132 -16 -53 -19 -213 -4 -213 13 0 24 45 17 70 -3 11 -1 20 4 20 5 0 9 -43 9 -95 0 -59 -4 -95 -10 -95 -6 0 -13 6 -16 14 -3 8 -13 12 -25 9 -16 -5 -19 0 -19 27 0 28 2 31 15 20 13 -10 15 -9 15 8 0 25 -12 34 -34 26 -13 -5 -16 -22 -16 -80 0 -76 -3 -81 -51 -76 -8 1 -21 -109 -14 -116 2 -3 12 1 20 8 9 7 12 17 7 22 -5 5 -6 23 -3 41 l5 32 6 -34 c8 -50 28 -51 24 -1 -2 30 2 42 15 50 27 14 31 4 31 -72 0 -37 4 -68 9 -68 14 0 23 -34 15 -54 -4 -11 -14 -16 -26 -13 -12 4 -18 1 -15 -6 2 -7 11 -11 20 -9 8 1 18 -5 20 -15 3 -10 5 -2 6 17 1 20 5 30 9 23 4 -6 16 -11 26 -10 10 1 23 -7 29 -18 6 -11 20 -33 30 -48 10 -15 22 -53 27 -84 5 -31 15 -61 21 -67 9 -8 10 -8 5 2 -4 6 -3 12 3 12 6 0 6 11 0 32 -11 40 -11 40 -1 34 5 -3 -2 18 -16 47 -14 29 -29 54 -33 55 -5 2 -9 9 -9 16 0 14 -30 44 -45 45 -5 1 -10 6 -9 11 1 6 2 19 3 31 1 15 6 19 19 15 15 -5 17 1 14 66 -2 41 -7 66 -12 58 -4 -7 -13 -9 -19 -6 -6 4 -11 0 -11 -9 0 -11 5 -15 15 -11 12 4 15 -4 15 -40 0 -57 -23 -56 -30 2 -3 26 -11 40 -22 42 -10 2 -18 -2 -18 -8 0 -6 5 -8 10 -5 6 4 10 -6 10 -24 0 -16 7 -37 16 -45 8 -9 11 -16 5 -16 -6 0 -11 -15 -12 -32 l-1 -33 -10 28 c-5 15 -14 27 -19 27 -5 0 -9 34 -9 75 0 57 -3 75 -14 75 -8 0 -17 8 -21 18 -5 14 -4 15 6 5 16 -16 33 -17 23 -2 -5 8 -1 8 14 0 48 -25 47 -28 50 264 2 151 2 275 -1 275 -2 0 -9 -38 -16 -85z m-9 -217 c-7 -7 -12 -8 -12 -2 0 14 12 26 19 19 2 -3 -1 -11 -7 -17z"/> <path d="M1590 2436 c0 -2 7 -7 16 -10 8 -3 12 -2 9 4 -6 10 -25 14 -25 6z"/> <path d="M1976 2405 c-6 -16 11 -20 32 -6 11 7 10 10 -3 15 -22 8 -22 8 -29 -9z"/> <path d="M1866 2353 c-3 -3 -6 -12 -6 -20 0 -7 -16 -27 -35 -44 -24 -22 -35 -40 -35 -59 0 -16 -7 -30 -15 -34 -12 -4 -15 3 -15 29 0 30 -4 35 -27 41 -16 3 -38 10 -51 15 -30 12 -32 12 -32 -5 0 -7 20 -19 46 -26 l46 -13 -4 -98 c-2 -54 0 -95 4 -93 5 3 17 22 28 42 14 27 19 32 20 17 0 -17 -34 -85 -42 -85 -2 0 -18 -4 -36 -9 -17 -5 -32 -6 -32 -1 0 4 9 10 20 13 13 3 20 13 19 29 -1 17 -3 18 -6 5 -4 -16 -6 -16 -31 2 -43 30 -83 72 -115 121 -16 25 -26 36 -23 25 6 -16 5 -17 -5 -8 -7 7 -11 37 -10 75 2 58 1 61 -13 43 -9 -11 -16 -35 -16 -54 0 -40 46 -125 62 -115 7 4 8 2 4 -5 -4 -6 6 -29 24 -51 17 -22 27 -40 21 -40 -15 0 -75 83 -107 147 -22 45 -25 57 -15 84 9 27 9 30 -4 19 -23 -19 -18 -57 17 -123 34 -63 133 -178 122 -142 -4 14 3 10 23 -14 28 -32 31 -33 65 -22 19 6 46 24 60 39 22 23 26 40 32 116 4 61 12 95 24 110 9 12 19 22 22 22 3 1 15 6 28 13 19 10 22 9 22 -8 0 -11 5 -23 11 -26 7 -5 9 3 7 21 -2 23 -7 29 -25 27 -25 -3 -29 7 -12 24 6 6 7 13 1 17 -5 3 -12 3 -16 -1z m-240 -266 c12 -13 28 -27 35 -29 8 -3 10 -9 6 -14 -4 -4 -29 14 -55 40 -26 27 -38 44 -27 38 11 -6 30 -21 41 -35z"/> <path d="M1278 2315 c2 -14 6 -25 8 -25 2 0 4 11 4 25 0 14 -4 25 -9 25 -4 0 -6 -11 -3 -25z"/> <path d="M1960 2331 c0 -6 4 -11 9 -11 6 0 11 -15 13 -32 2 -24 8 -33 23 -35 11 -2 14 0 8 3 -16 7 -17 56 -1 72 8 8 9 12 1 12 -6 0 -13 -6 -16 -12 -3 -10 -7 -10 -20 1 -11 9 -17 10 -17 2z"/> <path d="M1926 2319 c7 -8 14 -23 17 -34 4 -13 5 -9 4 9 -1 16 -9 32 -17 34 -12 4 -13 2 -4 -9z"/> <path d="M2319 2288 c0 -18 0 -85 1 -149 1 -74 -3 -119 -9 -124 -13 -7 -15 -65 -3 -65 5 0 15 -12 23 -26 12 -24 17 -26 62 -19 43 5 49 4 43 -10 -3 -9 -6 -21 -6 -26 0 -5 -4 -9 -10 -9 -5 0 -10 7 -10 16 0 13 -6 11 -26 -10 -35 -34 -40 -33 -48 9 -4 19 -16 39 -26 45 -26 14 -25 10 10 -50 32 -54 37 -75 20 -85 -7 -4 -7 -12 0 -25 6 -11 6 -28 2 -41 -5 -12 -7 -32 -4 -44 5 -26 52 -36 156 -33 58 1 57 1 -21 7 -46 4 -88 12 -95 19 -13 13 6 15 150 14 39 -1 72 3 72 9 0 5 -4 9 -8 9 -4 0 -8 8 -8 19 0 11 5 17 13 14 7 -3 13 -16 13 -29 0 -15 6 -24 15 -24 13 0 13 3 3 20 -11 17 -11 22 0 29 9 5 6 11 -12 21 -14 7 -26 22 -28 33 -5 33 -22 29 -34 -8 -7 -23 -8 -37 -1 -44 14 -14 4 -23 -17 -15 -16 6 -22 39 -8 47 4 2 1 2 -5 1 -7 -2 -13 3 -13 11 0 8 -4 15 -8 15 -4 0 -9 12 -10 27 -1 15 -7 30 -14 34 -6 4 -11 21 -11 39 0 20 -3 26 -9 18 -6 -11 -12 145 -9 272 0 19 -2 28 -6 20 -3 -8 -12 -22 -19 -31 -10 -11 -15 -48 -16 -120 -2 -125 -5 -139 -29 -139 -20 0 -21 14 -20 175 0 46 -1 47 -8 17 -15 -59 -21 -47 -21 46 0 50 5 94 10 97 7 4 6 13 -1 26 -6 11 -8 27 -5 35 3 8 1 14 -4 14 -6 0 -10 -15 -11 -32z m156 -465 c-2 -7 1 -13 8 -13 8 0 6 -4 -3 -10 -9 -6 -10 -10 -3 -10 11 0 33 -58 33 -88 0 -21 -23 -9 -37 19 -13 24 -13 24 -13 2 0 -16 -4 -21 -15 -17 -12 5 -13 10 -4 20 9 11 7 14 -7 15 -17 1 -17 2 -1 6 9 2 15 9 12 14 -9 13 9 11 23 -3 9 -9 9 -5 0 14 -7 15 -15 25 -17 22 -3 -2 -15 6 -28 18 -28 26 -40 18 -49 -32 -4 -26 -3 -31 5 -20 6 8 11 26 11 39 0 20 2 22 15 11 10 -8 13 -20 9 -34 -6 -18 -9 -34 -13 -68 -1 -5 -7 -8 -15 -8 -9 0 -13 7 -11 20 2 11 0 20 -5 20 -5 0 -8 22 -7 50 2 43 5 50 22 50 11 0 26 4 33 9 18 11 63 -10 57 -26z"/> <path d="M2431 1833 c-1 -17 16 -25 25 -12 4 7 3 9 -4 5 -5 -3 -13 0 -15 6 -4 9 -6 10 -6 1z"/> <path d="M899 2283 c-2 -16 -2 -77 2 -138 l5 -110 2 138 c2 130 -1 170 -9 110z"/> <path d="M1370 2295 c-1 -5 -2 -14 -1 -19 1 -4 -4 -14 -10 -22 -9 -11 -7 -14 13 -14 14 0 33 -9 42 -19 23 -25 46 -104 46 -156 0 -45 13 -62 85 -108 76 -48 194 -55 272 -15 26 13 67 72 76 108 4 14 4 19 1 12 -3 -6 -10 -9 -16 -6 -6 4 -8 -2 -3 -17 4 -16 3 -20 -3 -11 -5 8 -8 46 -6 85 l3 72 -8 -65 c-4 -36 -11 -72 -16 -79 -5 -9 -4 -12 3 -7 7 4 10 -2 9 -14 -2 -28 -57 -76 -81 -72 -10 2 -16 0 -13 -5 3 -4 -23 -8 -58 -8 -35 0 -58 4 -52 8 7 5 -2 5 -19 2 -26 -5 -39 1 -80 33 -60 47 -77 68 -79 93 -1 16 5 13 36 -17 21 -21 36 -40 34 -44 -4 -7 18 -30 42 -44 12 -7 12 11 0 32 -11 17 -3 15 34 -7 19 -12 26 -20 17 -23 -7 -3 2 -7 20 -10 17 -2 32 -1 32 3 0 3 -15 13 -32 20 -42 17 -159 135 -182 183 -9 20 -20 36 -25 36 -4 0 -14 11 -21 25 -7 14 -21 25 -31 25 -12 0 -19 9 -22 28 -2 15 -5 23 -7 17z m198 -284 c-5 -1 -1 -9 9 -17 10 -7 13 -14 7 -14 -6 0 -17 7 -24 15 -7 8 -9 15 -5 15 4 0 -11 20 -33 44 -22 24 -45 54 -52 67 -6 13 15 -5 48 -41 33 -36 56 -67 50 -69z"/> <path d="M2240 2260 c0 -5 7 -10 16 -10 8 0 12 5 9 10 -3 6 -10 10 -16 10 -5 0 -9 -4 -9 -10z"/> <path d="M1960 2247 c32 -25 80 -102 80 -128 0 -15 7 -29 16 -33 13 -5 14 -2 9 11 -5 10 -9 28 -10 39 -2 25 -81 124 -98 124 -7 -1 -6 -6 3 -13z"/> <path d="M1673 2233 c9 -14 47 -24 47 -12 0 5 -4 9 -9 9 -5 0 -17 3 -27 7 -11 4 -15 3 -11 -4z"/> <path d="M2261 2231 c-12 -8 -14 -31 -12 -107 3 -108 5 -116 26 -107 12 4 15 28 15 114 0 60 -3 109 -7 109 -5 0 -14 -4 -22 -9z m19 -101 c0 -60 -4 -100 -10 -100 -6 0 -10 30 -10 69 0 65 8 131 16 131 2 0 4 -45 4 -100z"/> <path d="M962 2080 l2 -155 5 145 c4 80 3 149 -1 155 -5 5 -7 -61 -6 -145z"/> <path d="M1380 2199 c35 -48 39 -132 10 -188 -15 -31 -26 -41 -37 -37 -13 5 -14 4 -3 -9 7 -8 16 -15 20 -15 11 0 60 115 60 142 0 42 -31 118 -53 129 -19 11 -18 9 3 -22z"/> <path d="M1048 2213 c7 -3 16 -2 19 1 4 3 -2 6 -13 5 -11 0 -14 -3 -6 -6z"/> <path d="M2218 2208 c-2 -7 -1 -38 3 -68 l6 -55 1 68 c2 64 -1 82 -10 55z"/> <path d="M998 2203 c7 -3 16 -2 19 1 4 3 -2 6 -13 5 -11 0 -14 -3 -6 -6z"/> <path d="M1838 2195 c-4 -11 -12 -47 -17 -79 -16 -89 -39 -129 -79 -137 -53 -11 -51 -22 2 -16 57 6 66 15 90 91 16 51 20 187 4 141z"/> <path d="M2180 2200 c0 -5 -11 -10 -25 -10 -14 0 -25 -5 -25 -11 0 -7 10 -9 25 -7 21 4 25 1 25 -18 0 -12 -6 -25 -12 -27 -10 -4 -10 -6 0 -6 6 -1 12 -9 12 -18 0 -15 -2 -16 -10 -3 -5 8 -10 11 -10 5 1 -12 25 -45 34 -45 3 0 6 34 6 75 0 43 -4 75 -10 75 -5 0 -10 -4 -10 -10z"/> <path d="M1276 2155 c16 -46 12 -101 -7 -90 -5 4 -25 29 -43 57 -19 27 -36 46 -39 41 -10 -16 23 -69 74 -119 l50 -49 -7 53 c-4 35 -3 52 5 52 7 0 4 17 -8 47 -24 63 -45 70 -25 8z"/> <path d="M1315 2164 c10 -24 14 -54 10 -88 -4 -41 -3 -45 4 -18 5 18 11 35 14 38 7 7 -22 92 -34 100 -6 3 -3 -11 6 -32z"/> <path d="M1065 2180 c-3 -5 1 -10 9 -10 9 0 16 5 16 10 0 6 -4 10 -9 10 -6 0 -13 -4 -16 -10z"/> <path d="M1230 2170 c-13 -8 -12 -10 3 -10 9 0 17 -7 17 -16 0 -8 5 -12 10 -9 8 5 8 11 1 19 -6 7 -8 16 -4 19 10 10 -10 8 -27 -3z"/> <path d="M1881 2164 c0 -11 3 -14 6 -6 3 7 2 16 -1 19 -3 4 -6 -2 -5 -13z"/> <path d="M2072 2135 c0 -16 2 -22 5 -12 2 9 2 23 0 30 -3 6 -5 -1 -5 -18z"/> <path d="M2478 2084 c2 -36 5 -64 7 -62 8 8 8 122 -1 125 -5 2 -8 -25 -6 -63z"/> <path d="M2566 2071 c4 -40 2 -61 -5 -61 -6 0 -11 -5 -11 -11 0 -6 6 -9 13 -6 9 3 11 -9 9 -49 -4 -52 -5 -54 -33 -54 l-29 0 -2 83 -1 82 -7 -95 c-5 -83 -4 -100 14 -137 18 -39 41 -61 32 -30 -20 63 -8 106 15 55 8 -21 9 -20 4 5 -4 19 -2 26 5 22 17 -11 17 230 0 249 -5 5 -6 -19 -4 -53z"/> <path d="M1130 2090 c0 -17 125 -144 158 -160 15 -8 29 -16 31 -17 2 -2 -4 -12 -14 -23 -25 -27 -9 -25 25 4 l28 23 -57 41 c-31 22 -83 63 -114 92 -31 29 -57 47 -57 40z"/> <path d="M1996 2090 c16 -30 67 -95 61 -77 -4 10 -2 28 4 40 9 20 9 21 -4 4 -14 -17 -16 -16 -42 15 -15 18 -23 26 -19 18z"/> <path d="M2091 2074 c0 -11 3 -14 6 -6 3 7 2 16 -1 19 -3 4 -6 -2 -5 -13z"/> <path d="M1500 2035 c13 -14 26 -25 28 -25 3 0 -5 11 -18 25 -13 14 -26 25 -28 25 -3 0 5 -11 18 -25z"/> <path d="M2213 2000 c-3 -11 -10 -20 -17 -20 -11 0 43 -40 54 -40 4 0 4 15 2 34 -5 40 -31 57 -39 26z"/> <path d="M819 1970 c-6 -48 -5 -54 8 -49 4 2 6 24 3 49 l-6 45 -5 -45z"/> <path d="M551 1973 c-1 -17 -5 -35 -11 -38 -5 -3 -10 -11 -10 -16 0 -6 5 -7 10 -4 6 4 10 -22 10 -69 0 -43 -4 -77 -10 -77 -5 -1 -16 -2 -22 -3 -9 -1 -14 -26 -16 -83 -2 -59 -7 -85 -18 -94 -14 -12 -16 0 -14 111 3 162 2 180 -9 180 -5 0 -7 -9 -4 -20 3 -11 -1 -27 -8 -36 -7 -9 -9 -18 -3 -22 5 -4 9 -55 10 -113 0 -93 -2 -108 -18 -118 -15 -9 -20 -8 -24 4 -4 8 -4 22 -1 30 4 8 2 17 -3 20 -6 4 -10 -17 -10 -49 0 -31 -4 -56 -10 -56 -6 0 -10 30 -10 71 0 61 -2 70 -16 65 -9 -3 -18 -6 -21 -6 -3 0 0 -7 7 -15 7 -8 12 -34 12 -57 -1 -26 7 -52 19 -70 20 -27 49 -38 49 -18 0 6 -4 10 -10 10 -5 0 -10 7 -10 16 0 8 4 13 9 10 5 -3 17 6 27 19 11 15 25 23 35 20 10 -3 19 1 23 11 11 28 24 3 19 -33 -6 -38 -20 -42 -33 -10 -8 18 -9 16 -4 -11 3 -19 3 -54 -1 -79 -5 -35 -9 -42 -19 -34 -17 14 -31 -2 -42 -44 -4 -17 -11 -35 -15 -41 -10 -13 25 -54 46 -54 11 0 13 8 8 33 -8 42 -13 47 -13 12 0 -16 -3 -26 -6 -22 -3 3 -3 30 1 59 l8 53 13 -30 c7 -16 13 -51 14 -76 0 -32 5 -49 15 -53 8 -3 15 -12 15 -21 0 -8 6 -15 14 -15 11 0 12 7 5 33 -5 18 -8 58 -7 89 1 32 -1 60 -5 64 -4 4 -7 -23 -7 -59 0 -38 -4 -67 -10 -67 -13 0 -12 135 2 180 6 19 17 47 24 62 16 30 19 147 5 196 -7 23 -7 30 1 26 8 -5 9 -1 5 10 -5 13 -3 17 7 13 11 -4 14 15 18 96 3 56 2 113 -3 127 -7 24 -7 24 -8 -7z m-81 -163 c0 -5 -2 -10 -4 -10 -3 0 -8 5 -11 10 -3 6 -1 10 4 10 6 0 11 -4 11 -10z"/> <path d="M2261 1988 c1 -7 5 -24 9 -38 8 -24 8 -24 9 7 1 17 -3 35 -9 38 -5 3 -10 0 -9 -7z"/> <path d="M1905 1970 c-4 -6 -3 -16 3 -22 6 -6 12 -6 17 2 4 6 3 16 -3 22 -6 6 -12 6 -17 -2z"/> <path d="M2693 1925 c-3 -9 -3 -18 -1 -21 3 -3 8 4 11 16 6 23 -1 27 -10 5z"/> <path d="M1484 1919 c-9 -16 12 -33 31 -25 14 5 15 9 5 21 -15 18 -26 19 -36 4z"/> <path d="M765 1910 c-3 -5 -2 -10 4 -10 5 0 13 5 16 10 3 6 2 10 -4 10 -5 0 -13 -4 -16 -10z"/> <path d="M1046 1894 c-9 -25 -7 -27 10 -13 15 12 22 8 58 -32 26 -29 54 -49 74 -54 41 -9 41 0 0 21 -18 9 -54 34 -80 55 -53 44 -54 45 -62 23z"/> <path d="M1687 1867 l-48 -32 4 -85 c8 -134 1 -121 83 -166 39 -22 39 -22 74 -2 33 18 34 19 6 13 l-28 -6 22 28 c33 42 50 90 50 140 0 42 -2 45 -22 39 -13 -3 -31 -6 -41 -6 -10 0 -16 -4 -12 -10 4 -6 15 -6 30 0 24 9 25 8 25 -39 0 -48 -11 -63 -45 -66 -5 0 -16 -4 -23 -9 -7 -4 -26 -3 -43 4 -25 11 -29 18 -29 51 0 32 3 39 20 39 16 0 20 -7 20 -34 0 -19 5 -38 10 -41 6 -4 10 14 10 46 l0 52 -31 -7 c-17 -3 -35 -6 -38 -6 -4 0 -4 -25 -1 -55 4 -40 13 -62 29 -78 13 -12 21 -17 18 -11 -8 14 44 32 67 24 17 -6 17 -9 -10 -38 l-29 -33 -32 23 c-43 30 -63 83 -63 166 l0 68 41 27 c35 23 49 27 93 23 49 -5 49 -5 11 4 -59 13 -66 12 -118 -23z"/> <path d="M2021 1882 c-8 -15 -8 -22 -1 -22 6 0 8 -11 6 -25 -5 -29 -1 -31 20 -10 9 8 11 15 5 15 -6 0 -11 5 -11 11 0 5 5 7 10 4 14 -9 12 8 -4 30 -13 18 -14 18 -25 -3z"/> <path d="M2691 1874 c0 -11 3 -14 6 -6 3 7 2 16 -1 19 -3 4 -6 -2 -5 -13z"/> <path d="M2295 1861 c3 -10 1 -31 -5 -47 -9 -23 -8 -31 6 -41 11 -8 15 -22 12 -47 -4 -38 6 -40 16 -2 3 13 -1 36 -9 52 -22 43 -20 61 5 39 26 -23 25 -15 -1 29 -23 39 -34 47 -24 17z"/> <path d="M799 1857 c7 -7 21 -7 43 0 l33 10 -43 0 c-29 0 -40 -3 -33 -10z"/> <path d="M1709 1844 c-29 -12 -36 -20 -32 -35 4 -15 12 -19 32 -15 14 3 43 8 64 12 20 3 37 10 37 15 0 12 -17 11 -60 -1 -22 -6 -38 -6 -44 0 -7 7 -1 10 17 10 17 0 27 5 27 15 0 8 -1 15 -2 14 -2 0 -19 -7 -39 -15z"/> <path d="M1764 1852 c3 -5 19 -7 36 -4 25 4 30 1 30 -17 0 -11 5 -21 10 -21 6 0 10 11 10 25 0 23 -4 25 -46 25 -25 0 -43 -4 -40 -8z"/> <path d="M2244 1748 c0 -36 4 -61 8 -55 4 7 8 22 8 34 0 15 5 21 14 17 8 -3 17 -1 21 5 3 7 -2 11 -14 11 -12 0 -23 10 -29 28 -8 22 -9 14 -8 -40z"/> <path d="M1020 1796 c0 -2 7 -7 16 -10 8 -3 12 -2 9 4 -6 10 -25 14 -25 6z"/> <path d="M1110 1794 c0 -3 7 -12 15 -20 8 -8 12 -21 9 -28 -3 -8 9 -24 28 -37 18 -13 28 -17 21 -9 -6 8 -13 20 -15 25 -1 6 -9 9 -15 9 -7 -1 -13 2 -13 7 0 13 39 26 67 23 13 -1 23 2 23 8 0 6 -13 8 -30 6 -17 -3 -34 0 -37 6 -4 5 -10 1 -14 -10 -6 -15 -8 -16 -8 -3 -1 15 -31 37 -31 23z"/> <path d="M619 1743 c-1 -17 -3 -21 -6 -10 -7 26 -23 21 -23 -8 0 -19 5 -25 23 -26 16 -1 18 -2 5 -6 -28 -7 -24 -103 6 -162 33 -62 48 -113 38 -123 -5 -5 -14 10 -21 32 -6 22 -16 40 -20 40 -5 0 -3 -21 5 -47 8 -25 14 -58 14 -73 0 -15 10 -35 22 -46 12 -10 18 -14 14 -7 -3 7 0 27 8 45 l15 33 -4 -40 -5 -40 12 32 c6 18 7 40 3 50 -4 10 -9 34 -11 53 -2 19 -7 53 -12 75 -9 37 -10 38 -11 10 -1 -23 -3 -27 -11 -15 -12 19 -13 63 -1 56 5 -4 7 4 4 16 -4 19 -3 20 6 8 7 -10 11 -11 11 -3 0 18 -32 53 -42 47 -5 -3 -4 -11 1 -18 7 -8 7 -23 2 -42 -11 -33 -11 -33 -17 20 -4 29 0 44 14 60 11 12 22 33 24 49 6 29 -8 38 -15 10 -3 -10 -5 -1 -6 20 -1 42 -20 51 -22 10z"/> <path d="M1105 1760 c3 -5 8 -10 11 -10 2 0 4 5 4 10 0 6 -5 10 -11 10 -5 0 -7 -4 -4 -10z"/> <path d="M1798 1760 c-4 -8 -9 -28 -13 -45 -6 -28 -5 -29 10 -14 10 10 15 27 13 45 -3 19 -6 24 -10 14z"/> <path d="M1205 1741 c-3 -5 0 -13 6 -17 7 -4 9 -3 5 4 -3 5 0 13 6 15 9 4 10 6 1 6 -6 1 -14 -3 -18 -8z"/> <path d="M550 1711 c0 -17 5 -33 10 -36 6 -4 10 8 10 29 0 20 -4 36 -10 36 -5 0 -10 -13 -10 -29z"/> <path d="M763 1715 c0 -8 4 -15 9 -15 4 0 8 7 8 15 0 8 -4 15 -8 15 -5 0 -9 -7 -9 -15z"/> <path d="M675 1697 c-4 -10 -5 -21 -1 -24 10 -10 18 4 13 24 -4 17 -4 17 -12 0z"/> <path d="M2818 1661 c-8 -12 -18 -18 -22 -14 -4 4 -4 0 0 -10 7 -19 24 -13 24 8 0 7 6 15 13 18 6 2 9 7 6 11 -4 4 -13 -2 -21 -13z"/> <path d="M558 1625 c2 -19 6 -35 8 -35 2 0 4 16 4 35 0 19 -4 35 -8 35 -4 0 -6 -16 -4 -35z"/> <path d="M733 1643 c4 -3 -1 -15 -10 -25 -10 -11 -13 -18 -8 -17 15 5 66 -32 59 -42 -3 -5 -1 -9 4 -9 9 0 18 -35 29 -115 7 -51 10 -53 25 -21 9 20 9 29 0 34 -6 4 -15 25 -21 47 -16 65 -37 116 -52 126 -12 7 -12 9 1 9 13 0 13 1 0 10 -17 11 -37 13 -27 3z m37 -43 c0 -5 -5 -10 -11 -10 -5 0 -7 5 -4 10 3 6 8 10 11 10 2 0 4 -4 4 -10z"/> <path d="M1864 1636 c5 -13 2 -17 -9 -13 -17 7 -30 -9 -14 -18 18 -12 40 17 28 35 -9 12 -10 12 -5 -4z"/> <path d="M1762 1625 c-13 -7 -19 -15 -14 -19 5 -3 17 3 27 14 21 23 19 23 -13 5z"/> <path d="M2400 1610 c0 -5 7 -7 15 -4 8 4 15 8 15 10 0 2 -7 4 -15 4 -8 0 -15 -4 -15 -10z"/> <path d="M2295 1595 c-31 -8 -40 -13 -25 -14 14 0 48 6 75 13 63 18 18 18 -50 1z"/> <path d="M700 1576 c5 -15 10 -48 11 -74 0 -26 3 -41 6 -34 2 6 9 10 14 6 5 -3 8 8 7 25 -1 17 -6 31 -11 31 -4 0 -5 5 -2 11 5 6 12 4 20 -8 7 -10 17 -14 21 -10 7 7 -13 29 -59 66 -16 13 -17 12 -7 -13z"/> <path d="M2825 1590 c3 -5 10 -10 16 -10 5 0 9 5 9 10 0 6 -7 10 -16 10 -8 0 -12 -4 -9 -10z"/> <path d="M2768 1583 c6 -2 18 -2 25 0 6 3 1 5 -13 5 -14 0 -19 -2 -12 -5z"/> <path d="M2170 1570 c-20 -6 -21 -8 -5 -8 11 0 34 4 50 8 27 7 27 8 5 8 -14 0 -36 -4 -50 -8z"/> <path d="M566 1544 c-7 -19 10 -44 30 -44 16 0 16 5 8 38 -7 26 -29 29 -38 6z m34 -24 c0 -5 -7 -7 -15 -4 -8 4 -15 8 -15 10 0 2 7 4 15 4 8 0 15 -4 15 -10z"/> <path d="M1865 1514 c-115 -24 -286 -57 -380 -74 -223 -40 -215 -38 -215 -58 0 -14 2 -14 9 -3 5 8 20 16 33 18 68 10 262 46 398 73 85 17 202 40 260 52 58 11 121 24 140 28 l35 8 -35 -1 c-19 0 -129 -19 -245 -43z"/> <path d="M2598 1553 c7 -3 16 -2 19 1 4 3 -2 6 -13 5 -11 0 -14 -3 -6 -6z"/> <path d="M537 1504 c-3 -4 -3 -12 1 -18 3 -6 5 -37 3 -70 -1 -34 1 -56 6 -53 6 4 10 0 10 -8 0 -8 -4 -12 -9 -9 -4 3 -8 -11 -8 -30 0 -20 5 -36 10 -36 6 0 10 5 10 11 0 5 5 7 10 4 6 -3 10 -19 10 -36 0 -22 5 -29 20 -29 16 0 20 7 21 33 0 17 3 26 6 20 5 -13 33 -19 33 -7 0 3 -7 12 -15 20 -13 13 -18 34 -14 60 0 4 -5 10 -12 15 -7 4 -13 23 -13 43 -1 20 -7 38 -13 41 -7 2 -13 12 -13 21 0 10 -3 14 -7 11 -3 -4 -11 0 -17 9 -6 8 -15 12 -19 8z m56 -121 c5 -49 4 -63 -7 -63 -18 0 -27 73 -13 104 7 14 12 24 13 23 1 -1 4 -30 7 -64z m8 -114 c-6 -24 -9 -28 -10 -12 -1 24 9 56 16 50 2 -3 0 -20 -6 -38z"/> <path d="M2728 1503 c7 -3 16 -2 19 1 4 3 -2 6 -13 5 -11 0 -14 -3 -6 -6z"/> <path d="M370 1393 c0 -75 -4 -104 -14 -112 -12 -10 -15 -8 -19 11 -6 30 -7 -29 -9 -320 0 -133 2 -245 6 -249 3 -3 7 113 7 258 1 160 5 242 9 209 4 -30 8 -210 9 -400 1 -207 5 -348 11 -354 12 -12 13 695 1 766 -4 27 -4 54 2 64 10 18 12 212 3 222 -3 3 -6 -40 -6 -95z"/> <path d="M431 1444 c0 -11 3 -14 6 -6 3 7 2 16 -1 19 -3 4 -6 -2 -5 -13z"/> <path d="M721 1451 c-9 -6 -10 -11 -2 -15 6 -4 11 -25 11 -47 0 -26 4 -38 11 -33 7 4 8 20 4 43 -4 20 -8 42 -8 49 0 6 -1 12 -1 12 -1 0 -7 -4 -15 -9z"/> <path d="M1210 1418 c0 -7 4 -19 9 -27 8 -13 12 -13 26 -1 16 13 16 15 -1 27 -22 16 -34 17 -34 1z"/> <path d="M1235 1340 c-3 -4 -2 -15 1 -24 5 -13 9 -14 20 -5 8 6 14 15 14 19 0 12 -29 20 -35 10z"/> <path d="M736 1324 c-8 -20 0 -32 14 -18 5 5 5 15 1 22 -6 11 -10 10 -15 -4z"/> <path d="M676 1282 c-4 -7 -2 -12 3 -12 6 0 11 -7 11 -16 0 -8 5 -12 10 -9 6 3 10 13 10 21 0 8 -4 13 -9 10 -5 -4 -11 -1 -13 6 -3 9 -6 9 -12 0z"/> <path d="M720 1266 c-12 -33 -12 -36 -1 -36 9 0 22 52 15 59 -2 2 -8 -8 -14 -23z"/> <path d="M555 1247 c-4 -10 -5 -21 -1 -24 10 -10 18 4 13 24 -4 17 -4 17 -12 0z"/> <path d="M653 1223 c9 -2 25 -2 35 0 9 3 1 5 -18 5 -19 0 -27 -2 -17 -5z"/> <path d="M618 1193 c6 -2 18 -2 25 0 6 3 1 5 -13 5 -14 0 -19 -2 -12 -5z"/> <path d="M558 1183 c6 -2 18 -2 25 0 6 3 1 5 -13 5 -14 0 -19 -2 -12 -5z"/> <path d="M1260 1161 c-21 -6 -25 -13 -28 -53 l-3 -46 35 0 36 0 0 54 c0 30 -3 54 -7 53 -5 -1 -19 -4 -33 -8z"/> <path d="M462 1120 c0 -14 2 -19 5 -12 2 6 2 18 0 25 -3 6 -5 1 -5 -13z"/> <path d="M1227 1039 c7 -7 15 -10 18 -7 3 3 -2 9 -12 12 -14 6 -15 5 -6 -5z"/> <path d="M726 857 c3 -10 9 -15 12 -12 3 3 0 11 -7 18 -10 9 -11 8 -5 -6z"/> <path d="M918 753 c7 -3 16 -2 19 1 4 3 -2 6 -13 5 -11 0 -14 -3 -6 -6z"/> <path d="M1005 620 c-20 -9 -20 -9 0 -9 11 0 27 4 35 9 13 9 13 10 0 9 -8 0 -24 -4 -35 -9z"/> <path d="M838 583 c7 -3 16 -2 19 1 4 3 -2 6 -13 5 -11 0 -14 -3 -6 -6z"/> <path d="M653 563 c-13 -2 -23 -8 -23 -13 0 -5 14 -4 30 1 27 10 42 21 23 18 -5 -1 -18 -4 -30 -6z"/> </g> </svg> 