<svg version="1.0" xmlns="http://www.w3.org/2000/svg" width="288.000000pt" height="288.000000pt"
  viewBox="0 0 288.000000 288.000000" preserveAspectRatio="xMidYMid meet">
  <g transform="translate(0.000000,288.000000) scale(0.100000,-0.100000)" fill="#bc3a1c"
    stroke="none">
    <path
      d="M354 2497 c-2 -7 -3 -87 -2 -177 l3 -165 85 -5 85 -5 5 -85 5 -85 85 -5 85 -5 0 -175 0 -175
        -85 -5 -85 -5 -5 -85 -5 -85 -85 -5 -85 -5 -5 -85 -5 -85 -85 -5 -85 -5 -5 -85 -5 -85 -82 -3 -83 -3 0 -449 
        0 -449 83 -3 82 -3 3 -83 3 -82 359 0 359 0 3 83 3 82 85 5 85 5 5 85 5 85 85 5 85 5 5 85 5 85 85 5 85 5 5 
        85 5 85 85 5 85 5 5 85 5 85 85 5 85 5 5 85 5 85 85 5 85 5 5 85 5 85 85 5 85 5 5 85 5 85 85 5 85 5 0 355 0 
        355 -85 5 -85 5 -5 85 -5 85 -85 5 -85 5 -5 85 -5 85 -265 0 -265 0 -5 -85 -5 -85 -85 -5 -85 -5 -5 -85 -5 -85 
        -85 0 -85 0 -5 85 -5 85 -85 5 -85 5 -5 85 -5 85 -263 3 c-209 2 -264 0 -268 -11z" />
  </g>
  <g transform="translate(0.000000,288.000000) scale(0.100000,-0.100000)" fill="#4d170b"
    stroke="#4d170b" strokeWidth="5px">
    <path
      d="M355 2498 c-3 -8 -4 -88 -3 -178 l3 -165 87 -3 87 -3 3 -87 3 -87 88 -3 87 -3 0 -179 0 -179 
        -87 -3 -88 -3 -3 -87 -3 -87 -87 -3 -87 -3 -3 -87 -3 -87 -87 -3 -87 -3 -3 -87 -3 -88 -84 0 -85 0 0 
        -90 0 -91 83 3 82 3 3 87 3 87 87 3 87 3 3 87 3 87 87 3 87 3 3 87 3 87 87 3 87 3 3 87 3 87 87 3 87 
        3 0 175 0 175 -87 3 -87 3 -3 87 -3 87 -87 3 -88 3 -2 177 -3 177 -83 3 c-61 2 -84 -1 -87 -10z" />
    <path
      d="M1437 2503 c-4 -3 -7 -44 -7 -89 l0 -83 -87 -3 -88 -3 -3 -87 -3 -87 -87 -3 -87 -3 0 -85 0 
        -85 85 0 85 0 3 87 3 87 87 3 87 3 3 88 3 87 269 0 269 0 3 -87 3 -88 88 -3 87 -3 0 -359 0 -359 -87 
        -3 -88 -3 -3 -87 -3 -87 -87 -3 -87 -3 -3 -87 -3 -87 -87 -3 -87 -3 -3 -87 -3 -87 -87 -3 -87 -3 -3 
        -87 -3 -87 -87 -3 -87 -3 -3 -87 -3 -87 -87 -3 -87 -3 -3 -87 -3 -87 -87 -3 -87 -3 0 -85 0 -85 85 0 
        85 0 3 87 3 87 87 3 87 3 3 87 3 87 87 3 87 3 3 87 3 87 87 3 87 3 3 87 3 87 87 3 87 3 3 87 3 87 87 
        3 87 3 3 87 3 87 87 3 87 3 3 87 3 87 87 3 87 3 0 355 0 355 -87 3 -87 3 -3 87 -3 87 -87 3 -87 3 -3 
        87 -3 87 -261 3 c-143 1 -263 -1 -267 -5z" />
    <path
      d="M0 260 l0 -90 85 0 85 0 0 -85 0 -85 90 0 91 0 -3 83 -3 82 -87 3 -87 3 -3 87 -3 87 -82 3 -83 
        3 0 -91z" />
  </g>
  <g transform="translate(0.000000,288.000000) scale(0.100000,-0.100000)"
    fill="#8d1d0b" stroke="#8d1d0b" strokeWidth="5px">
    <path
      d="M534 2497 c-3 -8 -4 -47 -2 -88 l3 -74 177 -3 177 -2 3 -88 3 -87 85 0 85 0 0 85 0 85 -87 3 -87 3 -3 87 -3 87 -173 3 c-138 2 -173 0 -178 -11z" />
    <path d="M1254 2137 c-3 -8 -4 -47 -2 -88 l3 -74 85 0 85 0 0 85 0 85 -83 3 c-63 2 -84 0 -88 -11z" />
    <path d="M0 620 l0 -271 83 3 82 3 0 265 0 265 -82 3 -83 3 0 -271z" />
    <path
      d="M354 517 c-3 -8 -4 -47 -2 -88 l3 -74 175 0 175 0 0 85 0 85 -173 3 c-138 2 -173 0 -178 -11z" />
    <path
      d="M357 163 c-4 -3 -7 -42 -7 -85 l0 -78 270 0 271 0 -3 83 -3 82 -261 3 c-143 1 -263 -1 -267 -5z" />
  </g>
  <g transform="translate(0.000000,288.000000) scale(0.100000,-0.100000)" fill="#e87854"
    stroke="#e87854" strokeWidth="10px">
    <path
      d="M714 2317 c-3 -8 -4 -47 -2 -88 l3 -74 87 -3 87 -3 3 -87 3 -87 87 -3 87 -3 3 -87 3 -87 85 0 85 0 0 85 0 85 -87 3 -87 3 -3 87 
        -3 87 -87 3 -87 3 -3 87 -3 87 -83 3 c-63 2 -84 0 -88 -11z" />
    <path
      d="M537 1244 c-4 -4 -7 -45 -7 -90 l0 -83 -87 -3 -88 -3 -3 -87 -3 
        -87 -87 -3 -87 -3 0 -265 0 -265 87 -3 87 -3 3 -87 3 -87 265 0 265 0 3 87 3 87 87 3 87 3 0 265 0 265 -87 3 -87 3 -3 87 -3 87 -87 3 
        -87 3 -3 87 -3 87 -80 3 c-45 1 -84 0 -88 -4z m175 -261 l3 -88 88 -3 87 -3 0 -269 0 -270 -270 0 -270 0 0 270 0 269 88 3 87 3 3 88 3 
        87 89 0 89 0 3 -87z" />
  </g>
  <g transform="translate(0.000000,288.000000) scale(0.100000,-0.100000)" fill="#5b0a0b"
    stroke="#5b0a0b" strokeWidth="10px">
    <path
      d="M537 1064 c-4 -4 -7 -45 -7 -90 l0 -83 -87 -3 -88 -3 0 -175 0 -175 177 -3 177 -2 3 -88 3 -87 
        85 0 85 0 0 265 0 265 -87 3 -87 3 -3 87 -3 87 -80 3 c-45 1 -84 0 -88 -4z" />
  </g>
  <g transform="translate(0.000000,288.000000) scale(0.100000,-0.100000)" fill="#bc3a1c"
    stroke="#bc3a1c" strokeWidth="10px">
    <path
      d="M534 2317 c-3 -8 -4 -47 -2 -88 l3 -74 87 -3 87 -3 3 -87 3 -87 85 0 85 0 0 85 0 85 -87 3 -87 3 -3 87 -3 87 -83 3 c-63 2 -84 0 -88 -11z" />
    <path
      d="M1435 2318 c-3 -7 -6 -87 -7 -178 l-3 -165 -85 -5 -85 -5 -5 -85 -5 -85 -85 -5 -85 -5 -5 -85 -5 -85 -85 -5 -85 -5 -5 -85 -5 -85 -175 -5 -175 -5 -3 -87 -3 -87 -87 -3 -87 -3 -3 -87 -3 -87 -87 -3 -87 -3 0 -85 0 -85 85 0 85 0 3 87 3 87 87 3 87 3 3 88 3 88 87 -3 87 -3 5 -85 5 -85 85 -5 85 -5 5 -85 5 -85 85 -5 85 -5 5 -175 5 -175 85 0 85 0 5 85 5 85 85 5 85 5 5 175 5 175 85 5 85 5 5 85 5 85 85 5 85 5 5 85 5 85 175 5 175 5 0 355 0 355 -85 5 -85 5 -5 85 -5 85 -263 3 c-205 2 -264 0 -267 -10z" />
    <path d="M174 337 c-3 -8 -4 -47 -2 -88 l3 -74 85 0 85 0 0 85 0 85 -83 3 c-63 2 -84 0 -88 -11z" />
  </g>
  <g transform="translate(0.000000,288.000000) scale(0.100000,-0.100000)" fill="#912820"
    stroke="#912820" strokeWidth="10px">
    <path
      d="M1435 2318 c-3 -8 -4 -88 -3 -178 l3 -165 85 0 85 0 0 175 0 175 -83 3 c-61 2 -84 -1 -87 -10z" />
    <path
      d="M897 1964 c-4 -4 -7 -85 -7 -180 l0 -173 -87 -3 -88 -3 0 -85 0 -85 85 0 85 0 3 87 3 87 87 3 87 3 0 175 0 175 -80 3 c-45 1 -84 0 -88 -4z" />
    <path
      d="M1977 1784 c-4 -4 -7 -85 -7 -180 l0 -173 -87 -3 -88 -3 -3 -87 -3 -87 -87 -3 -87 -3 -3 -87 -3 -87 -87 -3 -87 -3 -3 -87 -3 -87 -87 -3 -87 -3 0 -85 0 -85 85 0 85 0 3 87 3 87 87 3 87 3 3 87 3 87 87 3 87 3 3 87 3 87 87 3 87 3 3 87 3 87 87 3 87 3 0 175 0 175 -80 3 c-45 1 -84 0 -88 -4z" />
  </g>
</svg>